<?xml version="1.0" encoding="utf-8"?>
<!-- Generator: Adobe Illustrator 23.0.0, SVG Export Plug-In . SVG Version: 6.00 Build 0)  -->
<svg version="1.1" id="Layer_1" xmlns="http://www.w3.org/2000/svg" xmlns:xlink="http://www.w3.org/1999/xlink" x="0px" y="0px"
	 viewBox="0 0 23.01 22.99" style="enable-background:new 0 0 23.01 22.99;" xml:space="preserve">
<style type="text/css">
	.st0{fill:#2C4072;}
	.st1{fill:#231F20;}
</style>
<g>
	<g id="AyKeDx_1_">
		<g>
			<path d="M19.57,0c1.88-0.05,3.67,1.83,3.41,3.56c-0.12,0.81-0.57,1.44-1.13,1.99c-1.07,1.07-2.14,2.13-3.21,3.19
				c-2.14,2.12-4.28,4.23-6.43,6.34c-0.14,0.14-0.33,0.25-0.51,0.31c-1.6,0.52-3.2,1.02-4.8,1.54c-0.28,0.09-0.53,0.11-0.75-0.1
				c-0.22-0.22-0.2-0.47-0.12-0.75c0.5-1.66,1-3.33,1.5-4.99c0.04-0.14,0.13-0.29,0.24-0.4c3.23-3.23,6.46-6.46,9.69-9.68
				C18.09,0.38,18.86,0.03,19.57,0z M7.83,15.1c0.14-0.04,0.23-0.06,0.31-0.08c0.95-0.3,1.9-0.6,2.85-0.91
				c0.15-0.05,0.3-0.14,0.42-0.25c2.64-2.6,5.28-5.21,7.92-7.81c0.55-0.55,1.11-1.09,1.66-1.65c0.4-0.4,0.69-0.88,0.54-1.47
				c-0.2-0.73-0.69-1.24-1.41-1.44c-0.65-0.19-1.2,0.11-1.65,0.57c-3.15,3.14-6.3,6.28-9.45,9.43c-0.07,0.07-0.14,0.16-0.17,0.25
				C8.51,12.83,8.18,13.94,7.83,15.1z"/>
		</g>
	</g>
	<path d="M19.55,8.85c0.4,1.04,0.62,2.17,0.62,3.35c0,5.18-4.2,9.38-9.38,9.38s-9.38-4.2-9.38-9.38c0-5.18,4.2-9.38,9.38-9.38
		c1.15,0,2.25,0.21,3.27,0.59c0.35-0.35,0.71-0.71,1.07-1.07c-1.33-0.59-2.8-0.91-4.34-0.91C4.83,1.43,0,6.25,0,12.21
		c0,5.95,4.83,10.78,10.78,10.78c5.95,0,10.78-4.83,10.78-10.78c0-1.57-0.34-3.07-0.94-4.42C20.27,8.14,19.92,8.49,19.55,8.85z"/>
</g>
</svg>
