<?xml version="1.0" encoding="utf-8"?>
<!-- Generator: Adobe Illustrator 23.0.0, SVG Export Plug-In . SVG Version: 6.00 Build 0)  -->
<svg version="1.1" xmlns="http://www.w3.org/2000/svg" xmlns:xlink="http://www.w3.org/1999/xlink" x="0px" y="0px"
	 viewBox="0 0 110.23 103.3" style="enable-background:new 0 0 110.23 103.3;" xml:space="preserve">
<style type="text/css">
	.st0{opacity:0.79;fill:#FBF6E6;}
	.st1{fill:#2C3333;}
	.st2{fill:#383838;}
	.st3{fill:#FFFFFF;}
	.st4{fill:none;stroke:#383838;stroke-width:3;stroke-miterlimit:10;}
	.st5{fill:none;stroke:#383838;stroke-width:3;stroke-linecap:round;stroke-miterlimit:10;}
	.st6{display:none;}
	.st7{display:inline;}
	.st8{fill:none;stroke:#FFFFFF;stroke-width:3;stroke-linecap:round;stroke-miterlimit:10;}
	.st9{fill:#231F20;}
	.st10{fill:#EA2227;}
	.st11{clip-path:url(#SVGID_2_);}
	.st12{clip-path:url(#SVGID_4_);}
	.st13{clip-path:url(#SVGID_4_);fill:#FFFFFF;}
	.st14{fill:#7A7A7A;}
	.st15{opacity:0.89;clip-path:url(#SVGID_6_);}
	.st16{clip-path:url(#SVGID_6_);}
	.st17{clip-path:url(#SVGID_10_);}
	.st18{fill:url(#SVGID_11_);}
	.st19{clip-path:url(#SVGID_6_);fill:#C32127;stroke:#C32127;stroke-width:9;stroke-linecap:round;stroke-miterlimit:10;}
	.st20{clip-path:url(#SVGID_15_);}
	.st21{filter:url(#Adobe_OpacityMaskFilter);}
	.st22{opacity:0.78;mask:url(#SVGID_18_);}
	.st23{clip-path:url(#SVGID_20_);fill:#200C0D;}
	.st24{clip-path:url(#SVGID_28_);}
	.st25{clip-path:url(#SVGID_36_);}
</style>
<g id="Layer_1">
	<g>
		<g>
			<g>
				<path class="st1" d="M1.91,78.45h3.28v8.34h0.08c0.43-0.7,0.89-1.34,1.32-1.96l4.73-6.38h4.09l-6.24,7.72l6.64,10.41h-3.87
					l-5.14-8.31L5.19,90.2v6.38H1.91V78.45z"/>
				<path class="st1" d="M16.57,77.48h3.34v7.8h0.05c0.4-0.62,0.94-1.13,1.64-1.51c0.65-0.38,1.43-0.59,2.26-0.59
					c2.23,0,4.57,1.48,4.57,5.68v7.72h-3.31v-7.34c0-1.91-0.7-3.34-2.53-3.34c-1.29,0-2.21,0.86-2.56,1.86
					c-0.11,0.27-0.13,0.62-0.13,1v7.83h-3.34V77.48z"/>
				<path class="st1" d="M38.36,96.58l-0.22-1.45h-0.08c-0.81,1.02-2.18,1.75-3.87,1.75c-2.64,0-4.12-1.91-4.12-3.9
					c0-3.31,2.93-4.98,7.77-4.95v-0.21c0-0.86-0.35-2.29-2.66-2.29c-1.29,0-2.64,0.4-3.52,0.97l-0.65-2.15
					c0.97-0.59,2.66-1.16,4.73-1.16c4.2,0,5.41,2.66,5.41,5.51v4.73c0,1.18,0.05,2.34,0.19,3.15H38.36z M37.93,90.18
					c-2.34-0.05-4.57,0.46-4.57,2.45c0,1.29,0.83,1.88,1.88,1.88c1.32,0,2.29-0.86,2.58-1.8c0.08-0.24,0.11-0.51,0.11-0.73V90.18z
					 M39.97,77.8l-3.31,3.98h-2.29l2.34-3.98H39.97z"/>
				<path class="st1" d="M43.68,87.38c0-1.51-0.03-2.77-0.11-3.9h2.85l0.13,1.94h0.08c0.65-1.02,1.83-2.23,4.04-2.23
					c1.72,0,3.07,0.97,3.63,2.42h0.05c0.46-0.73,1-1.26,1.61-1.64c0.73-0.51,1.56-0.78,2.64-0.78c2.18,0,4.38,1.48,4.38,5.68v7.72
					h-3.23v-7.24c0-2.18-0.75-3.47-2.34-3.47c-1.13,0-1.96,0.81-2.31,1.75c-0.08,0.32-0.16,0.73-0.16,1.1v7.86h-3.23v-7.59
					c0-1.83-0.73-3.12-2.26-3.12c-1.24,0-2.07,0.97-2.37,1.88c-0.13,0.32-0.19,0.7-0.19,1.08v7.75h-3.23V87.38z"/>
				<path class="st1" d="M70.13,87.83c0-1.72-0.05-3.12-0.11-4.36h2.91l0.16,2.02h0.05c0.97-1.48,2.5-2.31,4.49-2.31
					c3.01,0,5.52,2.58,5.52,6.67c0,4.74-2.99,7.02-5.97,7.02c-1.64,0-3.01-0.7-3.69-1.75h-0.05v6.78h-3.31V87.83z M73.43,91.09
					c0,0.32,0.03,0.62,0.11,0.92c0.32,1.34,1.51,2.31,2.91,2.31c2.1,0,3.34-1.75,3.34-4.33c0-2.31-1.13-4.2-3.26-4.2
					c-1.37,0-2.64,1-2.96,2.45c-0.08,0.27-0.13,0.57-0.13,0.83V91.09z"/>
				<path class="st1" d="M84.89,77.48h3.34v7.8h0.05c0.4-0.62,0.94-1.13,1.64-1.51c0.65-0.38,1.43-0.59,2.26-0.59
					c2.23,0,4.57,1.48,4.57,5.68v7.72h-3.31v-7.34c0-1.91-0.7-3.34-2.53-3.34c-1.29,0-2.21,0.86-2.56,1.86
					c-0.11,0.27-0.13,0.62-0.13,1v7.83h-3.34V77.48z"/>
				<path class="st1" d="M106.68,96.58l-0.22-1.45h-0.08c-0.81,1.02-2.18,1.75-3.87,1.75c-2.64,0-4.12-1.91-4.12-3.9
					c0-3.31,2.93-4.98,7.77-4.95v-0.21c0-0.86-0.35-2.29-2.66-2.29c-1.29,0-2.64,0.4-3.52,0.97l-0.65-2.15
					c0.97-0.59,2.66-1.16,4.73-1.16c4.2,0,5.41,2.66,5.41,5.51v4.73c0,1.18,0.05,2.34,0.19,3.15H106.68z M106.25,90.18
					c-2.34-0.05-4.57,0.46-4.57,2.45c0,1.29,0.83,1.88,1.88,1.88c1.32,0,2.29-0.86,2.58-1.8c0.08-0.24,0.11-0.51,0.11-0.73V90.18z
					 M108.29,77.8l-3.31,3.98h-2.29l2.34-3.98H108.29z"/>
			</g>
		</g>
		<g>
			<g>
				<path class="st2" d="M87.78,23.31H24.38c-1.74,0-3.14-1.41-3.14-3.14c0-1.73,1.41-3.14,3.14-3.14h63.41
					c1.74,0,3.14,1.41,3.14,3.14C90.93,21.91,89.52,23.31,87.78,23.31z"/>
			</g>
			<path class="st2" d="M26.4,25.13l5.51,22.18c0.35,1.67,1.87,2.87,3.63,2.87h41.1c1.76,0,3.27-1.2,3.63-2.87l5.51-22.18H26.4z
				 M39.29,45.3h-3.15V29.1h3.15V45.3z M48.47,45.3h-3.15V29.1h3.15V45.3z M57.65,45.3H54.5V29.1h3.15V45.3z M66.83,45.3h-3.15V29.1
				h3.15V45.3z M76.01,45.3h-3.15V29.1h3.15V45.3z"/>
			<path class="st2" d="M37.93,15.14c2.43-7.7,9.64-13.31,18.14-13.31c8.5,0,15.72,5.6,18.14,13.31h1.91C73.65,6.41,65.6,0,56.08,0
				c-9.52,0-17.57,6.41-20.05,15.14H37.93z"/>
		</g>
	</g>
</g>
<g id="Layer_2">
</g>
<g id="Layer_3" class="st6">
</g>
</svg>
