<?xml version="1.0" encoding="utf-8"?>
<!-- Generator: Adobe Illustrator 23.0.0, SVG Export Plug-In . SVG Version: 6.00 Build 0)  -->
<svg version="1.1" id="Layer_1" xmlns="http://www.w3.org/2000/svg" xmlns:xlink="http://www.w3.org/1999/xlink" x="0px" y="0px"
	 viewBox="0 0 267.87 216.94" style="enable-background:new 0 0 267.87 216.94;" xml:space="preserve">
<style type="text/css">
	.st0{fill:#2C4072;}
	.st1{fill:#231F20;}
</style>
<g>
	<g>
		<path class="st0" d="M242.92,177.26c-12.98-16.17-36.91-42.11-56.83-42.11c-13.73,0-30.99,12.12-48.37,24.85
			c-4.59-6.15-8.46-14.08-10.92-23.16c-1.27-4.66-2.04-9.27-2.41-13.7c11.45,3.07,22.75,4.69,31.36,1.79
			c19.93-6.71,39.14-40.57,45-51.69h19.51v-7.26H151.5v7.26h22.21c-2.01,7.34-8.11,23.96-23.24,29.07
			c-19.61,6.6-63.3-18.93-83.3-12.19c-19.99,6.74-33.09,46-33.09,46l20.36,11.22c0,0,2.5-30.86,21.72-37.34
			c2.31-0.78,6.16-0.17,10.92,1.13c-3.87,9.63-4.38,23.35-0.53,37.56c4,14.81,11.77,26.62,20.32,32.49
			c-8.2,4.69-15.92,7.78-22.7,7.78c-28.38,0-44.82-35.78-44.82-35.78S10.96,160.61,0,191.37c13.56-14.14,23.55-13.86,31.09-6.35
			c13.41,13.36,36.02,31.92,58.18,31.92c34.61,0,74.09-50.17,89.98-50.17c27.81,0,49.03,40.67,49.03,40.67s39.6-22.2,39.6-44.62
			C258.1,173.01,253.29,177.26,242.92,177.26z"/>
		<path class="st0" d="M107.41,89.18c12.99,0,23.52-10.99,23.52-24.52c0-8.35-4.01-15.71-10.12-20.15L88.1,78.62
			C92.34,85,99.41,89.18,107.41,89.18z"/>
		<path class="st0" d="M185.88,22.98c-3.68,0-6.66,3.11-6.66,6.95c0,1.32,0.37,2.54,0.98,3.59c-16.28,2.19-28.7,13.57-28.7,27.32
			h68.76c0-13.75-12.42-25.13-28.7-27.32c0.61-1.05,0.98-2.27,0.98-3.59C192.55,26.09,189.56,22.98,185.88,22.98z"/>
		<path class="st0" d="M137.81,0c9.84,27.24,35.69,8.5,42.53,23.73C174.68,1.65,150.11,19.23,137.81,0z"/>
		<path class="st0" d="M144.24,33.53c15.73,11.97,22.52-9.84,32.04-3.7C164.77,19.17,158.24,39.75,144.24,33.53z"/>
		<path class="st0" d="M177.52,27.93c-14.47-20.18-40.15,2.82-62.18-12.98C136.84,39.16,163.79,14.72,177.52,27.93z"/>
	</g>
	<path class="st0" d="M119,43.62L98.5,32.18c0.66-1.51,1.03-3.18,1.03-4.95c0-6.58-5.12-11.92-11.43-11.92
		c-4.9,0-9.07,3.21-10.7,7.73c-1.74-1.12-3.79-1.77-5.99-1.77c-6.31,0-11.43,5.34-11.43,11.92c0,2.62,0.81,5.04,2.18,7.01
		c-3.98,1.86-6.75,6.03-6.75,10.88c0,6.58,5.12,11.92,11.43,11.92c2.48,0,4.78-0.83,6.66-2.23l13.57,16.14L119,43.62z"/>
</g>
</svg>
