<?xml version="1.0" encoding="utf-8"?>
<!-- Generator: Adobe Illustrator 23.0.0, SVG Export Plug-In . SVG Version: 6.00 Build 0)  -->
<svg version="1.1" xmlns="http://www.w3.org/2000/svg" xmlns:xlink="http://www.w3.org/1999/xlink" x="0px" y="0px"
	 viewBox="0 0 97.72 96.99" style="enable-background:new 0 0 97.72 96.99;" xml:space="preserve">
<style type="text/css">
	.st0{opacity:0.79;fill:#FBF6E6;}
	.st1{fill:#2C3333;}
	.st2{fill:#383838;}
	.st3{fill:#FFFFFF;}
	.st4{fill:none;stroke:#383838;stroke-width:3;stroke-miterlimit:10;}
	.st5{fill:none;stroke:#383838;stroke-width:3;stroke-linecap:round;stroke-miterlimit:10;}
	.st6{display:none;}
	.st7{display:inline;}
	.st8{fill:none;stroke:#FFFFFF;stroke-width:3;stroke-linecap:round;stroke-miterlimit:10;}
	.st9{fill:#231F20;}
	.st10{fill:#EA2227;}
	.st11{clip-path:url(#SVGID_2_);}
	.st12{clip-path:url(#SVGID_4_);}
	.st13{clip-path:url(#SVGID_4_);fill:#FFFFFF;}
	.st14{fill:#7A7A7A;}
	.st15{opacity:0.89;clip-path:url(#SVGID_6_);}
	.st16{clip-path:url(#SVGID_6_);}
	.st17{clip-path:url(#SVGID_10_);}
	.st18{fill:url(#SVGID_11_);}
	.st19{clip-path:url(#SVGID_6_);fill:#C32127;stroke:#C32127;stroke-width:9;stroke-linecap:round;stroke-miterlimit:10;}
	.st20{clip-path:url(#SVGID_15_);}
	.st21{filter:url(#Adobe_OpacityMaskFilter);}
	.st22{opacity:0.78;mask:url(#SVGID_18_);}
	.st23{clip-path:url(#SVGID_20_);fill:#200C0D;}
	.st24{clip-path:url(#SVGID_28_);}
	.st25{clip-path:url(#SVGID_36_);}
</style>
<g id="Layer_1">
	<g>
		<g>
			<path class="st1" d="M16.44,89.43c-1.16,0.43-3.42,1.02-5.84,1.02c-3.07,0-5.38-0.78-7.1-2.42c-1.61-1.53-2.56-3.93-2.53-6.67
				c0-5.73,4.09-9.42,10.09-9.42c2.23,0,3.98,0.46,4.82,0.86l-0.73,2.66c-1-0.43-2.21-0.78-4.12-0.78c-3.87,0-6.59,2.29-6.59,6.51
				c0,4.12,2.53,6.56,6.29,6.56c1.18,0,2.07-0.16,2.5-0.38v-4.52h-3.2v-2.61h6.4V89.43z"/>
			<path class="st1" d="M22.33,73.51c0,1-0.73,1.78-1.88,1.78c-1.1,0-1.83-0.78-1.83-1.78c0-1.02,0.75-1.8,1.86-1.8
				C21.6,71.71,22.3,72.49,22.33,73.51z M18.8,90.27v-13.1h3.34v13.1H18.8z"/>
			<path class="st1" d="M37.17,83.6c0,4.82-3.39,6.97-6.72,6.97c-3.71,0-6.56-2.56-6.56-6.75c0-4.3,2.83-6.94,6.78-6.94
				C34.56,76.87,37.17,79.61,37.17,83.6z M27.3,83.73c0,2.53,1.24,4.44,3.25,4.44c1.88,0,3.2-1.86,3.2-4.49
				c0-2.04-0.92-4.38-3.17-4.38C28.24,79.29,27.3,81.55,27.3,83.73z M29.43,75.66c0.35-1.24,1.51-1.59,1.51-2.58
				c0-0.54-0.38-0.89-0.86-0.89c-0.54,0-0.94,0.48-1.24,0.92l-1.13-0.67c0.54-1.13,1.48-1.99,2.99-1.99c1.4,0,2.47,0.92,2.47,2.21
				c0,1.64-1.48,2.13-2.07,3.42L29.43,75.66z"/>
			<path class="st1" d="M43.52,71.17h3.34v7.8h0.05c0.4-0.62,0.94-1.13,1.64-1.51c0.65-0.38,1.43-0.59,2.26-0.59
				c2.23,0,4.57,1.48,4.57,5.68v7.72h-3.31v-7.34c0-1.91-0.7-3.34-2.53-3.34c-1.29,0-2.21,0.86-2.56,1.86
				c-0.11,0.27-0.13,0.62-0.13,1v7.83h-3.34V71.17z"/>
			<path class="st1" d="M65.31,90.27l-0.21-1.45h-0.08c-0.81,1.02-2.18,1.75-3.87,1.75c-2.64,0-4.12-1.91-4.12-3.9
				c0-3.31,2.93-4.98,7.77-4.95V81.5c0-0.86-0.35-2.29-2.66-2.29c-1.29,0-2.64,0.4-3.52,0.97l-0.65-2.15
				c0.97-0.59,2.66-1.16,4.73-1.16c4.2,0,5.41,2.66,5.41,5.51v4.73c0,1.18,0.05,2.34,0.19,3.15H65.31z M62.05,71.49l2.31,3.98h-2.29
				l-3.28-3.98H62.05z M64.88,83.87c-2.34-0.05-4.57,0.46-4.57,2.45c0,1.29,0.83,1.88,1.88,1.88c1.32,0,2.29-0.86,2.58-1.8
				c0.08-0.24,0.11-0.51,0.11-0.73V83.87z"/>
			<path class="st1" d="M70.63,81.07c0-1.51-0.03-2.77-0.11-3.9h2.91l0.16,1.96h0.08c0.56-1.02,1.99-2.26,4.17-2.26
				c2.29,0,4.65,1.48,4.65,5.62v7.77h-3.31v-7.4c0-1.88-0.7-3.31-2.5-3.31c-1.32,0-2.23,0.94-2.58,1.94
				c-0.11,0.3-0.13,0.7-0.13,1.08v7.69h-3.34V81.07z"/>
			<path class="st1" d="M97.02,77.17c-0.05,0.89-0.11,1.96-0.11,3.77v7.42c0,2.74-0.56,4.71-1.94,5.95
				c-1.37,1.21-3.25,1.59-5.06,1.59c-1.67,0-3.44-0.35-4.57-1.05l0.73-2.5c0.83,0.48,2.23,1,3.82,1c2.15,0,3.77-1.13,3.77-3.95
				v-1.13h-0.05c-0.75,1.16-2.1,1.94-3.82,1.94c-3.25,0-5.57-2.69-5.57-6.4c0-4.3,2.8-6.91,5.95-6.91c1.99,0,3.17,0.97,3.79,2.04
				h0.05l0.13-1.75H97.02z M93.61,82.41c0-0.3-0.03-0.62-0.11-0.89c-0.35-1.21-1.29-2.13-2.69-2.13c-1.86,0-3.23,1.61-3.23,4.28
				c0,2.23,1.13,4.04,3.2,4.04c1.24,0,2.31-0.81,2.69-1.99c0.08-0.35,0.13-0.81,0.13-1.18V82.41z"/>
		</g>
		<g>
			<g>
				<path class="st2" d="M18.07,38.03h63.69c0,0-1.52-30.8-31.85-30.8C19.59,7.24,18.07,38.03,18.07,38.03z"/>
			</g>
			<g>
				<path class="st3" d="M45.4,11.23c-18.75,2.83-19.76,23.14-19.76,23.14h5.54C31.49,31.09,33.49,16.58,45.4,11.23z"/>
			</g>
			<g>
				<path class="st2" d="M49.92,14.47c-4.03,0-7.32-3.25-7.32-7.23C42.6,3.25,45.88,0,49.92,0s7.32,3.25,7.32,7.24
					C57.23,11.22,53.95,14.47,49.92,14.47z M49.92,3.65c-2.02,0-3.67,1.61-3.67,3.59s1.64,3.58,3.67,3.58
					c2.02,0,3.67-1.61,3.67-3.58S51.94,3.65,49.92,3.65z"/>
			</g>
			<g>
				<polygon class="st2" points="81.27,45.63 19.16,45.63 14.15,40.28 86.29,40.28 				"/>
			</g>
		</g>
	</g>
</g>
<g id="Layer_2">
</g>
<g id="Layer_3" class="st6">
</g>
</svg>
