<?xml version="1.0" encoding="utf-8"?>
<!-- Generator: Adobe Illustrator 23.0.0, SVG Export Plug-In . SVG Version: 6.00 Build 0)  -->
<svg version="1.1" xmlns="http://www.w3.org/2000/svg" xmlns:xlink="http://www.w3.org/1999/xlink" x="0px" y="0px"
	 viewBox="0 0 133.55 97.74" style="enable-background:new 0 0 133.55 97.74;" xml:space="preserve">
<style type="text/css">
	.st0{opacity:0.79;fill:#FBF6E6;}
	.st1{fill:#2C3333;}
	.st2{fill:#383838;}
	.st3{fill:#FFFFFF;}
	.st4{fill:none;stroke:#383838;stroke-width:3;stroke-miterlimit:10;}
	.st5{fill:none;stroke:#383838;stroke-width:3;stroke-linecap:round;stroke-miterlimit:10;}
	.st6{display:none;}
	.st7{display:inline;}
	.st8{fill:none;stroke:#FFFFFF;stroke-width:3;stroke-linecap:round;stroke-miterlimit:10;}
	.st9{fill:#231F20;}
	.st10{fill:#EA2227;}
	.st11{clip-path:url(#SVGID_2_);}
	.st12{clip-path:url(#SVGID_4_);}
	.st13{clip-path:url(#SVGID_4_);fill:#FFFFFF;}
	.st14{fill:#7A7A7A;}
	.st15{opacity:0.89;clip-path:url(#SVGID_6_);}
	.st16{clip-path:url(#SVGID_6_);}
	.st17{clip-path:url(#SVGID_10_);}
	.st18{fill:url(#SVGID_11_);}
	.st19{clip-path:url(#SVGID_6_);fill:#C32127;stroke:#C32127;stroke-width:9;stroke-linecap:round;stroke-miterlimit:10;}
	.st20{clip-path:url(#SVGID_15_);}
	.st21{filter:url(#Adobe_OpacityMaskFilter);}
	.st22{opacity:0.78;mask:url(#SVGID_18_);}
	.st23{clip-path:url(#SVGID_20_);fill:#200C0D;}
	.st24{clip-path:url(#SVGID_28_);}
	.st25{clip-path:url(#SVGID_36_);}
</style>
<g id="Layer_1">
	<g>
		<g>
			<path class="st1" d="M11.62,91.02l-1.96-3.6c-0.78-1.4-1.29-2.37-1.8-3.42H7.77c-0.43,1.05-0.92,2.02-1.64,3.42l-1.8,3.6H0.54
				l5.38-9.17l-5.17-8.96h3.79l1.96,3.74c0.59,1.13,1.02,2.02,1.51,3.04h0.05c0.48-1.13,0.86-1.94,1.43-3.04l1.94-3.74h3.79
				l-5.3,8.85l5.51,9.28H11.62z"/>
			<path class="st1" d="M18.7,85.4c0.08,2.37,1.94,3.39,4.04,3.39c1.53,0,2.64-0.22,3.63-0.59l0.48,2.29
				c-1.13,0.46-2.69,0.81-4.57,0.81c-4.25,0-6.75-2.61-6.75-6.62c0-3.63,2.21-7.05,6.4-7.05c4.25,0,5.65,3.5,5.65,6.38
				c0,0.62-0.05,1.1-0.11,1.4H18.7z M24.45,83.08c0.03-1.21-0.51-3.2-2.72-3.2c-2.04,0-2.91,1.86-3.04,3.2H24.45z"/>
			<path class="st1" d="M29.27,81.82c0-1.51-0.03-2.77-0.11-3.9h2.85l0.13,1.94h0.08c0.65-1.02,1.83-2.23,4.04-2.23
				c1.72,0,3.07,0.97,3.63,2.42h0.05c0.46-0.73,1-1.26,1.61-1.64c0.73-0.51,1.56-0.78,2.64-0.78c2.18,0,4.38,1.48,4.38,5.68v7.72
				h-3.23v-7.24c0-2.18-0.75-3.47-2.34-3.47c-1.13,0-1.96,0.81-2.31,1.75c-0.08,0.32-0.16,0.73-0.16,1.1v7.86h-3.23v-7.59
				c0-1.83-0.73-3.12-2.26-3.12c-1.24,0-2.07,0.97-2.37,1.88c-0.13,0.32-0.19,0.7-0.19,1.08v7.75h-3.23V81.82z"/>
			<path class="st1" d="M55.71,71.92h3.34v19.1h-3.34V71.92z"/>
			<path class="st1" d="M69.02,91.02l-0.21-1.45h-0.08c-0.81,1.02-2.18,1.75-3.87,1.75c-2.64,0-4.12-1.91-4.12-3.9
				c0-3.31,2.93-4.98,7.77-4.95v-0.21c0-0.86-0.35-2.29-2.66-2.29c-1.29,0-2.64,0.4-3.52,0.97l-0.65-2.15
				c0.97-0.59,2.66-1.16,4.73-1.16c4.2,0,5.41,2.66,5.41,5.51v4.73c0,1.18,0.05,2.34,0.19,3.15H69.02z M68.59,84.62
				c-2.34-0.05-4.57,0.46-4.57,2.45c0,1.29,0.83,1.88,1.88,1.88c1.32,0,2.29-0.86,2.58-1.8c0.08-0.24,0.11-0.51,0.11-0.73V84.62z
				 M68.32,94.84c0,0.91-0.67,1.67-1.61,1.67s-1.64-0.75-1.64-1.67c0-0.94,0.73-1.67,1.67-1.67C67.65,93.17,68.32,93.9,68.32,94.84z
				"/>
			<path class="st1" d="M77.87,74.26c0,1-0.73,1.78-1.88,1.78c-1.1,0-1.83-0.78-1.83-1.78c0-1.02,0.75-1.8,1.86-1.8
				C77.15,72.46,77.85,73.24,77.87,74.26z M74.35,91.02v-13.1h3.34v13.1H74.35z"/>
			<path class="st1" d="M84.87,81.82c0-1.51-0.03-2.77-0.11-3.9h2.85l0.13,1.94h0.08c0.65-1.02,1.83-2.23,4.04-2.23
				c1.72,0,3.07,0.97,3.63,2.42h0.05c0.46-0.73,1-1.26,1.61-1.64c0.73-0.51,1.56-0.78,2.64-0.78c2.18,0,4.38,1.48,4.38,5.68v7.72
				h-3.23v-7.24c0-2.18-0.75-3.47-2.34-3.47c-1.13,0-1.96,0.81-2.31,1.75c-0.08,0.32-0.16,0.73-0.16,1.1v7.86h-3.23v-7.59
				c0-1.83-0.73-3.12-2.26-3.12c-1.24,0-2.07,0.97-2.37,1.88c-0.13,0.32-0.19,0.7-0.19,1.08v7.75h-3.23V81.82z"/>
			<path class="st1" d="M119.16,84.35c0,4.82-3.39,6.97-6.72,6.97c-3.71,0-6.56-2.56-6.56-6.75c0-4.3,2.83-6.94,6.78-6.94
				C116.55,77.62,119.16,80.37,119.16,84.35z M109.29,84.48c0,2.53,1.24,4.44,3.25,4.44c1.88,0,3.2-1.86,3.2-4.49
				c0-2.04-0.92-4.38-3.17-4.38C110.23,80.04,109.29,82.3,109.29,84.48z M116.47,72.24l-3.31,3.98h-2.29l2.34-3.98H116.47z"/>
			<path class="st1" d="M120.91,81.82c0-1.51-0.03-2.77-0.11-3.9h2.91l0.16,1.96h0.08c0.56-1.02,1.99-2.26,4.17-2.26
				c2.29,0,4.65,1.48,4.65,5.62v7.77h-3.31v-7.4c0-1.88-0.7-3.31-2.5-3.31c-1.32,0-2.23,0.94-2.58,1.94
				c-0.11,0.3-0.13,0.7-0.13,1.08v7.69h-3.34V81.82z"/>
		</g>
		<g>
			<circle class="st4" cx="67.26" cy="23.38" r="21.88"/>
			<g>
				<line class="st5" x1="58.56" y1="16.71" x2="75.96" y2="16.71"/>
				<line class="st5" x1="58.56" y1="23.54" x2="68.22" y2="23.54"/>
				<line class="st5" x1="58.56" y1="30.46" x2="72.19" y2="30.46"/>
			</g>
		</g>
	</g>
</g>
<g id="Layer_2">
</g>
<g id="Layer_3" class="st6">
</g>
</svg>
