<?xml version="1.0" encoding="utf-8"?>
<!-- Generator: Adobe Illustrator 23.0.0, SVG Export Plug-In . SVG Version: 6.00 Build 0)  -->
<svg version="1.1" xmlns="http://www.w3.org/2000/svg" xmlns:xlink="http://www.w3.org/1999/xlink" x="0px" y="0px"
	 viewBox="0 0 100.87 95.83" style="enable-background:new 0 0 100.87 95.83;" xml:space="preserve">
<style type="text/css">
	.st0{opacity:0.79;fill:#FBF6E6;}
	.st1{fill:#2C3333;}
	.st2{fill:#383838;}
	.st3{fill:#FFFFFF;}
	.st4{fill:none;stroke:#383838;stroke-width:3;stroke-miterlimit:10;}
	.st5{fill:none;stroke:#383838;stroke-width:3;stroke-linecap:round;stroke-miterlimit:10;}
	.st6{display:none;}
	.st7{display:inline;}
	.st8{fill:none;stroke:#FFFFFF;stroke-width:3;stroke-linecap:round;stroke-miterlimit:10;}
	.st9{fill:#231F20;}
	.st10{fill:#EA2227;}
	.st11{clip-path:url(#SVGID_2_);}
	.st12{clip-path:url(#SVGID_4_);}
	.st13{clip-path:url(#SVGID_4_);fill:#FFFFFF;}
	.st14{fill:#7A7A7A;}
	.st15{opacity:0.89;clip-path:url(#SVGID_6_);}
	.st16{clip-path:url(#SVGID_6_);}
	.st17{clip-path:url(#SVGID_10_);}
	.st18{fill:url(#SVGID_11_);}
	.st19{clip-path:url(#SVGID_6_);fill:#C32127;stroke:#C32127;stroke-width:9;stroke-linecap:round;stroke-miterlimit:10;}
	.st20{clip-path:url(#SVGID_15_);}
	.st21{filter:url(#Adobe_OpacityMaskFilter);}
	.st22{opacity:0.78;mask:url(#SVGID_18_);}
	.st23{clip-path:url(#SVGID_20_);fill:#200C0D;}
	.st24{clip-path:url(#SVGID_28_);}
	.st25{clip-path:url(#SVGID_36_);}
</style>
<g id="Layer_1">
	<g>
		<g>
			<path class="st1" d="M5.38,73.75H0.22v-2.77h13.69v2.77H8.69v15.36H5.38V73.75z"/>
			<path class="st1" d="M14.66,70.01H18v7.8h0.05c0.4-0.62,0.94-1.13,1.64-1.51c0.65-0.38,1.43-0.59,2.26-0.59
				c2.23,0,4.57,1.48,4.57,5.68v7.72h-3.31v-7.34c0-1.91-0.7-3.34-2.53-3.34c-1.29,0-2.21,0.86-2.56,1.86
				c-0.11,0.27-0.13,0.62-0.13,1v7.83h-3.34V70.01z"/>
			<path class="st1" d="M42.91,72.86c0.32,0.62,0.54,1.4,0.54,2.21c0,1.51-1.02,2.42-2.39,2.53l-0.24,0.03v7.56
				c0,1.56,0.05,2.85,0.11,3.93h-2.91l-0.16-1.99h-0.05c-0.56,0.94-1.86,2.29-4.2,2.29c-2.39,0-4.57-1.43-4.57-5.7v-7.69h3.31v7.13
				c0,2.18,0.7,3.58,2.45,3.58c1.32,0,2.18-0.94,2.53-1.78c0.11-0.3,0.19-0.65,0.19-1.02v-7.91h2.21c1.02,0,1.35-0.43,1.35-1.08
				c0-0.54-0.22-1.13-0.54-1.67L42.91,72.86z M36.53,92.93c0,0.91-0.67,1.67-1.64,1.67c-0.94,0-1.64-0.75-1.64-1.67
				c0-0.94,0.73-1.67,1.69-1.67C35.83,91.26,36.53,91.99,36.53,92.93z"/>
			<path class="st1" d="M53.05,88.7c-0.7,0.32-2.07,0.67-3.71,0.67c-4.09,0-6.75-2.61-6.75-6.67c0-3.93,2.69-6.99,7.29-6.99
				c1.21,0,2.45,0.27,3.2,0.62l-0.59,2.48c-0.54-0.24-1.32-0.51-2.5-0.51c-2.53,0-4.04,1.86-4.01,4.25c0,2.69,1.75,4.22,4.01,4.22
				c1.16,0,1.96-0.24,2.61-0.51L53.05,88.7z"/>
			<path class="st1" d="M71.2,74.45v10.98c0,1.34,0.05,2.8,0.11,3.69h-2.96l-0.13-2.07h-0.05c-0.78,1.45-2.37,2.37-4.28,2.37
				c-3.12,0-5.6-2.66-5.6-6.7c-0.03-4.38,2.72-6.99,5.86-6.99c1.8,0,3.09,0.75,3.69,1.72h0.05v-2.99h-5.08v-1.91h5.08v-2.53h3.31
				v2.53h2.13v1.91H71.2z M67.89,81.47c0-0.27-0.03-0.59-0.08-0.86c-0.3-1.29-1.34-2.34-2.85-2.34c-2.13,0-3.31,1.88-3.31,4.33
				c0,2.39,1.18,4.14,3.28,4.14c1.35,0,2.53-0.92,2.85-2.34c0.08-0.3,0.11-0.62,0.11-0.97V81.47z"/>
			<path class="st1" d="M87.15,73.61c0.32,0.62,0.54,1.43,0.54,2.29c0,1.56-0.92,2.56-2.56,2.61c0.7,1.02,1.1,2.34,1.1,3.93
				c0,4.82-3.39,6.97-6.73,6.97c-3.71,0-6.56-2.56-6.56-6.75c0-4.3,2.82-6.94,6.78-6.94c0.86,0,1.61,0.13,2.31,0.35
				c0.67,0.21,1.51,0.73,2.23,0.73c0.65,0,1-0.32,1-1.02c0-0.62-0.22-1.21-0.51-1.75L87.15,73.61z M76.37,82.57
				c0,2.53,1.24,4.44,3.26,4.44c1.88,0,3.2-1.86,3.2-4.49c0-2.04-0.92-4.38-3.17-4.38C77.31,78.13,76.37,80.39,76.37,82.57z"/>
			<path class="st1" d="M88.23,79.91c0-1.51-0.03-2.77-0.11-3.9h2.91l0.16,1.96h0.08c0.56-1.02,1.99-2.26,4.17-2.26
				c2.29,0,4.65,1.48,4.65,5.62v7.77h-3.31v-7.4c0-1.88-0.7-3.31-2.5-3.31c-1.32,0-2.23,0.94-2.58,1.94
				c-0.11,0.3-0.13,0.7-0.13,1.08v7.69h-3.34V79.91z"/>
		</g>
		<path class="st2" d="M50.92,0C37.39,0,26.43,10.97,26.43,24.49c0,13.53,10.97,24.49,24.49,24.49c13.53,0,24.49-10.97,24.49-24.49
			C75.41,10.97,64.45,0,50.92,0z M50.92,38.4c-7.68,0-13.9-6.22-13.9-13.9c0-7.68,6.22-13.9,13.9-13.9c7.68,0,13.9,6.22,13.9,13.9
			C64.82,32.17,58.6,38.4,50.92,38.4z"/>
	</g>
</g>
<g id="Layer_2">
</g>
<g id="Layer_3" class="st6">
</g>
</svg>
