<svg xmlns="http://www.w3.org/2000/svg" viewBox="0 0 171.93 90.95"><defs><style>.cls-1{fill:#cd362c;}.cls-2{fill:#fff;}</style></defs><g id="Layer_2" data-name="Layer 2"><g id="Layer_1-2" data-name="Layer 1"><rect class="cls-1" width="171.93" height="90.95"/><path class="cls-2" d="M34.11,53.29h4.23l1.26,8.52c.24,1.92.5,3.85.74,5.77h.11c.36-1.92.72-3.87,1.09-5.77l2-8.52H47l2,8.52c.37,1.85.73,3.82,1.1,5.77h.11c.24-2,.49-3.89.73-5.77l1.26-8.52H56.1L52.86,71.54H47.67l-1.79-8.29c-.29-1.41-.53-2.87-.73-4.24H45c-.22,1.36-.45,2.83-.74,4.24l-1.73,8.29H37.48Z"/><path class="cls-2" d="M61.21,53.29h4.94l5.73,18.25H67.51L65.12,62.3c-.51-1.82-1-4-1.48-5.89h-.11c-.44,1.93-.93,4.06-1.44,5.89l-2.4,9.24H55.47Zm-2,10.7H68V67.2H59.26Z"/><path class="cls-2" d="M71.87,62.52c0-6.05,4-9.57,8.89-9.57a7.91,7.91,0,0,1,5.76,2.37L84.35,58a4.75,4.75,0,0,0-3.45-1.45c-2.81,0-4.8,2.21-4.8,5.87s1.7,5.93,5.13,5.93a3.29,3.29,0,0,0,1.93-.54V64.63h-3V61.26h6.69v8.41a8.82,8.82,0,0,1-6,2.21C75.78,71.88,71.87,68.67,71.87,62.52Z"/><path class="cls-2" d="M92.89,65l-5.5-11.74H91.8l1.63,4.19c.49,1.37,1,2.63,1.49,4H95c.52-1.41,1-2.68,1.54-4l1.63-4.19h4.31L97,65v6.51H92.88V65Z"/><path class="cls-2" d="M103.24,63.08V53.29h4.13V63.5c0,3.57,1.13,4.81,3.17,4.81s3.23-1.24,3.23-4.81V53.29h4v9.79c0,6.13-2.49,8.79-7.21,8.79S103.24,69.21,103.24,63.08Z"/><path class="cls-2" d="M129.61,63.75h-4.93V60.84h4.93V55.68h3v5.16h4.93v2.91h-4.93v5.16h-3Z"/><path class="cls-2" d="M61.47,27a1.63,1.63,0,0,1,.21.62,1.2,1.2,0,0,1-.22.61,16.38,16.38,0,0,1-3.05,3.88,9.09,9.09,0,0,1-2.33,1.63,2.1,2.1,0,0,1-.94.31C55,34,55,34,55,33.89A16.41,16.41,0,0,0,58.12,31a16.67,16.67,0,0,0,2.75-4.31c.08-.15.15-.23.21-.23S61.33,26.63,61.47,27ZM64,25.78a2.21,2.21,0,0,1,.88.23c.25.17.38.34.38.53s-.16.17-.48.19a49.62,49.62,0,0,0-6.91,1.12,6.52,6.52,0,0,1-1.1.23,3.18,3.18,0,0,1-1.1-.33c-.37-.22-.55-.41-.55-.58s.14-.14.42-.16q2.17-.23,7.07-1C63.43,25.85,63.89,25.78,64,25.78Zm.18-5.09c.42.28.63.5.63.67s-.2.37-.6.49A26.15,26.15,0,0,0,60.47,23a8.62,8.62,0,0,1-2.39.55c-.36,0-.54-.06-.54-.17s.15-.14.44-.24a18.13,18.13,0,0,0,2.65-1.31,11,11,0,0,0,2.11-1.58,1,1,0,0,1,.34-.13A2,2,0,0,1,64.2,20.69ZM61,22.43l.87.5c.44.27.66.55.66.82a.87.87,0,0,1-.09.29,8.54,8.54,0,0,0-.28,1.73c-.19,2-.28,3.55-.28,4.51l0,5.78a2.69,2.69,0,0,1-.33,1.21c-.16.36-.33.54-.52.54s-.24-.19-.45-.58a4,4,0,0,1-.42-1.42,3.29,3.29,0,0,1,.14-.79,12.45,12.45,0,0,0,.38-2.36A46.84,46.84,0,0,0,61,26.77a14.1,14.1,0,0,0-.17-2.7,2.38,2.38,0,0,0-.28-.9c-.06-.12-.12-.24-.16-.34a.35.35,0,0,1,.4-.4Zm1.21,6.33a13.39,13.39,0,0,1,1.31.43,3.53,3.53,0,0,1,1.11.67,1,1,0,0,1,.2.59,1.5,1.5,0,0,1-.13.58.45.45,0,0,1-.39.24.69.69,0,0,1-.33-.15,3.85,3.85,0,0,1-.93-.87A11.55,11.55,0,0,0,62,29.13c-.2-.14-.3-.24-.3-.31s0-.13.1-.13Zm4.32-2.55.34.13c.5.17.74.38.74.62A8,8,0,0,0,67.7,28a45.11,45.11,0,0,1,.43,4.76,1.28,1.28,0,0,1-.11.57c-.07.15-.16.23-.26.23s-.23-.09-.34-.28a1.42,1.42,0,0,1-.28-.77l-.26-2.16A18.12,18.12,0,0,0,66.56,28,2.77,2.77,0,0,0,66,26.75c-.11-.1-.17-.18-.17-.22,0-.22.09-.33.28-.33Zm5.8-.85.66.42c.55.38.82.66.82.85a.83.83,0,0,1-.22.44,2.82,2.82,0,0,0-.5,1.1,32.65,32.65,0,0,0-.81,3.39,1,1,0,0,1-.59.48,2.92,2.92,0,0,1-.61.1.52.52,0,0,1-.24-.1,1.78,1.78,0,0,1-.09-.21,1.91,1.91,0,0,1,.09-.37,23.81,23.81,0,0,0,.49-2.55,14.06,14.06,0,0,0,.22-2c0-.26-.25-.38-.75-.38a10.71,10.71,0,0,0-1.68.35c-1.25.32-1.89.47-2,.47a.88.88,0,0,1-.61-.22c-.17-.13-.26-.25-.26-.34s.1-.19.29-.2h.29a19.35,19.35,0,0,0,2.33-.37,23,23,0,0,0,2.21-.65,2,2,0,0,1,.59-.17Zm-.81,6.1.59.29c.31.21.46.38.46.52s-.06.15-.18.15a7.86,7.86,0,0,0-1.34.1l-1.89.22a5.87,5.87,0,0,1-.79.07,1.06,1.06,0,0,1-.74-.2.57.57,0,0,1-.2-.37c0-.17.1-.25.31-.25a16.58,16.58,0,0,0,2.59-.39,5.37,5.37,0,0,1,.89-.13Z"/><path class="cls-2" d="M94.78,28.74c.58.32.87.61.87.86s-.4.34-1.2.34c-1.09,0-2.27,0-3.53,0s-3,.08-5.17.24a30.22,30.22,0,0,0-4.89.69A5.84,5.84,0,0,1,80,31a3.24,3.24,0,0,1-1.17-.34c-.55-.24-.83-.44-.83-.59s.18-.29.54-.32a26.82,26.82,0,0,0,4.24-.28q2.55-.3,5.61-.47a42.89,42.89,0,0,0,4.44-.56,7.71,7.71,0,0,1,.81-.11C93.69,28.36,94.09,28.48,94.78,28.74ZM83.39,21.8c.57.37.86.7.86,1q0,.12-.18.27a5.7,5.7,0,0,0-.33.58,17,17,0,0,1-1.61,2.64,7.64,7.64,0,0,1-1.47,1.48,1.78,1.78,0,0,1-.74.43c-.1,0-.15,0-.15-.07s0-.11.12-.19a15.18,15.18,0,0,0,1.25-2,17.09,17.09,0,0,0,1-2.41A4.53,4.53,0,0,0,82.47,22c0-.27.09-.4.27-.4A2,2,0,0,1,83.39,21.8Zm8.22,2c.28.12.43.28.43.46s-.19.24-.57.32a24.45,24.45,0,0,1-2.94.53c-2.3.29-3.8.44-4.5.44a2.9,2.9,0,0,1-1.32-.21c-.25-.17-.37-.32-.37-.45s.28-.18.83-.2c1.3-.11,2.74-.3,4.3-.56a23,23,0,0,0,2.64-.54,1.83,1.83,0,0,1,.47-.11A2.23,2.23,0,0,1,91.61,23.78Zm-5.12-4.71.75.28c.47.22.71.46.71.72,0,0,0,.24-.14.6a12.9,12.9,0,0,0-.21,2.23l-.09,9.67a36.94,36.94,0,0,1-.33,4.84c-.19.78-.35,1.18-.49,1.18s-.31-.28-.4-.84c0-1.1-.05-2.56-.05-4.37v-12a5.62,5.62,0,0,0-.19-1.62A1.94,1.94,0,0,1,86,19.4a.31.31,0,0,1,.31-.33Z"/><path class="cls-2" d="M113.06,21.31v6.81h4V29h-4v6.7h-.86V29h-4v-.84h4V21.31Z"/></g></g></svg>