<svg xmlns="http://www.w3.org/2000/svg" viewBox="0 0 158.36 59.76"><defs><style>.cls-1{fill:#679a40;}.cls-2{fill:#fffffa;}</style></defs><g id="Layer_2" data-name="Layer 2"><g id="Layer_1-2" data-name="Layer 1"><path class="cls-1" d="M147.61,59.76H10.75A10.75,10.75,0,0,1,0,49V10.75A10.75,10.75,0,0,1,10.75,0H147.61a10.75,10.75,0,0,1,10.75,10.75V49A10.76,10.76,0,0,1,147.61,59.76Z"/><path class="cls-2" d="M20.84,25.42v8.63c2.06,3.14,5.83,3.14,10.58,3.14,2.85,0,6.2-.08,8.26-.21a6.48,6.48,0,0,0-.58,1.79c-1.82.08-4.72.13-7.33.13-5.44,0-9,0-11.71-3.27-1.29,1.16-2.69,2.35-3.83,3.25a.34.34,0,0,1-.24.42l-1-1.95a45.25,45.25,0,0,0,4.17-3.22v-7H15.25V25.42Zm-3.94-9.9a19.42,19.42,0,0,1,4.72,4.17l-1.4,1.19a19.1,19.1,0,0,0-4.64-4.3ZM26.16,34.6v1.16H24.42v-18h4.35a21.76,21.76,0,0,0,1-3l2.37.47c-.08.18-.24.26-.55.29-.26.61-.61,1.42-1,2.19h6.15v6.94H26.16v2.56H37.82v8.52H36.08V34.6ZM35,19.24H26.16v3.88H35Zm1.08,9.5H26.16v4.33h9.92Z"/><path class="cls-2" d="M51.81,20.06l.42,0,.92,0c0,.16,0,.42,0,.63-.21,12.16-.42,16-1.19,17.15-.58.82-1.11,1-3,1-.53,0-1.11,0-1.69,0a4.76,4.76,0,0,0-.5-1.77c1.21.11,2.32.11,2.77.11a.93.93,0,0,0,.9-.42c.55-.76.82-4.41,1-14.93H47.05c-.24,7-1.08,13.56-4.41,17.57a5.15,5.15,0,0,0-1.37-1.16c3.06-3.59,3.83-9.66,4-16.41H41.7V20.06h3.67c0-1.69,0-3.43,0-5.17l2.43.13c0,.24-.24.4-.66.45,0,1.53,0,3.06-.05,4.59Zm3.82-2h9V38.56H62.83V36.79H57.34v2H55.63V18Zm1.72,17h5.49V19.74H57.35Z"/><path class="cls-2" d="M75.49,14.76h1.77V44.57H75.49Z"/><path class="cls-2" d="M99.39,36.6a12,12,0,0,1-4.64.79c-4.62,0-7.57-2.85-7.57-7.47A10.49,10.49,0,0,1,98,19.05a7.77,7.77,0,0,1,3.88.82l-.9,2.48a7.61,7.61,0,0,0-3.35-.63,6.93,6.93,0,0,0-4.54,1.64,8.19,8.19,0,0,0-2.56,6.2c0,3,1.53,5.22,5,5.22a8.73,8.73,0,0,0,3.56-.69Z"/><path class="cls-2" d="M101.48,37.13,105,18.4h3.09l-1.5,7.81h0A5.4,5.4,0,0,1,111,24a3.1,3.1,0,0,1,3.22,3.46,13.89,13.89,0,0,1-.21,2.27l-1.42,7.41h-3.06l1.37-7.2a10.44,10.44,0,0,0,.16-1.69c0-1-.45-1.74-1.61-1.74-1.5,0-3.19,1.79-3.69,4.51l-1.16,6.12Z"/><path class="cls-2" d="M129,29.32c0,4.35-3.06,8.1-7.44,8.1a5,5,0,0,1-5.25-5.3c0-4.35,3-8.13,7.41-8.13A5,5,0,0,1,129,29.32Zm-9.55,11.56a1.61,1.61,0,0,1,1.64-1.63,1.64,1.64,0,0,1,0,3.27A1.63,1.63,0,0,1,119.44,40.88Zm0-8.84c0,1.77,1,3,2.51,3,2.29,0,3.83-3.17,3.83-5.72,0-1.32-.58-3-2.45-3C120.89,26.37,119.47,29.64,119.47,32Z"/><path class="cls-2" d="M130.31,37.13,132,28.27c.32-1.53.5-2.88.66-4h2.72l-.26,2.32h0A5.5,5.5,0,0,1,139.76,24c1.82,0,3.27,1.11,3.27,3.54a12.86,12.86,0,0,1-.24,2.14l-1.42,7.47h-3.06l1.37-7.25a9.55,9.55,0,0,0,.16-1.53c0-1.06-.4-1.85-1.61-1.85-1.4,0-3.19,1.69-3.75,4.7l-1.11,5.94h-3.06Z"/></g></g></svg>