<svg xmlns="http://www.w3.org/2000/svg" viewBox="0 0 67.83 50.66"><defs><style>.cls-1{fill:#679a40;}.cls-2{fill:#fffffa;}</style></defs><g id="Layer_2" data-name="Layer 2"><g id="Layer_1-2" data-name="Layer 1"><path class="cls-1" d="M57.08,50.66H10.75A10.75,10.75,0,0,1,0,39.91V10.75A10.75,10.75,0,0,1,10.75,0H57.08A10.75,10.75,0,0,1,67.83,10.75V39.91A10.76,10.76,0,0,1,57.08,50.66Z"/><path class="cls-2" d="M51.33,23.38,36.05,35.11a3.65,3.65,0,0,1-4.27,0L16.5,23.38c-2-1.54-.64-4.25,2.14-4.25H49.2C52,19.13,53.34,21.84,51.33,23.38Z"/></g></g></svg>