<svg xmlns="http://www.w3.org/2000/svg" viewBox="0 0 172.93 91.95"><defs><style>.cls-1{fill:#231f20;stroke:#7a7d80;stroke-miterlimit:10;}.cls-2{fill:#fff;}</style></defs><g id="Layer_2" data-name="Layer 2"><g id="Layer_1-2" data-name="Layer 1"><rect class="cls-1" x="0.5" y="0.5" width="171.93" height="90.95"/><path class="cls-2" d="M35.21,53.79h5.16c5.57,0,9.16,2.77,9.16,9.05S45.94,72,40.6,72H35.21Zm4.91,14.93c3.1,0,5.19-1.52,5.19-5.88s-2.09-5.72-5.19-5.72h-.78V68.73h.78Z"/><path class="cls-2" d="M52.15,53.79H63.58v3.46H56.27v3.67h6.22v3.46H56.27v4.2h7.59V72H52.15Z"/><path class="cls-2" d="M65.48,69.74l2.37-2.83a7.27,7.27,0,0,0,4.48,1.91c1.72,0,2.56-.68,2.56-1.76s-1-1.52-2.63-2.17l-2.37-1a5.32,5.32,0,0,1-3.68-5c0-3,2.7-5.44,6.5-5.44a8.45,8.45,0,0,1,5.87,2.39l-2.08,2.6A6,6,0,0,0,72.71,57c-1.42,0-2.33.59-2.33,1.64s1.19,1.53,2.79,2.16l2.33.94c2.23.9,3.62,2.38,3.62,5,0,3-2.53,5.66-6.88,5.66A10.1,10.1,0,0,1,65.48,69.74Z"/><path class="cls-2" d="M79.7,69.74l2.37-2.83a7.27,7.27,0,0,0,4.48,1.91c1.72,0,2.56-.68,2.56-1.76s-1-1.52-2.63-2.17l-2.37-1a5.32,5.32,0,0,1-3.68-5c0-3,2.7-5.44,6.5-5.44a8.45,8.45,0,0,1,5.87,2.39l-2.08,2.6A6,6,0,0,0,86.93,57c-1.42,0-2.33.59-2.33,1.64s1.19,1.53,2.79,2.16l2.33.94c2.23.9,3.62,2.38,3.62,5,0,3-2.53,5.66-6.88,5.66A10.1,10.1,0,0,1,79.7,69.74Z"/><path class="cls-2" d="M95.61,53.79H107v3.46H99.73v3.67H106v3.46H99.73v4.2h7.59V72H95.61V53.79Z"/><path class="cls-2" d="M110.11,53.79h6.57c3.87,0,7,1.34,7,5.68s-3.17,6-7,6h-2.45V72H110.1V53.79Zm6.24,8.41c2.17,0,3.34-.93,3.34-2.72s-1.17-2.41-3.34-2.41h-2.11V62.2Zm-.42,2.19,2.85-2.64L124.6,72H120Z"/><path class="cls-2" d="M129.5,57.25h-5V53.79h14.17v3.46h-5V72H129.5V57.25Z"/><path class="cls-2" d="M59.05,27.81c-.9,0-2.19.09-3.87.26a.5.5,0,0,0,.24.19.73.73,0,0,1,.41.6,17.06,17.06,0,0,0-.75,1.83A15.28,15.28,0,0,1,54,33.59a8.5,8.5,0,0,1-1.74,2.3,7.43,7.43,0,0,1-3,1.65,8.6,8.6,0,0,0,2.54-2.69,16.39,16.39,0,0,0,1.44-3.42,14.24,14.24,0,0,0,.64-3.05.34.34,0,0,1,0-.15,29.64,29.64,0,0,0-3.46.6,23.92,23.92,0,0,1-2.49.54,2.18,2.18,0,0,1-1.48-.58,1.11,1.11,0,0,1-.58-.88c0-.27.09-.41.26-.41a12.43,12.43,0,0,1,1.8.19l6.19-.9c3.57-.54,5.55-.82,6-.82a3.22,3.22,0,0,1,1.72.45,1.78,1.78,0,0,1,.67.79c0,.42-.24.63-.62.64a8.07,8.07,0,0,0-1.14-.06H59.05Zm-2.43-6.19c1,0,1.5.19,1.59.58a.83.83,0,0,1-.26.47A2.5,2.5,0,0,1,56.9,23c-.42.07-1.39.31-2.92.71a13.46,13.46,0,0,1-2.66.54,2.33,2.33,0,0,1-1.16-.52c-.32-.16-.47-.29-.47-.41S49.78,23,50,23a21.59,21.59,0,0,0,3.85-.73A18.38,18.38,0,0,1,56.62,21.62Zm3-.26a6.08,6.08,0,0,1,2.21.49,1.3,1.3,0,0,1,.64,1c0,.34-.19.54-.62.58a1.42,1.42,0,0,1-.62-.32A9.75,9.75,0,0,1,59.63,21.36Zm2-1.8A6.77,6.77,0,0,1,63.9,20a1.34,1.34,0,0,1,.64,1c0,.34-.21.54-.6.58a1.32,1.32,0,0,1-.67-.3A11,11,0,0,1,61.67,19.56Z"/><path class="cls-2" d="M77.66,21.53a3.85,3.85,0,0,1,1.46.43c.42.26.62.52.62.77,0,.07-.09.21-.19.41a6.28,6.28,0,0,0-.17,2v.45c0,.21,0,.37,0,.47l1.1-.26a11.48,11.48,0,0,1,2.19-.32,2.91,2.91,0,0,1,1.22.45c.44.3.67.57.67.82s-.84.37-2.38.45l-2.88.11a19,19,0,0,1-1.42,6.12,7.29,7.29,0,0,1-4.25,4.36,11,11,0,0,0,2.75-3.87,19,19,0,0,0,1.35-6.45,44,44,0,0,0-4.62.9c.06.63.12,1.56.19,2.79a2,2,0,0,1-.26,1.1.5.5,0,0,1-.39.21c-.26,0-.53-.24-.82-.71a1.94,1.94,0,0,1-.32-1,.87.87,0,0,1,.13-.41,3.06,3.06,0,0,0,.13-1.12c0-.11,0-.29,0-.54l-.26.11a11.24,11.24,0,0,1-2.3.54A2.51,2.51,0,0,1,67.92,29c-.44-.26-.67-.51-.67-.75s.18-.28.54-.28a21.8,21.8,0,0,0,3.89-.43,9.36,9.36,0,0,0-.58-3.16,2.1,2.1,0,0,1-.3-.6c0-.2.11-.3.34-.3a2.89,2.89,0,0,1,1.12.3c.46.29.71.57.75.86a.61.61,0,0,0-.24.56c0,.37.06,1.05.17,2v.06l.58-.11c1.59-.29,3-.57,4.23-.86.07-1,.1-1.86.09-2.45a3.18,3.18,0,0,0-.41-1.42,2,2,0,0,1-.26-.56C77.19,21.67,77.34,21.53,77.66,21.53Zm3.22-.08a6.08,6.08,0,0,1,2.21.49,1.3,1.3,0,0,1,.64,1c0,.34-.19.54-.62.58a1.42,1.42,0,0,1-.62-.32A10.56,10.56,0,0,1,80.88,21.45Zm2-1.89a5.9,5.9,0,0,1,2.21.52,1.41,1.41,0,0,1,.67,1c0,.34-.21.54-.6.58a1.3,1.3,0,0,1-.67-.32A11.89,11.89,0,0,1,82.92,19.56Z"/><path class="cls-2" d="M106.13,29.18c0,.6-.29.9-.86.9a13.12,13.12,0,0,1-1.76-.15c-.57-.07-1.15-.15-1.72-.24a27.27,27.27,0,0,0-3.2-.24c-2.19,0-3.77,0-4.73.06a9.24,9.24,0,0,0-2.3.3,5,5,0,0,1-1.48.26,3.16,3.16,0,0,1-1.53-.49c-.62-.37-.92-.76-.92-1.16,0-.19.14-.28.43-.28a3.77,3.77,0,0,1,1,.19,6.63,6.63,0,0,0,1.74.15q2.09,0,6.25-.17t6.27-.17C105.21,28.15,106.13,28.49,106.13,29.18Z"/><path class="cls-2" d="M115.83,21a2.7,2.7,0,0,1,1.4.54,1.56,1.56,0,0,1,.82,1,.64.64,0,0,1-.19.43,3.28,3.28,0,0,0-.26,1.7v1.83a11.23,11.23,0,0,1,4.55,1.78c.86.66,1.3,1.26,1.33,1.8s-.21.69-.69.69-1.33-.59-2.62-1.78a10.62,10.62,0,0,0-2.58-1.89v5.63a8.71,8.71,0,0,0,.11,1.8,7.91,7.91,0,0,1,.09,1.18,3.73,3.73,0,0,1-.37,1.35c-.19.34-.37.54-.54.58-.33-.07-.61-.43-.84-1.07a4.09,4.09,0,0,1-.28-1.4,7.59,7.59,0,0,1,.17-1.33c.11-.66.18-1.11.19-1.35.13-1.79.19-3,.19-3.67,0-1.55-.06-3.28-.19-5.2a3.7,3.7,0,0,0-.34-1.4,2.79,2.79,0,0,1-.28-.86A.29.29,0,0,1,115.83,21Z"/></g></g></svg>