<svg xmlns="http://www.w3.org/2000/svg" viewBox="0 0 173.25 92.11"><defs><style>.cls-1{fill:#231f20;stroke:#7a7d80;stroke-miterlimit:10;}.cls-2{fill:#fff;}</style></defs><g id="Layer_2" data-name="Layer 2"><g id="Layer_1-2" data-name="Layer 1"><rect class="cls-1" x="0.5" y="0.5" width="172.25" height="91.11"/><path class="cls-2" d="M48,58.24h5.16c5.57,0,9.16,2.77,9.16,9.05s-3.59,9.2-8.93,9.2H48Zm4.91,14.93c3.1,0,5.19-1.52,5.19-5.88S56,61.57,52.88,61.57H52.1V73.18h.78Z"/><path class="cls-2" d="M64.91,58.24h6.57c3.87,0,7,1.34,7,5.68,0,4.19-3.17,6-7,6H69v6.57H64.9V58.24Zm6.24,8.41c2.17,0,3.34-.93,3.34-2.72s-1.17-2.41-3.34-2.41H69v5.13Zm-.42,2.19,2.85-2.64L79.4,76.49H74.78Z"/><path class="cls-2" d="M81.23,58.24h4.13V76.49H81.23Z"/><path class="cls-2" d="M88.82,58.24h4.23l4.76,9.08,1.81,4h.11c-.19-1.93-.53-4.49-.53-6.64V58.24h3.93V76.49H98.9l-4.76-9.1-1.81-4h-.11c.19,2,.53,4.46.53,6.61v6.48H88.82Z"/><path class="cls-2" d="M106.6,58.24h4.13V65.7h.1l5.44-7.46h4.53l-5.52,7.28,6.54,11H117.3l-4.44-7.71-2.13,2.82v4.89H106.6Z"/><path class="cls-2" d="M49.33,25.4a2.76,2.76,0,0,1,1.42.52c.54.33.84.66.88,1a1.11,1.11,0,0,1-.24.45A3.65,3.65,0,0,0,51.18,29v1.85a10.71,10.71,0,0,1,4.47,2,3.13,3.13,0,0,1,1.33,2c0,.44-.21.67-.69.67s-1.33-.71-2.62-2a10.78,10.78,0,0,0-2.49-2V37.1a7,7,0,0,0,.13,1.8,11.81,11.81,0,0,1,.06,1.18A3.21,3.21,0,0,1,51,41.43a1.22,1.22,0,0,1-.54.58c-.33-.07-.61-.43-.84-1.07a4.09,4.09,0,0,1-.28-1.4,7.7,7.7,0,0,1,.17-1.33c.11-.66.18-1.11.19-1.35.13-1.83.19-3.06.19-3.67,0-1.47-.09-3.21-.21-5.2a6.1,6.1,0,0,0-.26-1.42,2.79,2.79,0,0,1-.3-.84C49.14,25.51,49.2,25.4,49.33,25.4Zm4,2a5.66,5.66,0,0,1,2.21.52,1.47,1.47,0,0,1,.67,1,.61.61,0,0,1-.62.6,1.25,1.25,0,0,1-.64-.34A9.35,9.35,0,0,1,53.37,27.35Zm2.06-1.89a5.66,5.66,0,0,1,2.21.54,1.22,1.22,0,0,1,.64,1c0,.34-.19.54-.6.58a1.26,1.26,0,0,1-.64-.34A9.25,9.25,0,0,1,55.43,25.46Z"/><path class="cls-2" d="M69.1,27.18a1.93,1.93,0,0,1,1,.45,1.63,1.63,0,0,1,.69.79l-.21.47a2.86,2.86,0,0,0,0,.56v2c0,.8,0,1.64.06,2.51a5.48,5.48,0,0,1-.21,1.07c-.19.32-.33.47-.43.47s-.4-.2-.64-.56a2.4,2.4,0,0,1-.49-1.29,2,2,0,0,1,.24-.79,3.42,3.42,0,0,0,.13-.92c0-.66,0-1.32,0-2a5.22,5.22,0,0,0-.3-1.85,1,1,0,0,1-.28-.52C68.59,27.33,68.76,27.18,69.1,27.18Zm6-2.13a4.29,4.29,0,0,1,1.1.34c.59.33.9.59.95.79a5.49,5.49,0,0,1-.28.71,2.22,2.22,0,0,0-.15.92c0,1.22-.06,3.14-.11,5.78q-.06,4.92-5,8.74A20.91,20.91,0,0,0,74,38.2a11.27,11.27,0,0,0,1.2-4.64c0-.59,0-1.23,0-1.93V27.14a2.69,2.69,0,0,0-.34-1.33c-.21-.26-.32-.43-.32-.52S74.75,25.05,75.08,25.05Z"/><path class="cls-2" d="M89,26.86a14.43,14.43,0,0,1,4.28,2.21c.89.72,1.32,1.3,1.31,1.74,0,.66-.34,1-.92,1-.42,0-1-.49-1.61-1.42A27,27,0,0,0,89,26.86Zm12.59,1.35a29,29,0,0,1-2.71,5,31.34,31.34,0,0,1-3.76,4.36,20.1,20.1,0,0,1-3.37,3,2.29,2.29,0,0,1-1.27-.64c-.53-.43-.79-.79-.79-1.1s.28-.44.84-.45a5.48,5.48,0,0,0,2.58-1.18,30,30,0,0,0,3.42-3A60.12,60.12,0,0,0,101.62,28.21Z"/><path class="cls-2" d="M114.45,25.74c.16,0,.49.24,1,.71a3,3,0,0,1,.84,1c0,.2-.21.37-.52.49a1.91,1.91,0,0,0-.37.52,1.24,1.24,0,0,0,.69.15A5.53,5.53,0,0,0,118,28a4.67,4.67,0,0,1,1.53-.49,3.72,3.72,0,0,1,1.38.49c.73.39,1.12.72,1.16,1s-.39.65-1,1.1a19.13,19.13,0,0,0-2.54,3.78,17.15,17.15,0,0,1-9.69,8.14,27.92,27.92,0,0,0,5.78-5.48,41.32,41.32,0,0,0,2.58-3.74,15.26,15.26,0,0,0,2-3.8c0-.07-.12-.11-.28-.11a5.59,5.59,0,0,0-1.12.21,4.75,4.75,0,0,1-1.31.24,3.43,3.43,0,0,1-1.44-.32,11.32,11.32,0,0,1-2.34,2.58,9.3,9.3,0,0,1-3.44,2,14.53,14.53,0,0,0,3.35-3.63,7.74,7.74,0,0,0,1.46-3.89C114.08,25.89,114.21,25.74,114.45,25.74Z"/></g></g></svg>