<svg xmlns="http://www.w3.org/2000/svg" viewBox="0 0 173.25 92.11"><defs><style>.cls-1{fill:#231f20;stroke:#7a7d80;stroke-miterlimit:10;}.cls-2{fill:#fff;}</style></defs><g id="Layer_2" data-name="Layer 2"><g id="Layer_1-2" data-name="Layer 1"><rect class="cls-1" x="0.5" y="0.5" width="172.25" height="91.11"/><path class="cls-2" d="M20,53.82h4.5l3,8.11c.37,1.08.69,2.25,1,3.37h.11c.37-1.12.68-2.29,1-3.37l2.87-8.11H37V72.07H33.25v-6.7c0-1.78.33-4.43.53-6.2h-.11l-1.5,4.32-2.58,7H27.3l-2.58-7-1.46-4.32h-.11c.19,1.77.53,4.42.53,6.2v6.7H20Z"/><path class="cls-2" d="M43.87,53.82h4.94l5.73,18.25H50.17l-2.39-9.24c-.51-1.82-1-4-1.48-5.89h-.11c-.44,1.93-.93,4.06-1.44,5.89l-2.4,9.24H38.13Zm-1.95,10.7H50.7v3.21H41.92Z"/><path class="cls-2" d="M55.45,53.82h4.13v7.46h.1l5.44-7.46h4.53L64.13,61.1l6.54,11H66.15l-4.44-7.71-2.13,2.82v4.89H55.45V53.82Z"/><path class="cls-2" d="M71.81,53.82h4.13V72.07H71.81Z"/><path class="cls-2" d="M83,69.77l2.37-2.83a7.27,7.27,0,0,0,4.48,1.91c1.72,0,2.56-.68,2.56-1.76s-1-1.52-2.63-2.17l-2.37-1a5.32,5.32,0,0,1-3.68-5c0-3,2.7-5.44,6.5-5.44a8.45,8.45,0,0,1,5.87,2.39L94,58.49a6,6,0,0,0-3.79-1.43c-1.42,0-2.33.59-2.33,1.64s1.19,1.53,2.79,2.16L93,61.8c2.23.9,3.62,2.39,3.62,5,0,3-2.53,5.66-6.88,5.66A10.1,10.1,0,0,1,83,69.77Z"/><path class="cls-2" d="M98.78,63.62V53.83h4.13V64c0,3.57,1.13,4.81,3.17,4.81s3.23-1.23,3.23-4.81V53.83h4v9.79c0,6.13-2.49,8.79-7.21,8.79S98.78,69.74,98.78,63.62Z"/><path class="cls-2" d="M115.2,69.77l2.37-2.83a7.27,7.27,0,0,0,4.48,1.91c1.72,0,2.56-.68,2.56-1.76s-1-1.52-2.63-2.17l-2.37-1a5.32,5.32,0,0,1-3.68-5c0-3,2.7-5.44,6.5-5.44a8.45,8.45,0,0,1,5.87,2.39l-2.08,2.6a6,6,0,0,0-3.79-1.43c-1.42,0-2.33.59-2.33,1.64s1.19,1.53,2.79,2.16l2.33.94c2.23.9,3.62,2.39,3.62,5,0,3-2.53,5.66-6.88,5.66A10.11,10.11,0,0,1,115.2,69.77Z"/><path class="cls-2" d="M131.11,53.82h4.13v7h6.3v-7h4.13V72.07h-4.13V64.45h-6.3v7.62h-4.13Z"/><path class="cls-2" d="M149.14,53.82h4.13V72.07h-4.13Z"/><path class="cls-2" d="M54.53,19.74c.46.27.7.51.7.69A1.15,1.15,0,0,1,55,21a11.27,11.27,0,0,0-.45,1.59,38.71,38.71,0,0,1-1.43,5.28,14.67,14.67,0,0,1-2.76,4.35,8.62,8.62,0,0,1-3.88,2.48,7.67,7.67,0,0,1-1.15.34c-.15,0-.23,0-.23-.11s.18-.26.53-.42a21.87,21.87,0,0,0,3.7-2.86,13.5,13.5,0,0,0,2.12-3,18.51,18.51,0,0,0,1.36-3.71,17.4,17.4,0,0,0,.53-3.57,4.35,4.35,0,0,0-.15-1.21,1.34,1.34,0,0,1-.1-.39.45.45,0,0,1,.44-.33A2.38,2.38,0,0,1,54.53,19.74Zm5.75,7.38c.52.33.78.57.78.75s-.26.26-.73.28q-2.56.06-5.87.38c-1.25.12-2.89.34-4.94.68a6,6,0,0,1-.73.12,2,2,0,0,1-1-.26c-.39-.16-.58-.3-.58-.45s.15-.12.44-.19q6.16-.69,10.12-1.3a13,13,0,0,1,1.75-.25A7,7,0,0,1,60.28,27.12Zm-10-5.24a4,4,0,0,1,1.23.54,1.23,1.23,0,0,1,.36.93c0,.55-.23.82-.68.82a.64.64,0,0,1-.43-.23,9,9,0,0,1-1.22-1.77.38.38,0,0,1-.1-.21c0-.13.1-.19.21-.19A1.61,1.61,0,0,1,50.25,21.88ZM58,24.57q.36.16.36.39c0,.13-.17.23-.52.3a22.63,22.63,0,0,1-2.69.5,39.84,39.84,0,0,1-4.12.41A2.44,2.44,0,0,1,49.94,26c-.21-.15-.31-.27-.31-.38s.25-.17.76-.18c1.19-.11,2.5-.28,3.93-.53a23.5,23.5,0,0,0,2.41-.5,2,2,0,0,1,.43-.11A2.31,2.31,0,0,1,58,24.57Zm-2.58,8.54.59.29c.31.21.46.38.46.52s-.07.21-.22.21a9,9,0,0,0-1.62.14l-2.28.32a6.49,6.49,0,0,1-1,.11,1.06,1.06,0,0,1-.74-.2.57.57,0,0,1-.2-.37c0-.17.1-.25.31-.25A16.56,16.56,0,0,0,54,33.3a6,6,0,0,1,1.1-.19ZM51.16,34l.42.26c.4.25.61.47.61.68,0,0,0,.09-.13.19a3.24,3.24,0,0,0-.32,1.53.46.46,0,0,0,.28.43,3.19,3.19,0,0,0,1.09.25,14.65,14.65,0,0,0,1.78.07,7.13,7.13,0,0,0,1.62-.15A1.92,1.92,0,0,0,57.88,36l.33-1.27c0-.19.11-.29.18-.29s.08.09.12.26L58.79,36a1.74,1.74,0,0,0,.25.68,1.1,1.1,0,0,1,.21.53.89.89,0,0,1-.29.52,3.35,3.35,0,0,1-1.34.67,9.3,9.3,0,0,1-2.36.29,14.54,14.54,0,0,1-2.18-.16,4.31,4.31,0,0,1-1.76-.61,1.54,1.54,0,0,1-.53-1.3,5.29,5.29,0,0,1,.05-.61V35.3a3.22,3.22,0,0,0-.1-.82.91.91,0,0,1-.13-.29c0-.16.12-.24.37-.24Zm4.69-3.81.87.42c.26.16.39.33.39.52a.52.52,0,0,1-.25.39,2.69,2.69,0,0,0-.51.81l-.45,1.1a.54.54,0,0,1-.52.32c-.35,0-.52-.08-.52-.23a1.48,1.48,0,0,1,0-.28c.1-.37.18-.69.23-1a4.73,4.73,0,0,0,.08-.72c0-.13-.08-.19-.24-.19a5,5,0,0,0-1,.14,10.92,10.92,0,0,1-1.67.25.78.78,0,0,1-.51-.23c-.21-.12-.31-.21-.31-.26s.09-.16.26-.16a11.3,11.3,0,0,0,1.83-.26,6.86,6.86,0,0,0,1.51-.5,1.21,1.21,0,0,1,.45-.16ZM57,28.86a24.43,24.43,0,0,0,3.55,2.65A28.54,28.54,0,0,0,64.4,33c.23.07.35.15.35.22s-.11.2-.34.26a14.42,14.42,0,0,1-2.7.45,2,2,0,0,1-1-.28,28.54,28.54,0,0,1-3-3,17.73,17.73,0,0,0-1.43-1.44A4.52,4.52,0,0,0,55,28.4q-.24,0-.24-.21c0-.17.14-.26.43-.26A3.8,3.8,0,0,1,57,28.86Zm1.8-7.94c.47.29.71.55.71.76,0,0-.06.09-.18.14a3.76,3.76,0,0,0-.81.47,17.88,17.88,0,0,1-1.82,1.14,3.79,3.79,0,0,1-.81.31c-.07,0-.1,0-.1-.1a13.7,13.7,0,0,0,1.26-1.78,2.38,2.38,0,0,0,.37-1c0-.21.1-.33.31-.33A3.07,3.07,0,0,1,58.81,20.92Z"/><path class="cls-2" d="M72.64,32.18q-1.35.69-1.35,1.44c0,.79.62,1.37,1.87,1.74a10.35,10.35,0,0,0,2.77.34,4.56,4.56,0,0,1,2.34.37,1.41,1.41,0,0,1,.37.67c0,.57-.72.88-2,.92a11.17,11.17,0,0,1-3-.58,6,6,0,0,1-2.17-1.4,2.56,2.56,0,0,1-.84-1.63A1.51,1.51,0,0,1,71,32.93,4,4,0,0,1,72.64,32.18Zm1.1-12.08c.77,0,1.19.3,1.25.9a9.15,9.15,0,0,0,.6,2.13,1.54,1.54,0,0,0,.09.24,7.51,7.51,0,0,1,1.8-.88c.5,0,.78.14.84.41s-.47.59-1.22,1c-.36.21-.66.38-.9.49.17.32.63,1.07,1.38,2.26a2.16,2.16,0,0,0,.21.37,6.29,6.29,0,0,1,1.78-.86c.39,0,.59.14.62.41s-.62.74-1.72,1.44c.06.09.55.72,1.48,1.89a7.63,7.63,0,0,1,1.22,1.76.86.86,0,0,1-.82.92,2.52,2.52,0,0,1-.88-.37,16.42,16.42,0,0,0-2.64-.73c1.38-.19,2.06-.39,2.06-.62a5.06,5.06,0,0,0-.69-1l-.84-1.16a14.36,14.36,0,0,1-1.48.69,6.07,6.07,0,0,1-1.53.37c-1-.07-1.55-.24-1.55-.49a14.14,14.14,0,0,0,3.89-1.59,27.71,27.71,0,0,1-1.61-2.77.43.43,0,0,1-.21.09,9.36,9.36,0,0,1-2,.47c-1.1-.06-1.65-.24-1.65-.56a16.72,16.72,0,0,0,3.29-1c-.26-.52-.51-1-.75-1.57A4,4,0,0,0,72.88,21c-.29-.16-.43-.29-.43-.39Q72.45,20.1,73.74,20.1Z"/><path class="cls-2" d="M105.62,30c.58.32.87.61.87.86s-.4.34-1.2.34c-1.12,0-2.33,0-3.62,0s-3.12.09-5.3.26a30.14,30.14,0,0,0-5,.75,5.29,5.29,0,0,1-.93.19A3.24,3.24,0,0,1,89.26,32c-.55-.24-.83-.44-.83-.59s.18-.29.54-.32a27.83,27.83,0,0,0,4.34-.29c1.74-.22,3.66-.38,5.74-.5a43.59,43.59,0,0,0,4.54-.59,6.67,6.67,0,0,1,.83-.12A9.35,9.35,0,0,1,105.62,30Zm-7.81-10.4c.46.27.7.51.7.69a1.63,1.63,0,0,1-.2.6,14.61,14.61,0,0,0-.44,1.83,53.78,53.78,0,0,1-1.38,6.09,17.41,17.41,0,0,1-2.67,5,8.34,8.34,0,0,1-3.75,2.87,8.46,8.46,0,0,1-1.11.4c-.15,0-.23,0-.23-.11s.17-.3.51-.49a22.21,22.21,0,0,0,3.55-3.33,15.93,15.93,0,0,0,2-3.54,24,24,0,0,0,1.3-4.32,24.14,24.14,0,0,0,.51-4.15,4.35,4.35,0,0,0-.15-1.21,1.34,1.34,0,0,1-.1-.39.45.45,0,0,1,.44-.33A2.5,2.5,0,0,1,97.81,19.56Zm5.66,6.87c.52.33.78.57.78.75s-.26.26-.73.28q-2.47.06-5.66.38c-1.2.12-2.79.34-4.76.68a5.37,5.37,0,0,1-.71.12,2,2,0,0,1-1-.26c-.39-.16-.58-.3-.58-.45s.15-.12.44-.19q5.94-.69,9.75-1.3a12.35,12.35,0,0,1,1.68-.25A6,6,0,0,1,103.47,26.43Zm-1.67-4.7c.26.12.39.26.39.43s-.2.24-.59.32a25.71,25.71,0,0,1-3,.53c-2.36.29-3.91.44-4.63.44a2.66,2.66,0,0,1-1.22-.2c-.23-.16-.34-.3-.34-.42s.28-.18.85-.2c1.34-.11,2.8-.3,4.4-.56a24.49,24.49,0,0,0,2.7-.54,2.37,2.37,0,0,1,.49-.11A2.53,2.53,0,0,1,101.8,21.73Zm-1,2.53c.42.15.63.28.63.38s-.25.31-.76.41-1.1.11-1.51.17l-2.82.42a15.71,15.71,0,0,1-1.79.17,2.71,2.71,0,0,1-.81-.1c-.32-.11-.48-.22-.48-.35s.25-.3.76-.32c1.74-.21,3.42-.48,5.06-.82l.8-.13A6.49,6.49,0,0,1,100.79,24.26Zm-4.57,8.35a4.32,4.32,0,0,1,1.28.51,1.11,1.11,0,0,1,.38.88c0,.55-.23.82-.68.82a.73.73,0,0,1-.45-.22,9.29,9.29,0,0,1-1.28-1.7.44.44,0,0,1-.11-.2c0-.13.1-.19.21-.19A1.94,1.94,0,0,1,96.22,32.61ZM101,28.42a.53.53,0,0,1,.4.59,3.44,3.44,0,0,1-.06.45,5.06,5.06,0,0,0-.14,1.4c0,1.14,0,2,.06,2.74s.06,1.48.06,2.22a5.12,5.12,0,0,1-.36,2.31c-.41.54-.75.81-1,.81a.51.51,0,0,1-.43-.31,10.52,10.52,0,0,0-1.45-1.75c-.21-.15-.31-.28-.31-.39a.11.11,0,0,1,.12-.12,1.43,1.43,0,0,1,.34.06,6,6,0,0,0,1.25.3c.2,0,.33-.17.38-.52a27.82,27.82,0,0,0,.17-4.13,11.91,11.91,0,0,0-.32-3,2,2,0,0,1-.17-.63c0-.21.09-.31.26-.31A3.36,3.36,0,0,1,101,28.42Z"/><path class="cls-2" d="M112.93,28.63l.34.13c.49.17.74.38.74.62a5.27,5.27,0,0,0,0,.68,27.33,27.33,0,0,1,.28,3,1.28,1.28,0,0,1-.11.57c-.07.15-.16.23-.26.23s-.23-.09-.34-.28a1.42,1.42,0,0,1-.28-.77l-.22-1.39a8.71,8.71,0,0,0-.28-1.52,1.51,1.51,0,0,0-.49-.82c-.1-.07-.15-.12-.15-.14,0-.22.09-.33.28-.33Zm6.94-4c.26.12.39.26.39.43s-.14.21-.41.28a15.2,15.2,0,0,1-2.14.46,29.31,29.31,0,0,1-3.27.38,2.66,2.66,0,0,1-1.22-.2c-.23-.16-.34-.3-.34-.42s.2-.16.61-.17c1-.1,2-.26,3.15-.49a14,14,0,0,0,1.93-.47,1.12,1.12,0,0,1,.35-.1A2.58,2.58,0,0,1,119.87,24.65Zm-.74,3.07.94.45c.28.17.43.36.43.56a.86.86,0,0,1-.27.58,4.45,4.45,0,0,0-.55,1.21l-.49,1.64a.59.59,0,0,1-.57.35q-.57,0-.57-.24a3.62,3.62,0,0,1,0-.43q.16-.86.24-1.5a11.15,11.15,0,0,0,.08-1.13c0-.14-.09-.21-.26-.21a6.85,6.85,0,0,0-1.67.27,15,15,0,0,1-2.73.49.83.83,0,0,1-.56-.25c-.22-.13-.33-.22-.33-.28s.09-.17.28-.17a17.16,17.16,0,0,0,2.7-.38,9.47,9.47,0,0,0,2.22-.73,1.74,1.74,0,0,1,.67-.23Zm-.77,4.07.64.31c.33.22.5.41.5.56s-.07.17-.21.17a10.42,10.42,0,0,0-1.54.11l-2.17.25a6.29,6.29,0,0,1-.91.08,1.15,1.15,0,0,1-.8-.21.6.6,0,0,1-.21-.4c0-.18.11-.27.34-.27a19.23,19.23,0,0,0,3-.45,6.78,6.78,0,0,1,1-.15Zm6.19-10.59c.51.38.76.65.76.81a1.19,1.19,0,0,1-.18.51,8.62,8.62,0,0,0-.27,2.78c0,2.17,0,4,0,5.61,0,1.12,0,2.43,0,3.94a4.24,4.24,0,0,1-.83,2.79,1.82,1.82,0,0,1-1.26.78l-.38-2.54c.22,0,.42-.29.58-.87a54.15,54.15,0,0,0,.31-7.5,31.56,31.56,0,0,0-.27-5.15c-.08-.24-.35-.36-.8-.36a25.55,25.55,0,0,0-3.24.22c-1.1.17-1.93.31-2.5.43a3.19,3.19,0,0,1-1,.18,1.9,1.9,0,0,1-1-.39q-.63-.33-.63-.6c0-.1.2-.15.59-.15q1.83-.06,4.17-.36a33,33,0,0,0,3.58-.66,6.15,6.15,0,0,1,.9-.17A4.92,4.92,0,0,1,124.55,21.2Zm-4,14a12.28,12.28,0,0,0,1.93.68l.38,2.54c-.15,0-.31-.13-.46-.39a22.53,22.53,0,0,0-2-2.46q-.27-.26-.27-.36s0-.06.13-.06A1.12,1.12,0,0,1,120.54,35.21Z"/></g></g></svg>