<svg xmlns="http://www.w3.org/2000/svg" viewBox="0 0 172.93 91.95"><defs><style>.cls-1{fill:#231f20;stroke:#7a7d80;stroke-miterlimit:10;}.cls-2{fill:#fff;}</style></defs><g id="Layer_2" data-name="Layer 2"><g id="Layer_1-2" data-name="Layer 1"><rect class="cls-1" x="0.5" y="0.5" width="171.93" height="90.95"/><path class="cls-2" d="M57,53.79h4.23l4.76,9.08,1.8,4h.11c-.19-1.93-.53-4.49-.53-6.64V53.79h3.93V72H67l-4.76-9.1-1.81-4h-.11c.19,2,.53,4.46.53,6.61V72H56.94V53.79Z"/><path class="cls-2" d="M78.12,53.79h4.94L88.79,72H84.42L82,62.8c-.51-1.82-1-4-1.48-5.89h-.11C80,58.84,79.51,61,79,62.8L76.6,72H72.38Zm-2,10.7H85V67.7H76.17Z"/><path class="cls-2" d="M89.71,53.79H96c3.79,0,6.73,1,6.73,4.53a4.23,4.23,0,0,1-2.4,3.94v.11a4.16,4.16,0,0,1,3.3,4.29c0,3.71-3.14,5.38-7.11,5.38H89.71V53.79Zm6.05,7.31c2,0,2.89-.85,2.89-2.17s-.93-2-2.86-2h-2v4.13h1.93Zm.38,7.76c2.25,0,3.41-.8,3.41-2.46s-1.14-2.25-3.41-2.25h-2.3v4.71Z"/><path class="cls-2" d="M105.81,53.79h11.43v3.46h-7.31v3.67h6.22v3.46h-6.22v4.2h7.59V72H105.81Z"/><path class="cls-2" d="M82.65,20.56c.56.43.84.76.84,1a.74.74,0,0,1-.14.37l-.45,1c-.35.77-.86,1.77-1.54,3a14.38,14.38,0,0,1-2.64,3.32c-1,.86-1.62,1.28-2,1.28-.12,0-.18,0-.18-.1s.05-.12.16-.22a17.86,17.86,0,0,0,2.77-3.6,19.42,19.42,0,0,0,1.93-3.8,5,5,0,0,0,.32-1.89c0-.35.11-.53.32-.53A1.41,1.41,0,0,1,82.65,20.56Zm-4.8,14.73.46.05a4.48,4.48,0,0,0,.55,0,6.36,6.36,0,0,0,1-.13c2.16-.59,3.68-1.06,4.54-1.4a1.78,1.78,0,0,1,.47-.13c.37,0,.56.09.56.28s-.18.35-.53.47c-2.5.94-3.75,1.43-3.75,1.45a12.66,12.66,0,0,0-1.42.66,1.11,1.11,0,0,1-.57.28,1.73,1.73,0,0,1-1-.51c-.45-.42-.67-.7-.67-.84S77.64,35.29,77.85,35.29Zm1.69-3.23a3.71,3.71,0,0,1,1.08.47,1.07,1.07,0,0,1,.32.81c0,.46-.19.68-.56.68a.57.57,0,0,1-.38-.2,8.65,8.65,0,0,1-1.08-1.52.36.36,0,0,1-.09-.18c0-.11.08-.16.17-.16A1.41,1.41,0,0,1,79.54,32.06Zm5-2.92c.38.14.57.25.57.35s-.23.28-.69.38-.79.12-1.09.18l-2,.44a7.31,7.31,0,0,1-1.29.18,2.63,2.63,0,0,1-.74-.09c-.3-.1-.44-.21-.44-.33S79,30,79.5,30a32.49,32.49,0,0,0,3.6-.83l.57-.13A3.68,3.68,0,0,1,84.52,29.14Zm-.36-2.45c.22.1.33.21.33.36s-.08.15-.24.2a7.42,7.42,0,0,1-1.23.32,13.25,13.25,0,0,1-1.88.27,2.23,2.23,0,0,1-1-.16c-.19-.13-.29-.25-.29-.35s.12-.11.35-.12A16.6,16.6,0,0,0,82,26.86a7.86,7.86,0,0,0,1.13-.34.57.57,0,0,1,.2-.07A1.68,1.68,0,0,1,84.16,26.69Zm-1.67,1q.42.21.42.48a1.24,1.24,0,0,1-.06.37,2.92,2.92,0,0,0-.08.65L82.66,35h-1l-.22-6.19a1.46,1.46,0,0,0-.21-.64.47.47,0,0,1-.15-.26c0-.26.13-.38.4-.38A2.89,2.89,0,0,1,82.49,27.72Zm.6-5.24c.47.13.92.28,1.37.45a3.55,3.55,0,0,1,1.16.7,1,1,0,0,1,.21.62,1.47,1.47,0,0,1-.12.54.4.4,0,0,1-.35.22.73.73,0,0,1-.35-.15A4.11,4.11,0,0,1,84,24a11.65,11.65,0,0,0-1.18-1.13c-.21-.14-.32-.24-.32-.31s0-.12.09-.12A1.8,1.8,0,0,1,83.09,22.48Zm1.06,8.44a1.46,1.46,0,0,1,.68.37c.29.23.44.43.44.62a.37.37,0,0,1-.21.33,5.08,5.08,0,0,0-.84.56,3.4,3.4,0,0,1-1,.69c-.06,0-.09,0-.09-.1s0-.07.07-.09a5.76,5.76,0,0,0,.51-1,8.06,8.06,0,0,0,.37-1.22C84.07,31,84.11,30.92,84.15,30.92Zm2.24-2q.45.18.48.42L87,35.84a1.52,1.52,0,0,1-.18.64c-.07.19-.17.29-.29.29s-.23-.14-.37-.43a1.19,1.19,0,0,1-.18-.51,2.53,2.53,0,0,1,0-.35c0-.29,0-.56,0-.81,0-1.12-.05-2.27-.14-3.43a8.86,8.86,0,0,0-.32-1.78,1.21,1.21,0,0,1-.07-.4c0-.19.07-.28.21-.28A2.94,2.94,0,0,1,86.39,28.93ZM86.1,29l.25,0a2.13,2.13,0,0,0,.4.06q.33,0,7.28-.84c.28-.05.58-.11.88-.19a1.87,1.87,0,0,1,.35-.09,5.22,5.22,0,0,1,1.22.68q.54.36.54.66a1.22,1.22,0,0,1-.17.5,6.23,6.23,0,0,0-.33,1.74l-.19,2.63A4.7,4.7,0,0,1,95.5,37c-.43.53-.8.79-1.14.79l-.14-2.11c.2,0,.37-.22.53-.65a17.14,17.14,0,0,0,.41-4.42A3.32,3.32,0,0,0,95,29.35a1.22,1.22,0,0,0-.73-.15c-.53,0-1.51.05-3,.16s-2.66.28-3.67.45a4,4,0,0,1-.6.1,2,2,0,0,1-.89-.24c-.26-.17-.39-.31-.39-.43a.17.17,0,0,1,.19-.19ZM88.21,23c.26.13.39.27.39.43a1,1,0,0,1-.06.33,3,3,0,0,0-.08.59l.34,5.13h-.93l-.64-5.54a1.41,1.41,0,0,0-.19-.58.42.42,0,0,1-.13-.23c0-.23.12-.35.37-.35A3.12,3.12,0,0,1,88.21,23Zm6-.48c.31.18.46.31.46.4a1.2,1.2,0,0,1-.11.48,5.82,5.82,0,0,0-.18.83c-.31,1.82-.6,3.33-.86,4.52a1,1,0,0,1-.63.31c-.09,0-.17-.07-.25-.21a1,1,0,0,1-.11-.45c0-.06,0-.18,0-.38a23.55,23.55,0,0,0,.18-2.37c.06-1,.09-1.79.09-2.41,0-.21-.14-.32-.42-.32a12.91,12.91,0,0,0-1.45.19c-1,.15-1.6.27-2,.34a1.69,1.69,0,0,1-.51.12,1,1,0,0,1-.51-.16c-.16-.13-.24-.22-.24-.3S87.83,23,88,23a27.57,27.57,0,0,0,3-.45l1.7-.39a1.33,1.33,0,0,1,.41-.1A3.18,3.18,0,0,1,94.2,22.49Zm-5.42,8.86.25.09q.54.19.54.45a3.37,3.37,0,0,0,0,.44,15.8,15.8,0,0,1,.21,2,.93.93,0,0,1-.08.41c0,.11-.12.17-.19.17s-.17-.07-.25-.2a1,1,0,0,1-.2-.56l-.17-.9a4.24,4.24,0,0,0-.21-1,1.12,1.12,0,0,0-.36-.54.28.28,0,0,1-.11-.09c0-.16.07-.24.2-.24Zm3.4-.67.72.35c.22.13.33.27.33.43a.57.57,0,0,1-.17.37,2.73,2.73,0,0,0-.35.78l-.31,1a.45.45,0,0,1-.44.27c-.29,0-.44-.06-.44-.19s0-.13,0-.27c0-.36.06-.67.07-.94s0-.53,0-.71-.07-.16-.2-.16a4.37,4.37,0,0,0-.71.08,9.09,9.09,0,0,1-1.16.15.64.64,0,0,1-.43-.19c-.17-.1-.26-.17-.26-.21s.07-.13.21-.13a8.58,8.58,0,0,0,1.35-.19,5,5,0,0,0,1.11-.37.83.83,0,0,1,.33-.12Zm-.25,2.72.5.24c.26.17.39.32.39.44s0,.08-.12.08a7.57,7.57,0,0,0-.87.05l-1.22.12a4,4,0,0,1-.51,0,.9.9,0,0,1-.63-.17.48.48,0,0,1-.17-.32q0-.21.27-.21a12.22,12.22,0,0,0,1.57-.2c.27,0,.45-.07.54-.07Zm-1.27-8c.23.12.35.25.35.39a1.17,1.17,0,0,1-.05.3,2.34,2.34,0,0,0-.07.53V29.2h-.83l-.28-2.9a1.36,1.36,0,0,0-.17-.53.38.38,0,0,1-.12-.21.29.29,0,0,1,.33-.32A2.4,2.4,0,0,1,90.66,25.44Zm1.79-.29.5.24c.26.17.39.32.39.44a.11.11,0,0,1-.12.12,4.28,4.28,0,0,0-.84.08l-1.19.19a3,3,0,0,1-.5.06.9.9,0,0,1-.63-.17.48.48,0,0,1-.17-.32q0-.21.27-.21a7.09,7.09,0,0,0,1.51-.33,2.76,2.76,0,0,1,.51-.11Zm.45,10.31a7.66,7.66,0,0,0,1.33.23l.14,2.11a.66.66,0,0,1-.6-.36,11.12,11.12,0,0,0-1.19-1.65c-.16-.16-.25-.27-.25-.34a.12.12,0,0,1,.14-.14A1.09,1.09,0,0,1,92.9,35.46Z"/></g></g></svg>