<svg xmlns="http://www.w3.org/2000/svg" viewBox="0 0 173.25 92.11"><defs><style>.cls-1{fill:#231f20;stroke:#7a7d80;stroke-miterlimit:10;}.cls-2{fill:#fff;}</style></defs><g id="Layer_2" data-name="Layer 2"><g id="Layer_1-2" data-name="Layer 1"><rect class="cls-1" x="0.5" y="0.5" width="172.25" height="91.11"/><path class="cls-2" d="M50.89,70.16l2.37-2.83a7.27,7.27,0,0,0,4.48,1.91c1.72,0,2.56-.68,2.56-1.76s-1-1.52-2.63-2.17l-2.37-1a5.32,5.32,0,0,1-3.68-5c0-3,2.7-5.44,6.5-5.44A8.45,8.45,0,0,1,64,56.28l-2.08,2.6a6,6,0,0,0-3.79-1.43c-1.42,0-2.33.59-2.33,1.64s1.19,1.53,2.79,2.16l2.33.94c2.23.9,3.62,2.38,3.62,5,0,3-2.53,5.66-6.88,5.66A10.1,10.1,0,0,1,50.89,70.16Z"/><path class="cls-2" d="M66.69,64V54.22h4.13V64.43C70.82,68,72,69.24,74,69.24s3.23-1.24,3.23-4.81V54.22h4V64c0,6.13-2.49,8.79-7.21,8.79S66.69,70.13,66.69,64Z"/><path class="cls-2" d="M83.11,70.16l2.37-2.83A7.27,7.27,0,0,0,90,69.24c1.72,0,2.56-.68,2.56-1.76s-1-1.52-2.63-2.17l-2.37-1a5.32,5.32,0,0,1-3.68-5c0-3,2.7-5.44,6.5-5.44a8.45,8.45,0,0,1,5.87,2.39l-2.08,2.6a6,6,0,0,0-3.79-1.43c-1.42,0-2.33.59-2.33,1.64s1.19,1.53,2.79,2.16l2.33.94c2.23.9,3.62,2.38,3.62,5,0,3-2.53,5.66-6.88,5.66A10.13,10.13,0,0,1,83.11,70.16Z"/><path class="cls-2" d="M99,54.21h4.13v7h6.3v-7h4.13V72.46h-4.13V64.84h-6.3v7.62H99Z"/><path class="cls-2" d="M117.05,54.21h4.13V72.46h-4.13Z"/><path class="cls-2" d="M84.27,30.35c.58.32.87.61.87.86s-.4.34-1.2.34c-1.12,0-2.33,0-3.62,0s-3.12.09-5.3.26a30.14,30.14,0,0,0-5,.75,5.29,5.29,0,0,1-.93.19,3.24,3.24,0,0,1-1.17-.34c-.55-.24-.83-.44-.83-.59s.18-.29.54-.32A27.83,27.83,0,0,0,72,31.17c1.74-.22,3.66-.38,5.74-.5a43.59,43.59,0,0,0,4.54-.59,6.67,6.67,0,0,1,.83-.12A6.22,6.22,0,0,1,84.27,30.35ZM76.47,20c.46.27.7.51.7.69a1.63,1.63,0,0,1-.2.6,14.61,14.61,0,0,0-.44,1.83,53.78,53.78,0,0,1-1.38,6.09,17.41,17.41,0,0,1-2.67,5A8.34,8.34,0,0,1,68.73,37a8.46,8.46,0,0,1-1.11.4c-.15,0-.23,0-.23-.11s.17-.3.51-.49a22.21,22.21,0,0,0,3.55-3.33,15.93,15.93,0,0,0,2-3.54,24,24,0,0,0,1.3-4.32,24.14,24.14,0,0,0,.51-4.15,4.35,4.35,0,0,0-.15-1.21,1.34,1.34,0,0,1-.1-.39.45.45,0,0,1,.44-.33A2.35,2.35,0,0,1,76.47,20Zm5.66,6.87c.52.33.78.57.78.75s-.26.26-.73.28q-2.48.06-5.66.38c-1.2.12-2.79.34-4.76.68a5.37,5.37,0,0,1-.71.12,2,2,0,0,1-1-.26c-.39-.16-.58-.3-.58-.45s.15-.13.44-.19q5.94-.69,9.75-1.3a12.35,12.35,0,0,1,1.68-.25A6,6,0,0,1,82.13,26.82Zm-1.67-4.7c.26.11.39.26.39.43s-.2.25-.59.32a25.71,25.71,0,0,1-3,.53c-2.36.29-3.91.44-4.63.44a2.66,2.66,0,0,1-1.22-.2c-.23-.16-.34-.3-.34-.42s.28-.18.85-.2c1.34-.11,2.8-.3,4.4-.56a24.49,24.49,0,0,0,2.7-.54,2.37,2.37,0,0,1,.49-.11A2.53,2.53,0,0,1,80.46,22.12Zm-1,2.52c.42.15.63.28.63.38s-.25.31-.76.41-1.1.11-1.51.17L75,26a15.71,15.71,0,0,1-1.79.17,2.71,2.71,0,0,1-.81-.1c-.32-.11-.48-.23-.48-.35s.25-.3.76-.32c1.74-.21,3.42-.48,5.06-.82l.8-.13C78.68,24.49,79,24.54,79.45,24.64ZM74.88,33a4.32,4.32,0,0,1,1.28.51,1.1,1.1,0,0,1,.38.88c0,.55-.23.82-.68.82a.68.68,0,0,1-.45-.22,9.29,9.29,0,0,1-1.28-1.7.44.44,0,0,1-.11-.2c0-.13.1-.19.21-.19A1.94,1.94,0,0,1,74.88,33Zm4.78-4.19a.54.54,0,0,1,.4.59,3.44,3.44,0,0,1-.06.45,5.06,5.06,0,0,0-.14,1.4c0,1.14,0,2,.06,2.74s.06,1.48.06,2.22a5.2,5.2,0,0,1-.36,2.32c-.41.54-.75.81-1,.81a.51.51,0,0,1-.43-.31,10.52,10.52,0,0,0-1.45-1.75c-.21-.15-.31-.28-.31-.4a.11.11,0,0,1,.12-.12,1.43,1.43,0,0,1,.34.06,6,6,0,0,0,1.25.3c.2,0,.33-.17.38-.52a27.82,27.82,0,0,0,.17-4.13,11.91,11.91,0,0,0-.32-3,2,2,0,0,1-.17-.63c0-.21.09-.31.26-.31A3.2,3.2,0,0,1,79.66,28.81Z"/><path class="cls-2" d="M91.59,29l.34.13c.49.17.74.38.74.62a5.27,5.27,0,0,0,0,.68,27.33,27.33,0,0,1,.28,3,1.28,1.28,0,0,1-.11.57c-.07.15-.16.23-.26.23s-.23-.09-.34-.28a1.42,1.42,0,0,1-.28-.77l-.22-1.39a8.71,8.71,0,0,0-.28-1.52,1.51,1.51,0,0,0-.49-.82c-.1-.07-.15-.12-.15-.14,0-.22.09-.33.28-.33Zm6.94-4c.26.11.39.26.39.43s-.14.21-.41.28a15.2,15.2,0,0,1-2.14.46,27,27,0,0,1-3.27.38,2.66,2.66,0,0,1-1.22-.2c-.23-.16-.34-.3-.34-.42s.2-.16.61-.17c1-.1,2-.26,3.15-.49a14,14,0,0,0,1.93-.47,1.12,1.12,0,0,1,.35-.1A2.25,2.25,0,0,1,98.53,25Zm-.74,3.06.94.45c.28.17.43.36.43.56a.86.86,0,0,1-.27.58,4.51,4.51,0,0,0-.55,1.2l-.49,1.64a.59.59,0,0,1-.57.35q-.57,0-.57-.24a3.62,3.62,0,0,1,0-.43q.16-.86.24-1.5a11.15,11.15,0,0,0,.08-1.13c0-.14-.09-.21-.26-.21a6.85,6.85,0,0,0-1.67.27,15,15,0,0,1-2.73.49.83.83,0,0,1-.56-.25c-.22-.13-.33-.22-.33-.28s.09-.17.28-.17a17.16,17.16,0,0,0,2.7-.38,10,10,0,0,0,2.22-.73,1.74,1.74,0,0,1,.67-.23ZM97,32.18l.64.31c.33.22.5.41.5.56s-.07.17-.21.17a10.42,10.42,0,0,0-1.54.11l-2.17.25a6.29,6.29,0,0,1-.91.08,1.15,1.15,0,0,1-.8-.21.6.6,0,0,1-.21-.4c0-.18.11-.27.34-.27a19.23,19.23,0,0,0,3-.45,6.78,6.78,0,0,1,1-.15Zm6.19-10.59c.51.38.76.65.76.81a1.19,1.19,0,0,1-.18.51,8.62,8.62,0,0,0-.27,2.78c0,2.17,0,4,0,5.61,0,1.12,0,2.43,0,3.94a4.24,4.24,0,0,1-.83,2.79,1.82,1.82,0,0,1-1.26.78l-.38-2.54c.22,0,.42-.29.58-.87a54.15,54.15,0,0,0,.31-7.5,31.64,31.64,0,0,0-.27-5.15c-.08-.24-.35-.36-.8-.36a25.55,25.55,0,0,0-3.24.22c-1.1.17-1.93.31-2.5.43a3.19,3.19,0,0,1-1,.18,1.9,1.9,0,0,1-1-.39q-.63-.33-.63-.6c0-.1.2-.15.59-.15Q95,22,97.31,21.72a33,33,0,0,0,3.58-.66,6.15,6.15,0,0,1,.9-.17A4.68,4.68,0,0,1,103.2,21.59Zm-4,14a12.28,12.28,0,0,0,1.93.68l.38,2.54c-.15,0-.31-.13-.46-.39a21.61,21.61,0,0,0-2-2.46q-.27-.26-.27-.36s0-.06.13-.06A1.12,1.12,0,0,1,99.2,35.6Z"/></g></g></svg>