<svg xmlns="http://www.w3.org/2000/svg" viewBox="0 0 173.25 92.11"><defs><style>.cls-1{fill:#231f20;stroke:#7a7d80;stroke-miterlimit:10;}.cls-2{fill:#fff;}</style></defs><g id="Layer_2" data-name="Layer 2"><g id="Layer_1-2" data-name="Layer 1"><rect class="cls-1" x="0.5" y="0.5" width="172.25" height="91.11"/><path class="cls-2" d="M21,57.34H16V53.88H30.15v3.46h-5V72.13H21V57.34Z"/><path class="cls-2" d="M30.28,69.82,32.65,67a7.27,7.27,0,0,0,4.48,1.91c1.72,0,2.56-.68,2.56-1.76s-1-1.52-2.63-2.17l-2.37-1A5.32,5.32,0,0,1,31,59c0-3,2.7-5.44,6.5-5.44a8.45,8.45,0,0,1,5.87,2.39l-2.08,2.6a6,6,0,0,0-3.79-1.43c-1.42,0-2.33.59-2.33,1.64s1.19,1.53,2.79,2.16l2.33.94c2.23.9,3.62,2.38,3.62,5,0,3-2.53,5.66-6.88,5.66A10.1,10.1,0,0,1,30.28,69.82Z"/><path class="cls-2" d="M46.08,63.67V53.88h4.13V64.09c0,3.57,1.13,4.81,3.17,4.81s3.23-1.24,3.23-4.81V53.88h4v9.79c0,6.13-2.49,8.79-7.21,8.79S46.08,69.8,46.08,63.67Z"/><path class="cls-2" d="M64,53.88H68.1v7.46h.1l5.44-7.46h4.53l-5.52,7.28,6.54,11H74.67l-4.44-7.71L68.1,67.24v4.89H64V53.88Z"/><path class="cls-2" d="M80.32,53.88h4.13V72.13H80.32Z"/><path class="cls-2" d="M87.9,53.88h5.16c5.57,0,9.16,2.77,9.16,9s-3.59,9.2-8.93,9.2H87.9V53.88ZM92.81,68.8c3.1,0,5.19-1.52,5.19-5.88s-2.09-5.72-5.19-5.72H92V68.81h.78Z"/><path class="cls-2" d="M108,53.88h4.94l5.73,18.25h-4.37l-2.39-9.24c-.51-1.82-1-4-1.48-5.89h-.11c-.44,1.93-.93,4.06-1.44,5.89l-2.4,9.24h-4.22ZM106,64.57h8.78v3.21H106Z"/><path class="cls-2" d="M118.59,69.82,121,67a7.27,7.27,0,0,0,4.48,1.91c1.72,0,2.56-.68,2.56-1.76s-1-1.52-2.63-2.17L123,64a5.32,5.32,0,0,1-3.68-5c0-3,2.7-5.44,6.5-5.44a8.45,8.45,0,0,1,5.87,2.39l-2.08,2.6a6,6,0,0,0-3.79-1.43c-1.42,0-2.33.59-2.33,1.64s1.19,1.53,2.79,2.16l2.33.94c2.23.9,3.62,2.38,3.62,5,0,3-2.53,5.66-6.88,5.66A10.1,10.1,0,0,1,118.59,69.82Z"/><path class="cls-2" d="M134.5,53.88h4.13v7h6.3v-7h4.13V72.13h-4.13V64.51h-6.3v7.62H134.5Z"/><path class="cls-2" d="M152.53,53.88h4.13V72.13h-4.13Z"/><path class="cls-2" d="M55.26,27.55c.5.3.76.55.76.75a.69.69,0,0,1-.19.36,6.52,6.52,0,0,0-.4,1.09,22.86,22.86,0,0,1-1.26,3.63,10.17,10.17,0,0,1-2.43,3,8.24,8.24,0,0,1-3.42,1.71,7.58,7.58,0,0,1-1,.24q-.24,0-.24-.12c0-.08.15-.17.44-.28A18.91,18.91,0,0,0,50.61,36a9.35,9.35,0,0,0,1.78-2,10.93,10.93,0,0,0,1.14-2.44A9.19,9.19,0,0,0,54,29.25a4.63,4.63,0,0,0-.17-1.31,1.7,1.7,0,0,1-.11-.42.49.49,0,0,1,.48-.36A2.44,2.44,0,0,1,55.26,27.55Zm-6.07-5.66c.14,0,.29.18.44.54a3.11,3.11,0,0,1,.16.88,3.87,3.87,0,0,1-.34,1.35,5.33,5.33,0,0,1-.68,1.25.77.77,0,0,1-.43.2.65.65,0,0,1-.48-.28,1,1,0,0,1-.13-.53.94.94,0,0,1,.16-.57A12,12,0,0,0,49,22.18C49,22,49.08,21.89,49.19,21.89Zm10.13,8c.52.33.78.57.78.75s-.26.26-.73.28q-2,0-4.65.3c-1,.09-2.29.27-3.91.53a4.9,4.9,0,0,1-.58.09,2,2,0,0,1-1-.26c-.39-.16-.58-.3-.58-.45s.15-.13.44-.19q4.91-.57,8.06-1.08a10.66,10.66,0,0,1,1.39-.21A4.18,4.18,0,0,1,59.32,29.84Zm2-8.49.83.7q1,.81,1,1.17c0,.36-.26.57-.77.62a13.53,13.53,0,0,0-2.73.89.11.11,0,0,1-.12-.12,8,8,0,0,0,1-2.05c0-.12-.13-.17-.4-.17A57.16,57.16,0,0,0,51,23.62a5.36,5.36,0,0,1-.56.07,1.43,1.43,0,0,1-1-.3c-.28-.22-.42-.38-.42-.5s.09-.18.28-.2H50a68.33,68.33,0,0,0,10.1-1.17,5.26,5.26,0,0,1,.92-.17Zm-7.8,2c.52.34.78.64.78.89,0,.06-.06.12-.19.2a4.25,4.25,0,0,0-.36.42A13.12,13.12,0,0,1,52,26.72a7.47,7.47,0,0,1-1.59,1.06,2.63,2.63,0,0,1-.79.31c-.09,0-.13,0-.13-.07s0-.08.14-.14a12.15,12.15,0,0,0,1.48-1.48,9.87,9.87,0,0,0,1.22-1.79,2.37,2.37,0,0,0,.35-1.15q0-.36.24-.36A1.32,1.32,0,0,1,53.5,23.31Zm.74-3.59a4.69,4.69,0,0,1,1.33.65A1.58,1.58,0,0,1,56,21.5c0,.55-.23.82-.68.82a.67.67,0,0,1-.47-.27A10.45,10.45,0,0,1,53.47,20a.58.58,0,0,1-.11-.24c0-.13.1-.19.21-.19A1.74,1.74,0,0,1,54.24,19.72Zm.56,11.34a24.57,24.57,0,0,0,4.05,3.56,25,25,0,0,0,4.8,2.25c.44.13.67.25.67.35s-.17.17-.5.25a10.54,10.54,0,0,1-3,.42,1.88,1.88,0,0,1-1.48-.47,45,45,0,0,1-4.68-5.58,1.67,1.67,0,0,1-.34-.74c0-.17.06-.26.19-.26S54.62,30.91,54.8,31.06ZM57,22.82c.31.13.46.3.46.5,0,0,0,.05-.07.11a1.26,1.26,0,0,0-.18.55,5.51,5.51,0,0,0-.14.91c0,.54.7.82,2.09.82a4.38,4.38,0,0,0,.59-.07,5.39,5.39,0,0,1,.79-.1,1.53,1.53,0,0,1,.45.17.62.62,0,0,1,.21.47.38.38,0,0,1-.31.37,2.94,2.94,0,0,1-1.3.23,8.54,8.54,0,0,1-2-.21c-1-.23-1.57-.73-1.57-1.5a1.66,1.66,0,0,0,0-.46v-.52a4.07,4.07,0,0,0-.06-.77c0-.2,0-.37,0-.5s.1-.21.3-.23A1.41,1.41,0,0,1,57,22.82Zm2.78,5.06a6,6,0,0,1,1.6.61,1.31,1.31,0,0,1,.47,1.06c0,.46-.19.68-.56.68A1,1,0,0,1,60.7,30,10.4,10.4,0,0,1,59,28.11c-.1-.1-.14-.17-.14-.22s.08-.16.17-.16A2.92,2.92,0,0,1,59.8,27.88Z"/><path class="cls-2" d="M73.06,32.23q-1.35.69-1.35,1.44c0,.79.62,1.37,1.87,1.74a10.35,10.35,0,0,0,2.77.34,4.56,4.56,0,0,1,2.34.37,1.41,1.41,0,0,1,.37.67c0,.57-.72.88-2,.92a11.17,11.17,0,0,1-3-.58,6,6,0,0,1-2.17-1.4A2.56,2.56,0,0,1,71,34.1,1.51,1.51,0,0,1,71.39,33,4,4,0,0,1,73.06,32.23Zm1.1-12.08c.77,0,1.19.3,1.25.9a9.15,9.15,0,0,0,.6,2.13,1.54,1.54,0,0,0,.09.24,7.51,7.51,0,0,1,1.8-.88c.5,0,.78.14.84.41s-.47.59-1.22,1c-.36.21-.66.38-.9.49.17.32.63,1.07,1.38,2.26a2.16,2.16,0,0,0,.21.37A6.29,6.29,0,0,1,80,26.22c.39,0,.59.14.62.41s-.62.74-1.72,1.44c.06.09.55.72,1.48,1.89a7.63,7.63,0,0,1,1.22,1.76.86.86,0,0,1-.82.92,2.34,2.34,0,0,1-.88-.37,16.42,16.42,0,0,0-2.64-.73c1.38-.19,2.06-.39,2.06-.62a5.06,5.06,0,0,0-.69-1l-.84-1.16a14.36,14.36,0,0,1-1.48.69,6.07,6.07,0,0,1-1.53.37c-1-.07-1.55-.24-1.55-.49a13.83,13.83,0,0,0,3.89-1.59A27.71,27.71,0,0,1,75.5,25a.43.43,0,0,1-.21.09,9.36,9.36,0,0,1-2,.47c-1.1-.06-1.65-.24-1.65-.56A16.72,16.72,0,0,0,75,24c-.26-.52-.51-1-.75-1.57a4,4,0,0,0-.92-1.35c-.29-.16-.43-.29-.43-.39Q72.87,20.15,74.16,20.15Z"/><path class="cls-2" d="M93,32.22c.37.25.55.46.55.64a10.83,10.83,0,0,1-.38,1.49,6.22,6.22,0,0,0-.42,1.49c0,.11.09.17.26.17s.38,0,.86-.07q2.64-.31,5.8-.59c1.79-.14,3-.21,3.64-.21q.54,0,.54.3c0,.22-.28.36-.83.44a73.18,73.18,0,0,0-8.26,1.24,10.83,10.83,0,0,0-2.31.73,1.77,1.77,0,0,1-.65.22c-.13,0-.31-.16-.56-.49a2,2,0,0,1-.45-1,1.63,1.63,0,0,1,.35-.69,4.66,4.66,0,0,0,.77-2.5,2.52,2.52,0,0,0-.14-.93,2.12,2.12,0,0,1-.14-.48q0-.3.33-.3A1.89,1.89,0,0,1,93,32.22Zm.39-7.86c.34.23.51.43.51.59a12.74,12.74,0,0,1-.33,1.61,8.22,8.22,0,0,0-.36,1.61c0,.1.08.16.24.16l.77-.08c1.57-.24,3.3-.47,5.18-.69,1.6-.16,2.68-.25,3.25-.25.34,0,.51.09.51.28s-.25.37-.75.44a59.68,59.68,0,0,0-7.43,1.25,9.23,9.23,0,0,0-2.08.73,1.52,1.52,0,0,1-.58.22c-.12,0-.29-.15-.52-.45a1.83,1.83,0,0,1-.42-.91,1.73,1.73,0,0,1,.31-.73,5.88,5.88,0,0,0,.68-2.68,2.19,2.19,0,0,0-.13-.86,1.61,1.61,0,0,1-.13-.45c0-.18.1-.28.31-.28A1.77,1.77,0,0,1,93.34,24.36Zm4.84-3.91c.45.2.67.47.67.82a4.15,4.15,0,0,1-.24.65,29.54,29.54,0,0,0-.36,3.32l-.19,10.67H96.8l0-10.93a23.7,23.7,0,0,0-.18-2.81A2.59,2.59,0,0,0,96.37,21a1.61,1.61,0,0,1-.2-.48c0-.34.18-.51.55-.51A3,3,0,0,1,98.18,20.45ZM102.84,23l.61.28q.72.41.72.72a.87.87,0,0,1-.12.3,5.54,5.54,0,0,0-.29,1.72c-.13,1-.26,1.85-.39,2.42a1.85,1.85,0,0,1-.32.91.67.67,0,0,1-.44.26c-.11,0-.24-.13-.38-.38a1.64,1.64,0,0,1-.14-.44c0-.05,0-.46.13-1.23a32.47,32.47,0,0,0,.13-3.28,1.82,1.82,0,0,0-.18-.62.84.84,0,0,1-.18-.34s.08-.14.23-.26l.23-.08Zm.79,8.21c.42.17.65.37.67.59L104,37a2,2,0,0,1-.26.89c-.1.27-.23.41-.4.41s-.32-.2-.51-.61a1.62,1.62,0,0,1-.26-.72,4,4,0,0,1,.06-.49q0-.6,0-1.14c0-.79,0-1.6-.07-2.42a8.37,8.37,0,0,0-.16-1.25,1.57,1.57,0,0,1,0-.28q0-.39.3-.39A4.16,4.16,0,0,1,103.63,31.22Z"/><path class="cls-2" d="M115.44,21.53a3.08,3.08,0,0,1,1.18.39c.57.4.88.73.92,1a1.07,1.07,0,0,1-.24.49,15.25,15.25,0,0,0-.49,3.44c-.23,2.18-.34,3.8-.34,4.88a3.93,3.93,0,0,0,.82,2.73,3.14,3.14,0,0,0,2,.92,9.15,9.15,0,0,0,3.46-.64,15.76,15.76,0,0,0,3.07-1.7,10,10,0,0,1-3.27,2.88,7.07,7.07,0,0,1-3.16.86,4.6,4.6,0,0,1-2.3-.69,4,4,0,0,1-1.48-1.48,6.33,6.33,0,0,1-.62-3.05c0-.73.09-2.15.28-4.25.14-1.63.21-2.95.21-3.95a2.14,2.14,0,0,0-.24-1.07,1,1,0,0,1-.26-.47C115,21.61,115.15,21.53,115.44,21.53Z"/></g></g></svg>