<svg xmlns="http://www.w3.org/2000/svg" viewBox="0 0 172.93 91.95"><defs><style>.cls-1{fill:#231f20;stroke:#7a7d80;stroke-miterlimit:10;}.cls-2{fill:#fff;}</style></defs><g id="Layer_2" data-name="Layer 2"><g id="Layer_1-2" data-name="Layer 1"><rect class="cls-1" x="0.5" y="0.5" width="171.93" height="90.95"/><path class="cls-2" d="M34.61,53.79h4.23l1.26,8.52c.24,1.92.5,3.85.74,5.77H41c.36-1.92.72-3.87,1.09-5.77l2-8.52h3.5l2,8.52c.37,1.85.73,3.82,1.1,5.77h.11c.24-2,.49-3.89.73-5.77l1.26-8.52H56.6L53.36,72H48.17l-1.79-8.29c-.29-1.41-.53-2.87-.73-4.24h-.11c-.22,1.36-.45,2.83-.74,4.24L43.07,72H38Z"/><path class="cls-2" d="M61.71,53.79h4.94L72.38,72H68L65.62,62.8c-.51-1.83-1-4-1.48-5.89H64c-.44,1.93-.93,4.06-1.44,5.89L60.19,72H56Zm-2,10.7h8.78V67.7H59.76Z"/><path class="cls-2" d="M72.37,63c0-6.05,4-9.57,8.89-9.57A7.91,7.91,0,0,1,87,55.82l-2.17,2.65A4.75,4.75,0,0,0,81.4,57c-2.81,0-4.8,2.21-4.8,5.87s1.7,5.93,5.13,5.93a3.29,3.29,0,0,0,1.93-.54V65.13h-3V61.76h6.69v8.41a8.82,8.82,0,0,1-6,2.21C76.28,72.38,72.37,69.17,72.37,63Z"/><path class="cls-2" d="M93.39,65.53l-5.5-11.74H92.3L93.93,58c.49,1.37,1,2.63,1.49,4h.11c.52-1.41,1-2.68,1.54-4l1.63-4.19H103l-5.5,11.74V72H93.38V65.53Z"/><path class="cls-2" d="M103.74,63.59V53.8h4.13V64c0,3.57,1.13,4.81,3.17,4.81s3.23-1.24,3.23-4.81V53.8h4v9.79c0,6.13-2.49,8.79-7.21,8.79S103.74,69.71,103.74,63.59Z"/><path class="cls-2" d="M130.11,64.26h-4.93V61.35h4.93V56.19h3v5.16h4.93v2.91h-4.93v5.16h-3Z"/><path class="cls-2" d="M62,27.47a1.63,1.63,0,0,1,.21.62,1.2,1.2,0,0,1-.22.61,16.38,16.38,0,0,1-3.05,3.88,9.09,9.09,0,0,1-2.33,1.63,2.1,2.1,0,0,1-.94.31c-.13,0-.19,0-.19-.13a16.41,16.41,0,0,0,3.17-2.89,16.67,16.67,0,0,0,2.75-4.31c.08-.15.15-.23.21-.23S61.83,27.14,62,27.47Zm2.55-1.19a2.21,2.21,0,0,1,.88.23c.25.17.38.34.38.53s-.16.17-.48.19a49.62,49.62,0,0,0-6.91,1.12,6.52,6.52,0,0,1-1.1.23,3.18,3.18,0,0,1-1.1-.33c-.37-.22-.55-.41-.55-.58s.14-.14.42-.16q2.17-.23,7.07-1C63.93,26.35,64.39,26.28,64.52,26.28Zm.18-5.09c.42.28.63.5.63.67s-.2.37-.6.49A26.15,26.15,0,0,0,61,23.49a8.62,8.62,0,0,1-2.39.55c-.36,0-.54-.06-.54-.17s.15-.14.44-.24a18.13,18.13,0,0,0,2.65-1.31,11,11,0,0,0,2.11-1.58,1,1,0,0,1,.34-.13A2,2,0,0,1,64.7,21.19Zm-3.18,1.74.87.5c.44.27.66.55.66.82a.87.87,0,0,1-.09.29,8.54,8.54,0,0,0-.28,1.74c-.19,2-.28,3.55-.28,4.51l0,5.78A2.69,2.69,0,0,1,62,37.78c-.16.36-.33.54-.52.54s-.24-.2-.45-.58a4,4,0,0,1-.42-1.42,3.29,3.29,0,0,1,.14-.79,12.45,12.45,0,0,0,.38-2.36,46.84,46.84,0,0,0,.31-5.89,14.1,14.1,0,0,0-.17-2.7,2.51,2.51,0,0,0-.28-.91c-.06-.12-.12-.24-.16-.34a.35.35,0,0,1,.4-.4Zm1.21,6.33a13.39,13.39,0,0,1,1.31.43,3.53,3.53,0,0,1,1.11.67,1,1,0,0,1,.2.59,1.5,1.5,0,0,1-.13.58.45.45,0,0,1-.39.24.69.69,0,0,1-.33-.15,3.85,3.85,0,0,1-.93-.87,11.55,11.55,0,0,0-1.11-1.12c-.2-.14-.3-.24-.3-.31s0-.13.1-.13Zm4.32-2.55.34.13c.5.17.74.38.74.62a8,8,0,0,0,.07,1.08,45.11,45.11,0,0,1,.43,4.76,1.28,1.28,0,0,1-.11.57c-.07.15-.16.23-.26.23s-.23-.09-.34-.28a1.42,1.42,0,0,1-.28-.77l-.26-2.16a18.12,18.12,0,0,0-.32-2.36,2.77,2.77,0,0,0-.56-1.28c-.11-.1-.17-.18-.17-.22,0-.22.09-.33.28-.33Zm5.8-.85.66.42c.55.38.82.66.82.85a.83.83,0,0,1-.22.44,2.82,2.82,0,0,0-.5,1.1,32.65,32.65,0,0,0-.81,3.39,1,1,0,0,1-.59.48,2.92,2.92,0,0,1-.61.1.52.52,0,0,1-.24-.1,1.78,1.78,0,0,1-.09-.21,1.91,1.91,0,0,1,.09-.37,23.81,23.81,0,0,0,.49-2.55,14.06,14.06,0,0,0,.22-2c0-.26-.25-.38-.75-.38a10.71,10.71,0,0,0-1.68.35c-1.25.32-1.89.47-2,.47a.88.88,0,0,1-.61-.22c-.17-.13-.26-.25-.26-.34s.1-.19.29-.2h.29a19.35,19.35,0,0,0,2.33-.37A23,23,0,0,0,71.94,26a2,2,0,0,1,.59-.17ZM72,32l.59.29c.31.21.46.38.46.52s-.06.15-.18.15a7.86,7.86,0,0,0-1.34.1l-1.89.22a5.87,5.87,0,0,1-.79.07,1.06,1.06,0,0,1-.74-.2.57.57,0,0,1-.2-.37c0-.17.1-.25.31-.25a16.58,16.58,0,0,0,2.59-.39,6.8,6.8,0,0,1,.89-.13Z"/><path class="cls-2" d="M95.28,29.24c.58.32.87.61.87.86s-.4.34-1.2.34c-1.09,0-2.27,0-3.53,0s-3,.08-5.17.24a30.22,30.22,0,0,0-4.89.69,5.84,5.84,0,0,1-.9.18,3.24,3.24,0,0,1-1.17-.34c-.55-.24-.83-.44-.83-.59s.18-.29.54-.32A26.82,26.82,0,0,0,83.24,30q2.55-.3,5.61-.47A42.89,42.89,0,0,0,93.29,29a7.71,7.71,0,0,1,.81-.11C94.19,28.86,94.59,29,95.28,29.24ZM83.89,22.31c.57.37.86.7.86,1q0,.12-.18.27a5.7,5.7,0,0,0-.33.58,16.48,16.48,0,0,1-1.61,2.64,7.64,7.64,0,0,1-1.47,1.48,1.78,1.78,0,0,1-.74.43c-.1,0-.15,0-.15-.07s0-.11.12-.19a15.18,15.18,0,0,0,1.25-2,17.09,17.09,0,0,0,1-2.41A4.53,4.53,0,0,0,83,22.46c0-.27.09-.4.27-.4A1.63,1.63,0,0,1,83.89,22.31Zm8.22,2c.28.12.43.28.43.46s-.19.24-.57.32a24.45,24.45,0,0,1-2.94.53c-2.3.29-3.8.44-4.5.44a2.9,2.9,0,0,1-1.32-.21c-.25-.17-.37-.32-.37-.45s.28-.18.83-.2c1.3-.11,2.74-.3,4.3-.56a23,23,0,0,0,2.64-.54,1.83,1.83,0,0,1,.47-.11A2.23,2.23,0,0,1,92.11,24.28ZM87,19.58l.75.28c.47.22.71.46.71.72,0,0,0,.24-.14.6a12.9,12.9,0,0,0-.21,2.23L88,33.08a36.65,36.65,0,0,1-.33,4.83c-.19.78-.35,1.18-.49,1.18s-.31-.28-.4-.84c0-1.1-.05-2.56-.05-4.37v-12a5.62,5.62,0,0,0-.19-1.62,1.94,1.94,0,0,1-.09-.38.31.31,0,0,1,.31-.33Z"/><path class="cls-2" d="M113.56,21.81v6.81h4v.84h-4v6.7h-.86v-6.7h-4v-.84h4V21.81Z"/></g></g></svg>