<svg xmlns="http://www.w3.org/2000/svg" viewBox="0 0 171.93 90.95"><defs><style>.cls-1{fill:#cd362c;}.cls-2{fill:#fff;}</style></defs><g id="Layer_2" data-name="Layer 2"><g id="Layer_1-2" data-name="Layer 1"><rect class="cls-1" width="171.93" height="90.95"/><path class="cls-2" d="M34.71,53.29h5.16c5.57,0,9.16,2.77,9.16,9.05s-3.59,9.2-8.93,9.2H34.71Zm4.91,14.93c3.1,0,5.19-1.52,5.19-5.88s-2.09-5.72-5.19-5.72h-.78V68.23h.78Z"/><path class="cls-2" d="M51.65,53.29H63.08v3.46H55.77v3.66H62v3.46H55.77v4.2h7.59v3.46H51.65Z"/><path class="cls-2" d="M65,69.24l2.37-2.83a7.27,7.27,0,0,0,4.48,1.91c1.72,0,2.56-.68,2.56-1.76s-1-1.52-2.63-2.17l-2.37-1a5.32,5.32,0,0,1-3.68-5c0-3,2.7-5.44,6.5-5.44a8.45,8.45,0,0,1,5.87,2.39L76,58a6,6,0,0,0-3.79-1.43c-1.42,0-2.33.59-2.33,1.64s1.19,1.53,2.79,2.16l2.33.94c2.23.9,3.62,2.39,3.62,5,0,3-2.53,5.66-6.88,5.66A10.1,10.1,0,0,1,65,69.24Z"/><path class="cls-2" d="M79.2,69.24l2.37-2.83a7.27,7.27,0,0,0,4.48,1.91c1.72,0,2.56-.68,2.56-1.76S87.57,65,86,64.39l-2.37-1a5.32,5.32,0,0,1-3.68-5c0-3,2.7-5.44,6.5-5.44a8.45,8.45,0,0,1,5.87,2.39L90.22,58a6,6,0,0,0-3.79-1.43c-1.42,0-2.33.59-2.33,1.64s1.19,1.53,2.79,2.16l2.33.94c2.23.9,3.62,2.39,3.62,5,0,3-2.53,5.66-6.88,5.66A10.1,10.1,0,0,1,79.2,69.24Z"/><path class="cls-2" d="M95.11,53.29h11.43v3.46H99.23v3.66h6.22v3.46H99.23v4.2h7.59v3.46H95.11V53.29Z"/><path class="cls-2" d="M109.61,53.29h6.57c3.87,0,7,1.34,7,5.68s-3.17,6-7,6h-2.45v6.57H109.6V53.29Zm6.24,8.41c2.17,0,3.34-.93,3.34-2.72s-1.17-2.41-3.34-2.41h-2.11V61.7Zm-.42,2.19,2.85-2.64,5.82,10.29h-4.62Z"/><path class="cls-2" d="M129,56.75h-5V53.29h14.17v3.46h-5V71.54H129V56.75Z"/><path class="cls-2" d="M58.55,27.3c-.9,0-2.19.09-3.87.26a.5.5,0,0,0,.24.19.73.73,0,0,1,.41.6,17.06,17.06,0,0,0-.75,1.83,15.28,15.28,0,0,1-1.12,2.9,8.5,8.5,0,0,1-1.74,2.3,7.43,7.43,0,0,1-3,1.65,8.6,8.6,0,0,0,2.54-2.69,16.39,16.39,0,0,0,1.44-3.42,14.24,14.24,0,0,0,.64-3.05.34.34,0,0,1,0-.15,29.64,29.64,0,0,0-3.46.6,23.92,23.92,0,0,1-2.49.54,2.18,2.18,0,0,1-1.48-.58,1.11,1.11,0,0,1-.58-.88c0-.27.09-.41.26-.41a12.43,12.43,0,0,1,1.8.19l6.19-.9c3.57-.54,5.55-.82,6-.82a3.22,3.22,0,0,1,1.72.45,1.78,1.78,0,0,1,.67.79c0,.42-.24.63-.62.64a8.07,8.07,0,0,0-1.14-.06H58.55Zm-2.43-6.18c1,0,1.5.19,1.59.58a.83.83,0,0,1-.26.47,2.5,2.5,0,0,1-1.05.37c-.42.07-1.39.31-2.92.71a13.46,13.46,0,0,1-2.66.54,2.33,2.33,0,0,1-1.16-.52c-.32-.16-.47-.29-.47-.41s.09-.39.26-.39a21.59,21.59,0,0,0,3.85-.73A17.13,17.13,0,0,1,56.12,21.12Zm3-.26a6.08,6.08,0,0,1,2.21.49,1.3,1.3,0,0,1,.64,1c0,.34-.19.54-.62.58a1.42,1.42,0,0,1-.62-.32A9.75,9.75,0,0,1,59.13,20.86Zm2-1.81a6.77,6.77,0,0,1,2.23.47,1.34,1.34,0,0,1,.64,1c0,.34-.21.54-.6.58a1.32,1.32,0,0,1-.67-.3A10.58,10.58,0,0,1,61.17,19.05Z"/><path class="cls-2" d="M77.16,21a3.85,3.85,0,0,1,1.46.43c.42.26.62.52.62.77,0,.07-.09.21-.19.41a6.28,6.28,0,0,0-.17,2v.45c0,.21,0,.37,0,.47L80,25.3A11.48,11.48,0,0,1,82.15,25a2.91,2.91,0,0,1,1.22.45c.44.3.67.57.67.82s-.84.37-2.38.45l-2.88.11a19,19,0,0,1-1.42,6.12,7.29,7.29,0,0,1-4.25,4.36,11,11,0,0,0,2.75-3.87A19,19,0,0,0,77.21,27a44,44,0,0,0-4.62.9c.06.63.12,1.56.19,2.79a2,2,0,0,1-.26,1.1.5.5,0,0,1-.39.21c-.26,0-.53-.24-.82-.71a1.94,1.94,0,0,1-.32-1,.87.87,0,0,1,.13-.41,3.06,3.06,0,0,0,.13-1.12c0-.11,0-.29,0-.54l-.26.11a11.24,11.24,0,0,1-2.3.54,2.51,2.51,0,0,1-1.25-.39c-.44-.26-.67-.51-.67-.75s.18-.28.54-.28A21.8,21.8,0,0,0,71.18,27a9.36,9.36,0,0,0-.58-3.16,2.1,2.1,0,0,1-.3-.6c0-.2.11-.3.34-.3a2.89,2.89,0,0,1,1.12.3c.46.29.71.57.75.86a.61.61,0,0,0-.24.56c0,.37.06,1.05.17,2v.06l.58-.11c1.59-.29,3-.57,4.23-.86.07-1,.1-1.86.09-2.45A3.18,3.18,0,0,0,76.93,22a2,2,0,0,1-.26-.56C76.69,21.17,76.84,21,77.16,21Zm3.22-.09a6.08,6.08,0,0,1,2.21.49,1.3,1.3,0,0,1,.64,1c0,.34-.19.54-.62.58a1.42,1.42,0,0,1-.62-.32A9.76,9.76,0,0,1,80.38,20.94Zm2-1.89a5.9,5.9,0,0,1,2.21.52,1.41,1.41,0,0,1,.67,1c0,.34-.21.54-.6.58a1.3,1.3,0,0,1-.67-.32A10.93,10.93,0,0,1,82.42,19.05Z"/><path class="cls-2" d="M105.63,28.68c0,.6-.29.9-.86.9a13.12,13.12,0,0,1-1.76-.15c-.57-.07-1.15-.15-1.72-.24a27.27,27.27,0,0,0-3.2-.24c-2.19,0-3.77,0-4.73.06a9.24,9.24,0,0,0-2.3.3,5,5,0,0,1-1.48.26,3.06,3.06,0,0,1-1.53-.49c-.62-.37-.92-.76-.92-1.16,0-.19.14-.28.43-.28a3.77,3.77,0,0,1,1,.19,6.63,6.63,0,0,0,1.74.15q2.09,0,6.25-.17t6.27-.17C104.71,27.65,105.63,28,105.63,28.68Z"/><path class="cls-2" d="M115.33,20.51a2.7,2.7,0,0,1,1.4.54,1.56,1.56,0,0,1,.82,1,.64.64,0,0,1-.19.43,3.28,3.28,0,0,0-.26,1.7V26a11.23,11.23,0,0,1,4.55,1.78c.86.66,1.3,1.26,1.33,1.8s-.21.69-.69.69-1.33-.59-2.62-1.78a10.62,10.62,0,0,0-2.58-1.89v5.63a8.71,8.71,0,0,0,.11,1.8,7.91,7.91,0,0,1,.09,1.18,3.73,3.73,0,0,1-.37,1.35c-.19.34-.37.54-.54.58-.33-.07-.61-.43-.84-1.07a4.09,4.09,0,0,1-.28-1.4,7.7,7.7,0,0,1,.17-1.33c.11-.66.18-1.11.19-1.35.13-1.79.19-3,.19-3.67,0-1.55-.06-3.28-.19-5.2a3.7,3.7,0,0,0-.34-1.4,2.79,2.79,0,0,1-.28-.86A.29.29,0,0,1,115.33,20.51Z"/></g></g></svg>