<svg xmlns="http://www.w3.org/2000/svg" viewBox="0 0 171.93 90.95"><defs><style>.cls-1{fill:#cd362c;}.cls-2{fill:#fff;}</style></defs><g id="Layer_2" data-name="Layer 2"><g id="Layer_1-2" data-name="Layer 1"><rect class="cls-1" width="171.93" height="90.95"/><path class="cls-2" d="M56.45,53.29h4.23l4.76,9.08,1.8,4h.11c-.19-1.93-.53-4.49-.53-6.64V53.29h3.93V71.54H66.52l-4.76-9.1-1.81-4h-.11c.19,2,.53,4.46.53,6.61v6.48H56.44V53.29Z"/><path class="cls-2" d="M77.62,53.29h4.94l5.73,18.25H83.92L81.53,62.3c-.51-1.82-1-4-1.48-5.89h-.11c-.44,1.93-.93,4.06-1.44,5.89l-2.4,9.24H71.88Zm-2,10.7h8.78V67.2H75.67Z"/><path class="cls-2" d="M89.21,53.29h6.25c3.79,0,6.73,1,6.73,4.53a4.23,4.23,0,0,1-2.4,3.94v.11a4.16,4.16,0,0,1,3.3,4.3c0,3.71-3.14,5.38-7.11,5.38H89.21V53.29Zm6.05,7.31c2,0,2.89-.85,2.89-2.17s-.93-2-2.86-2h-2v4.13h1.93Zm.38,7.76c2.25,0,3.41-.8,3.41-2.46s-1.14-2.25-3.41-2.25h-2.3v4.71Z"/><path class="cls-2" d="M105.31,53.29h11.43v3.46h-7.31v3.66h6.22v3.46h-6.22v4.2H117v3.46H105.31Z"/><path class="cls-2" d="M82.15,20.06c.56.43.84.76.84,1a.74.74,0,0,1-.14.37l-.45,1c-.35.77-.86,1.77-1.54,3a14.38,14.38,0,0,1-2.64,3.32c-1,.85-1.62,1.28-2,1.28-.12,0-.18,0-.18-.1s.05-.12.16-.22A17.86,17.86,0,0,0,79,26.07a19.42,19.42,0,0,0,1.93-3.8,5,5,0,0,0,.32-1.89c0-.35.11-.53.32-.53A1.41,1.41,0,0,1,82.15,20.06Zm-4.8,14.73.46.05.55,0a6.36,6.36,0,0,0,1-.13c2.16-.6,3.68-1.06,4.54-1.4a1.78,1.78,0,0,1,.47-.13c.37,0,.56.09.56.28s-.18.35-.53.47c-2.5.94-3.75,1.43-3.75,1.45a12.66,12.66,0,0,0-1.42.66,1.11,1.11,0,0,1-.57.28,1.73,1.73,0,0,1-1-.51c-.45-.42-.67-.7-.67-.84S77.14,34.79,77.35,34.79ZM79,31.56a3.71,3.71,0,0,1,1.08.47,1.07,1.07,0,0,1,.32.81c0,.46-.19.68-.56.68a.57.57,0,0,1-.38-.2,8.65,8.65,0,0,1-1.08-1.52.36.36,0,0,1-.09-.18c0-.11.08-.16.17-.16A1.25,1.25,0,0,1,79,31.56Zm5-2.92c.38.14.57.25.57.35s-.23.28-.69.38-.79.12-1.09.18l-2,.44a7.31,7.31,0,0,1-1.29.18,2.63,2.63,0,0,1-.74-.09c-.3-.1-.44-.21-.44-.33s.23-.28.69-.3a32.49,32.49,0,0,0,3.6-.83l.57-.13A4.67,4.67,0,0,1,84,28.64Zm-.36-2.45c.22.1.33.21.33.36s-.08.15-.24.2a7.42,7.42,0,0,1-1.23.32,13.25,13.25,0,0,1-1.88.27,2.23,2.23,0,0,1-1-.16c-.19-.13-.29-.25-.29-.35s.12-.11.35-.12a16.6,16.6,0,0,0,1.83-.35A7.86,7.86,0,0,0,82.64,26a.57.57,0,0,1,.2-.07A1.68,1.68,0,0,1,83.66,26.19Zm-1.67,1q.42.21.42.48a1.24,1.24,0,0,1-.06.37,2.92,2.92,0,0,0-.08.65l-.11,5.75h-1l-.22-6.19a1.46,1.46,0,0,0-.21-.64.47.47,0,0,1-.15-.26A.35.35,0,0,1,81,27,2.94,2.94,0,0,1,82,27.22Zm.6-5.25c.47.13.92.28,1.37.45a3.55,3.55,0,0,1,1.16.7,1,1,0,0,1,.21.62,1.47,1.47,0,0,1-.12.54.4.4,0,0,1-.35.22.73.73,0,0,1-.35-.15,4.11,4.11,0,0,1-1-.88,11.65,11.65,0,0,0-1.18-1.13C82.13,22.2,82,22.1,82,22s0-.12.09-.12A3.49,3.49,0,0,1,82.59,22Zm1.06,8.45a1.46,1.46,0,0,1,.68.37c.29.23.44.43.44.62a.37.37,0,0,1-.21.33,5.08,5.08,0,0,0-.84.56,3.4,3.4,0,0,1-1,.69c-.06,0-.09,0-.09-.1s0-.07.07-.09a5.76,5.76,0,0,0,.51-1,8.06,8.06,0,0,0,.37-1.22C83.57,30.48,83.61,30.42,83.65,30.42Zm2.24-2q.45.18.48.42l.13,6.49a1.52,1.52,0,0,1-.18.64c-.07.19-.17.29-.29.29s-.23-.14-.37-.43a1.19,1.19,0,0,1-.18-.51,2.53,2.53,0,0,1,0-.35c0-.29,0-.56,0-.81,0-1.12-.05-2.27-.14-3.43A8.86,8.86,0,0,0,85.08,29a1.21,1.21,0,0,1-.07-.4c0-.19.07-.28.21-.28A2.45,2.45,0,0,1,85.89,28.43Zm-.29.11.25,0a2.13,2.13,0,0,0,.4.06q.33,0,7.28-.84c.28-.05.58-.11.88-.19a1.87,1.87,0,0,1,.35-.09A5.22,5.22,0,0,1,96,28.2q.54.36.54.66a1.22,1.22,0,0,1-.17.5A6.23,6.23,0,0,0,96,31.1l-.19,2.63A4.7,4.7,0,0,1,95,36.5c-.43.53-.8.79-1.14.79l-.14-2.11c.2,0,.37-.22.53-.65a17.14,17.14,0,0,0,.41-4.42,3.32,3.32,0,0,0-.17-1.26,1.22,1.22,0,0,0-.73-.15c-.53,0-1.51.05-3,.16s-2.66.28-3.67.45a4,4,0,0,1-.6.1,2,2,0,0,1-.89-.24c-.26-.17-.39-.31-.39-.43a.17.17,0,0,1,.19-.19Zm2.11-6.07c.26.13.39.27.39.43a1,1,0,0,1-.06.33,3,3,0,0,0-.08.59L88.3,29h-.93l-.64-5.54a1.41,1.41,0,0,0-.19-.58.42.42,0,0,1-.13-.23c0-.23.12-.35.37-.35A2.84,2.84,0,0,1,87.71,22.47Zm6-.48c.31.18.46.31.46.4a1.2,1.2,0,0,1-.11.48,6.16,6.16,0,0,0-.18.83c-.31,1.82-.6,3.33-.86,4.52a1,1,0,0,1-.63.31c-.09,0-.17-.07-.25-.21a1,1,0,0,1-.11-.45c0-.06,0-.18,0-.38a23.55,23.55,0,0,0,.18-2.37c.06-1,.09-1.79.09-2.41,0-.21-.14-.32-.42-.32a12.91,12.91,0,0,0-1.45.19c-1,.15-1.6.27-2,.34A1.61,1.61,0,0,1,88,23a1,1,0,0,1-.51-.16c-.16-.13-.24-.22-.24-.3s.08-.11.25-.13a27.57,27.57,0,0,0,3-.45l1.7-.39a1.33,1.33,0,0,1,.41-.1A3.28,3.28,0,0,1,93.7,22Zm-5.42,8.86.25.09q.54.19.54.45a3.37,3.37,0,0,0,0,.44,15.8,15.8,0,0,1,.21,2,.93.93,0,0,1-.08.41c0,.11-.12.17-.19.17s-.17-.07-.25-.2a1,1,0,0,1-.2-.56l-.17-.9a4.24,4.24,0,0,0-.21-1,1.12,1.12,0,0,0-.36-.54.28.28,0,0,1-.11-.09c0-.16.07-.24.2-.24Zm3.4-.67.72.35c.22.13.33.27.33.43a.57.57,0,0,1-.17.37,2.73,2.73,0,0,0-.35.78l-.31,1a.45.45,0,0,1-.44.27c-.29,0-.44-.06-.44-.19s0-.13,0-.27c0-.36.06-.67.07-.94s0-.53,0-.71-.07-.16-.2-.16a4.37,4.37,0,0,0-.71.08,9.09,9.09,0,0,1-1.16.15.64.64,0,0,1-.43-.19c-.17-.1-.26-.17-.26-.21s.07-.13.21-.13a8.58,8.58,0,0,0,1.35-.19A5,5,0,0,0,91,30.3a.83.83,0,0,1,.33-.12Zm-.25,2.72.5.24c.26.18.39.32.39.44s0,.08-.12.08a7.57,7.57,0,0,0-.87.05l-1.22.12a4,4,0,0,1-.51,0A.9.9,0,0,1,89,33.7a.48.48,0,0,1-.17-.32q0-.21.27-.21a12.22,12.22,0,0,0,1.57-.2c.27,0,.45-.07.54-.07Zm-1.27-8c.23.12.35.25.35.39a1.17,1.17,0,0,1-.05.3,2.34,2.34,0,0,0-.07.53V28.7h-.83l-.28-2.9a1.36,1.36,0,0,0-.17-.53.38.38,0,0,1-.12-.21.29.29,0,0,1,.33-.32A2.4,2.4,0,0,1,90.16,24.94ZM92,24.65l.5.24c.26.18.39.32.39.44a.11.11,0,0,1-.12.12,4.28,4.28,0,0,0-.84.08l-1.19.19a3,3,0,0,1-.5.06.9.9,0,0,1-.63-.17.48.48,0,0,1-.17-.32q0-.21.27-.21a7.09,7.09,0,0,0,1.51-.33,2.76,2.76,0,0,1,.51-.11ZM92.4,35a7.66,7.66,0,0,0,1.33.23l.14,2.11a.66.66,0,0,1-.6-.36,11.12,11.12,0,0,0-1.19-1.65c-.16-.16-.25-.27-.25-.34s0-.15.14-.15A2.53,2.53,0,0,1,92.4,35Z"/></g></g></svg>