<svg xmlns="http://www.w3.org/2000/svg" viewBox="0 0 171.93 90.95"><defs><style>.cls-1{fill:#cd362c;}.cls-2{fill:#fff;}</style></defs><g id="Layer_2" data-name="Layer 2"><g id="Layer_1-2" data-name="Layer 1"><rect class="cls-1" width="171.93" height="90.95"/><path class="cls-2" d="M39.27,62.34c0-6,3.37-9.38,8.29-9.38s8.29,3.44,8.29,9.38-3.37,9.54-8.29,9.54S39.27,68.3,39.27,62.34Zm12.34,0c0-3.66-1.57-5.82-4.06-5.82s-4.06,2.16-4.06,5.82,1.57,6,4.06,6S51.61,66,51.61,62.34Z"/><path class="cls-2" d="M61.23,56.75h-5V53.29H70.38v3.46h-5V71.54H61.23V56.75Z"/><path class="cls-2" d="M72.38,53.29h4.13v7h6.3v-7h4.13V71.54H82.81V63.92h-6.3v7.62H72.38Z"/><path class="cls-2" d="M90.42,53.29h11.43v3.46H94.54v3.66h6.22v3.46H94.54v4.2h7.59v3.46H90.42Z"/><path class="cls-2" d="M104.92,53.29h6.57c3.87,0,7,1.34,7,5.68s-3.17,6-7,6H109v6.57h-4.13V53.29Zm6.24,8.41c2.17,0,3.34-.93,3.34-2.72s-1.17-2.41-3.34-2.41h-2.11V61.7Zm-.42,2.19,2.85-2.64,5.82,10.29h-4.62Z"/><path class="cls-2" d="M119.67,69.24,122,66.41a7.27,7.27,0,0,0,4.48,1.91c1.72,0,2.56-.68,2.56-1.76s-1-1.52-2.63-2.17l-2.37-1a5.32,5.32,0,0,1-3.68-5c0-3,2.7-5.44,6.5-5.44a8.45,8.45,0,0,1,5.87,2.39L130.69,58a6,6,0,0,0-3.79-1.43c-1.42,0-2.33.59-2.33,1.64s1.19,1.53,2.79,2.16l2.33.94c2.23.9,3.62,2.39,3.62,5,0,3-2.53,5.66-6.88,5.66A10.11,10.11,0,0,1,119.67,69.24Z"/><path class="cls-2" d="M67.14,20.34a1.61,1.61,0,0,1,1,.64,2.21,2.21,0,0,1,.64,1c0,.27-.57.69-1.59,1.25A55.69,55.69,0,0,0,61,27.69q8.49-2.39,8.92-2.38a2.28,2.28,0,0,1,1.16.45,2.38,2.38,0,0,1,.73,1c0,.36-.29.54-.88.56a7.79,7.79,0,0,0-4,.84A4.6,4.6,0,0,0,65.29,30a4.9,4.9,0,0,0-.6,2.3,3.16,3.16,0,0,0,.62,2.06,3.3,3.3,0,0,0,2.26.75,2.39,2.39,0,0,1,1.53.58,1.79,1.79,0,0,1,.39.84c0,.46-.35.68-.92.67a5.39,5.39,0,0,1-3.52-1.25,4.19,4.19,0,0,1-1.46-3.35,5.64,5.64,0,0,1,1.29-3.82c.34-.39.69-.81,1.05-1.27a.32.32,0,0,0-.24-.09,13.44,13.44,0,0,0-4.6,1.46c-1.28.59-2,.89-2.06.9a2.05,2.05,0,0,1-.77-.39.62.62,0,0,1-.39-.54c0-.14.26-.33.79-.56a28.86,28.86,0,0,0,4.49-3.31C65.69,22.85,67,21.66,67,21.37S66.9,21,66.78,21a15.26,15.26,0,0,0-2,1A9.52,9.52,0,0,1,62,23.24,2,2,0,0,1,61,22.92c-.34-.17-.52-.35-.52-.54A8.16,8.16,0,0,1,62,22a19.34,19.34,0,0,0,2.43-.67A15,15,0,0,1,67.14,20.34Z"/><path class="cls-2" d="M87.09,22.38a6.11,6.11,0,0,1,4.58,1.78,6.34,6.34,0,0,1,1.76,4.64,5.8,5.8,0,0,1-2,4.53,9.8,9.8,0,0,1-5.33,2.32,12.3,12.3,0,0,0,4.4-3.42,6.1,6.1,0,0,0,1.27-3.67,6.67,6.67,0,0,0-1-3.61,3.54,3.54,0,0,0-3.14-1.72c-.43,0-.85,0-1.25.06A3.92,3.92,0,0,1,87.06,25a11.42,11.42,0,0,1-1,4.13,10.15,10.15,0,0,1-2.34,3.52,3.83,3.83,0,0,1-2.08,1.18c-.57,0-1.09-.56-1.55-1.55a9.49,9.49,0,0,1-1-3.93,4.87,4.87,0,0,1,1-2.71,6.9,6.9,0,0,1,2.9-2.49A10.1,10.1,0,0,1,87.09,22.38Zm-5.31,10c.37,0,1-.63,1.87-1.76a9.69,9.69,0,0,0,2.28-6,2.54,2.54,0,0,0-.3-1.2A7,7,0,0,0,81,26.2a4.59,4.59,0,0,0-1.07,2.66,5.65,5.65,0,0,0,.75,2.62A1.44,1.44,0,0,0,81.78,32.39Z"/><path class="cls-2" d="M103.28,21.37c.57.37.86.7.86,1a.61.61,0,0,1-.27.4,8.37,8.37,0,0,0-.5.85,24.53,24.53,0,0,1-2.4,3.86,11.53,11.53,0,0,1-2.2,2.16,2.78,2.78,0,0,1-1.1.63c-.1,0-.15,0-.15-.07s.07-.16.21-.27A21.58,21.58,0,0,0,100,27.09a20.79,20.79,0,0,0,1.86-3.39,5.34,5.34,0,0,0,.53-2.17c0-.27.09-.4.27-.4A1.78,1.78,0,0,1,103.28,21.37Zm-1.13,5.17a2.39,2.39,0,0,1,.58,1,5.4,5.4,0,0,1-.12.72,32.2,32.2,0,0,0-.14,3.94l-.08,3.39a3.73,3.73,0,0,1-.26,1.17c-.11.36-.23.54-.38.54s-.36-.2-.52-.61a3.73,3.73,0,0,1-.4-1.28c0-.14.1-.45.22-.94a25.21,25.21,0,0,0,.45-6.07,7.4,7.4,0,0,0-.35-2.22c0-.16.11-.23.33-.23S101.81,26.15,102.15,26.54ZM114.22,25c.37.16.55.33.55.49a.71.71,0,0,1-.24.42,3.3,3.3,0,0,0-.59,1.08,11.47,11.47,0,0,1-1.38,2.64,3.9,3.9,0,0,1-1.41,1.31,18.74,18.74,0,0,0,1.08-3,6.89,6.89,0,0,0,.24-1.58c0-.11,0-.17-.13-.17a.53.53,0,0,0-.31.14q-3.82,2-7.28,3.85a1.35,1.35,0,0,1-.73.28,1.92,1.92,0,0,1-.78-.17q-.51-.2-.51-.3c0-.08.07-.15.2-.2a78,78,0,0,0,7.28-3.71q.83-.45,1.89-1.14a1,1,0,0,1,.5-.29A4.69,4.69,0,0,1,114.22,25Zm-8.46.26.44.28c.37.21.55.43.55.66a4.83,4.83,0,0,1-.12.81,40.76,40.76,0,0,0-.19,4.95,2.67,2.67,0,0,0,.48,1.75,2.54,2.54,0,0,0,1.44.77,11.34,11.34,0,0,0,2.28.21,10.73,10.73,0,0,0,2.61-.25,3.09,3.09,0,0,0,2-1.12,2.79,2.79,0,0,0,.39-1.24l.26-1.41c0-.17.09-.25.13-.25s.2.1.25.3l.32,1.34a5.7,5.7,0,0,0,.61,1.34.82.82,0,0,1,.2.47,1.34,1.34,0,0,1-.46.84,6,6,0,0,1-2.34,1.16,12,12,0,0,1-3.26.39,9.12,9.12,0,0,1-3-.41,5.72,5.72,0,0,1-1.7-.87,3.19,3.19,0,0,1-1.05-1.38,5.27,5.27,0,0,1-.2-1.64l0-5.27a3.37,3.37,0,0,0-.13-.73,1.35,1.35,0,0,1-.13-.42c0-.19.08-.28.24-.28Zm3.18-4.72.64.3c.37.2.56.39.56.59a.89.89,0,0,1-.11.33,3.33,3.33,0,0,0-.25,1.67l-.14,4.62a12.53,12.53,0,0,1-.35,3,4.9,4.9,0,0,1-.26.83c-.08.18-.15.27-.23.27s-.2-.17-.26-.5-.07-.78-.09-1.41V25.36c0-.87,0-1.8,0-2.78a11.72,11.72,0,0,0-.09-1.36c0-.23,0-.38,0-.45s.11-.22.32-.22Z"/></g></g></svg>