<svg xmlns="http://www.w3.org/2000/svg" viewBox="0 0 171.93 90.95"><defs><style>.cls-1{fill:#cd362c;}.cls-2{fill:#fff;}</style></defs><g id="Layer_2" data-name="Layer 2"><g id="Layer_1-2" data-name="Layer 1"><rect class="cls-1" width="171.93" height="90.95"/><path class="cls-2" d="M57.15,53.29h6.57c3.87,0,7,1.34,7,5.68s-3.17,6-7,6H61.27v6.57H57.14V53.29Zm6.24,8.41c2.17,0,3.34-.93,3.34-2.72s-1.17-2.41-3.34-2.41H61.28V61.7ZM63,63.89l2.85-2.64,5.82,10.29H67Z"/><path class="cls-2" d="M72.61,62.34c0-6,3.37-9.38,8.29-9.38s8.29,3.44,8.29,9.38-3.37,9.54-8.29,9.54S72.61,68.3,72.61,62.34Zm12.35,0c0-3.66-1.57-5.82-4.06-5.82s-4.06,2.16-4.06,5.82,1.57,6,4.06,6S85,66,85,62.34Z"/><path class="cls-2" d="M91.79,53.29h4.13V68.08h7.2v3.46H91.79Z"/><path class="cls-2" d="M105.45,53.29h4.13V68.08h7.2v3.46H105.45Z"/><path class="cls-2" d="M58.7,25.05a2.85,2.85,0,0,1,.77.17,2,2,0,0,0,.84.17A20.81,20.81,0,0,0,62.78,25c.67-.1,1.59-.28,2.75-.54,1.89-.57,2.91-.86,3.07-.86a3.39,3.39,0,0,1,1.65.69c.66.44,1,.84,1.1,1.18a.6.6,0,0,1-.28.45,2.78,2.78,0,0,0-.69.95,10.46,10.46,0,0,0-.92,2.23,7.4,7.4,0,0,0-.39,1.7.89.89,0,0,0,.17.56.93.93,0,0,1,.34.52c0,.23-.48.37-1.4.43q-6.15.45-6.45,1c-.17.4-.34.62-.52.67-.39,0-.8-.47-1.25-1.42a7.45,7.45,0,0,1-.32-2.66,10.27,10.27,0,0,0-.52-3.27,1.85,1.85,0,0,0-.43-.82.71.71,0,0,1-.37-.54C58.36,25.13,58.47,25.05,58.7,25.05Zm3,6.81c1.16-.23,2.89-.49,5.2-.79a.9.9,0,0,0,.75-.82l.92-4.55c0-.23-.18-.34-.54-.34s-1.37.12-3,.37a22.13,22.13,0,0,0-2.43.45,3.27,3.27,0,0,1-.95.24,2.19,2.19,0,0,1-1.12-.24Z"/><path class="cls-2" d="M95.66,28.68c0,.6-.29.9-.86.9A13.12,13.12,0,0,1,93,29.43c-.57-.07-1.15-.15-1.72-.24a27.27,27.27,0,0,0-3.2-.24c-2.19,0-3.77,0-4.73.06a9.24,9.24,0,0,0-2.3.3,5,5,0,0,1-1.48.26,3.06,3.06,0,0,1-1.53-.49c-.62-.37-.92-.76-.92-1.16,0-.19.14-.28.43-.28a3.77,3.77,0,0,1,1,.19,6.63,6.63,0,0,0,1.74.15q2.09,0,6.25-.17t6.27-.17C94.74,27.65,95.66,28,95.66,28.68Z"/><path class="cls-2" d="M103.31,25a2,2,0,0,1,1,.39,1.58,1.58,0,0,1,.64.73,1.41,1.41,0,0,1-.19.39,6.11,6.11,0,0,0-.39,1.57,11.28,11.28,0,0,1-1.74,4.45,8.76,8.76,0,0,1-3.5,2.94,15.49,15.49,0,0,0,2.75-3.59,16,16,0,0,0,1.33-5.41,1.34,1.34,0,0,0-.19-.69.9.9,0,0,1-.17-.47C102.84,25.06,103,25,103.31,25Zm3.89-3.52a2.12,2.12,0,0,1,1.14.52c.56.39.86.71.9,1a13.5,13.5,0,0,0-.43,2.34q-.18,3-.19,7.8a7.17,7.17,0,0,0,1.89-1,19,19,0,0,0,3.39-2.77,21.88,21.88,0,0,0,2.49-3.61,18.34,18.34,0,0,1-2.23,4.55A23.23,23.23,0,0,1,110.49,34q-2,1.68-2.28,1.65c-.3,0-.63-.29-1-.82a2.53,2.53,0,0,1-.54-1.2.76.76,0,0,1,.21-.54,7.59,7.59,0,0,0,.21-.88q.2-1.64.19-6.72a12.43,12.43,0,0,0-.21-3.09,1,1,0,0,1-.24-.41C106.86,21.62,107,21.44,107.2,21.44Z"/></g></g></svg>