<svg xmlns="http://www.w3.org/2000/svg" viewBox="0 0 172.25 91.11"><defs><style>.cls-1{fill:#cd362c;}.cls-2{fill:#fff;}</style></defs><g id="Layer_2" data-name="Layer 2"><g id="Layer_1-2" data-name="Layer 1"><rect class="cls-1" width="172.25" height="91.11"/><path class="cls-2" d="M49.54,69.32l2.37-2.83a7.27,7.27,0,0,0,4.48,1.91c1.72,0,2.56-.68,2.56-1.76s-1-1.52-2.63-2.17l-2.37-1a5.32,5.32,0,0,1-3.68-5c0-3,2.7-5.44,6.5-5.44a8.45,8.45,0,0,1,5.87,2.39L60.56,58a6,6,0,0,0-3.79-1.43c-1.42,0-2.33.59-2.33,1.64s1.19,1.53,2.79,2.16l2.33.94c2.23.9,3.62,2.39,3.62,5,0,3-2.53,5.66-6.88,5.66A10.1,10.1,0,0,1,49.54,69.32Z"/><path class="cls-2" d="M68.84,53.37h4.94l5.73,18.25H75.14l-2.39-9.24c-.51-1.82-1-4-1.48-5.89h-.11c-.44,1.93-.93,4.06-1.44,5.89l-2.4,9.24H63.1Zm-2,10.7h8.78v3.21H66.89Z"/><path class="cls-2" d="M80.42,53.37h4.13V68.16h7.2v3.46H80.42Z"/><path class="cls-2" d="M97.31,53.37h4.94L108,71.62h-4.37l-2.39-9.24c-.51-1.82-1-4-1.48-5.89h-.11c-.44,1.93-.93,4.06-1.44,5.89l-2.4,9.24H91.57Zm-2,10.7h8.78v3.21H95.36Z"/><path class="cls-2" d="M108.9,53.37h5.16c5.57,0,9.16,2.77,9.16,9.05s-3.59,9.2-8.93,9.2H108.9V53.37Zm4.91,14.93c3.1,0,5.19-1.52,5.19-5.88s-2.09-5.72-5.19-5.72H113V68.31h.78Z"/><path class="cls-2" d="M67.24,21.11a3.85,3.85,0,0,1,1.46.43c.4.26.6.52.6.77l-.17.41a6.28,6.28,0,0,0-.17,2v.45c0,.21,0,.37,0,.47l1.1-.26a11.48,11.48,0,0,1,2.19-.32,2.66,2.66,0,0,1,1.22.45c.44.3.67.57.67.82s-.84.37-2.38.45l-2.88.11A18.72,18.72,0,0,1,67.42,33a7.23,7.23,0,0,1-4.23,4.36A10.72,10.72,0,0,0,66,33.5a19.09,19.09,0,0,0,1.33-6.45,44,44,0,0,0-4.62.9c.06.59.11,1.5.17,2.73,0,.92-.24,1.38-.62,1.38s-.53-.24-.82-.71a1.8,1.8,0,0,1-.34-1,.83.83,0,0,1,.15-.41,3.06,3.06,0,0,0,.13-1.12v-.28c0-.11,0-.2,0-.26l-.28.11a11.57,11.57,0,0,1-2.26.54,2.79,2.79,0,0,1-1.16-.32c-.52-.26-.77-.53-.77-.82s.18-.28.54-.28a21.8,21.8,0,0,0,3.89-.43A9.36,9.36,0,0,0,60.7,24a2.1,2.1,0,0,1-.3-.6c0-.2.11-.3.34-.3a2.89,2.89,0,0,1,1.12.3c.46.29.71.57.75.86a.61.61,0,0,0-.24.56c0,.36.06,1,.17,2v.09l.58-.11c1.59-.29,3-.57,4.23-.86.06-1.05.08-1.86.06-2.45A2.82,2.82,0,0,0,67,22.06a2,2,0,0,1-.26-.56C66.77,21.25,66.93,21.11,67.24,21.11Z"/><path class="cls-2" d="M90.86,25.13a3.26,3.26,0,0,1,1.59.73c.63.43,1,.77,1,1a2.1,2.1,0,0,1-.84,1.46,15.51,15.51,0,0,0-1.33,1.29,20.73,20.73,0,0,1-2.51,3.12,14.26,14.26,0,0,1-2.62,2.11,18.09,18.09,0,0,1-3.12,1.4,23.68,23.68,0,0,0,4.28-3.74,27.42,27.42,0,0,0,1.89-2.69A8.61,8.61,0,0,0,90.65,27c0-.27-.24-.41-.58-.41a22.94,22.94,0,0,0-4.75.84c-2.42.6-3.74.9-3.95.9a3.18,3.18,0,0,1-1.2-.3c-.57-.21-.86-.47-.86-.75s.42-.24,1.27-.26a41,41,0,0,0,5.48-.67,24,24,0,0,0,3.46-.79A5.77,5.77,0,0,1,90.86,25.13ZM88.8,21.28a3.43,3.43,0,0,1,1.1.24c.5.19.79.38.86.58s-1,.54-3,.84c-2.52.37-3.89.55-4.1.54-1.26-.06-1.89-.24-1.89-.56,0-.16.25-.25.75-.28A13.61,13.61,0,0,0,85.83,22,14.26,14.26,0,0,1,88.8,21.28Z"/><path class="cls-2" d="M106.06,20.94c.21,0,.57.22,1,.67a2.62,2.62,0,0,1,.82,1,8.81,8.81,0,0,0-.86.9.3.3,0,0,0,0,.13,3,3,0,0,0,.82.19,4.11,4.11,0,0,0,1.59-.62,3.85,3.85,0,0,1,1.85-.64,4.22,4.22,0,0,1,1.5.49c.54.33.82.62.84.86s-.19.49-.6.82a17.3,17.3,0,0,0-2.79,4.13,19.92,19.92,0,0,1-4.17,5.24,15.39,15.39,0,0,1-5.41,3.07,24.74,24.74,0,0,0,3.57-3.05,28.71,28.71,0,0,0,3.44-4.43A2.94,2.94,0,0,1,106,28.55a20.82,20.82,0,0,0-1.61-1.63l-.26.21a9.48,9.48,0,0,1-3,1.76,20,20,0,0,0,3.59-4.21,6.1,6.1,0,0,0,1.07-3.31C105.73,21.08,105.84,20.94,106.06,20.94Zm-1.27,5.56c2.28,1.09,3.44,1.84,3.48,2.26a37,37,0,0,0,2.56-4.45c0-.14-.06-.21-.17-.21a4.43,4.43,0,0,0-1.16.26,4,4,0,0,1-1.29.28,4.46,4.46,0,0,1-1.59-.37A12.06,12.06,0,0,1,104.79,26.5ZM113,20.42a5.74,5.74,0,0,1,2.21.52,1.36,1.36,0,0,1,.67,1,.61.61,0,0,1-.62.58,1.84,1.84,0,0,1-.67-.34A9,9,0,0,1,113,20.42Zm2-1.8a6.44,6.44,0,0,1,2.23.49,1.25,1.25,0,0,1,.64,1c0,.33-.21.52-.62.56a1.53,1.53,0,0,1-.64-.32A9,9,0,0,1,115,18.62Z"/></g></g></svg>