<svg xmlns="http://www.w3.org/2000/svg" viewBox="0 0 172.25 91.11"><defs><style>.cls-1{fill:#cd362c;}.cls-2{fill:#fff;}</style></defs><g id="Layer_2" data-name="Layer 2"><g id="Layer_1-2" data-name="Layer 1"><rect class="cls-1" width="172.25" height="91.11"/><path class="cls-2" d="M37.92,69.32l2.37-2.83a7.27,7.27,0,0,0,4.48,1.91c1.72,0,2.56-.68,2.56-1.76s-1-1.52-2.63-2.17l-2.37-1a5.32,5.32,0,0,1-3.68-5c0-3,2.7-5.44,6.5-5.44A8.45,8.45,0,0,1,51,55.44L48.94,58a6,6,0,0,0-3.79-1.43c-1.42,0-2.33.59-2.33,1.64s1.19,1.53,2.79,2.16l2.33.94c2.23.9,3.62,2.39,3.62,5,0,3-2.53,5.66-6.88,5.66A10.1,10.1,0,0,1,37.92,69.32Z"/><path class="cls-2" d="M57.22,53.37h4.94l5.73,18.25H63.52l-2.39-9.24c-.51-1.82-1-4-1.48-5.89h-.11c-.44,1.93-.93,4.06-1.44,5.89l-2.4,9.24H51.48Zm-1.95,10.7h8.78v3.21H55.27Z"/><path class="cls-2" d="M67.85,69.32l2.37-2.83A7.27,7.27,0,0,0,74.7,68.4c1.72,0,2.56-.68,2.56-1.76s-1-1.52-2.63-2.17l-2.37-1a5.32,5.32,0,0,1-3.68-5c0-3,2.7-5.44,6.5-5.44A8.45,8.45,0,0,1,81,55.44L78.87,58a6,6,0,0,0-3.79-1.43c-1.42,0-2.33.59-2.33,1.64s1.19,1.53,2.79,2.16l2.33.94c2.23.9,3.62,2.39,3.62,5,0,3-2.53,5.66-6.88,5.66A10.11,10.11,0,0,1,67.85,69.32Z"/><path class="cls-2" d="M83.76,53.37h4.13v7h6.3v-7h4.13V71.62H94.19V64h-6.3v7.62H83.76Z"/><path class="cls-2" d="M101.79,53.37h4.13V71.62h-4.13Z"/><path class="cls-2" d="M109.38,53.37h4.5l3,8.11c.37,1.08.69,2.25,1,3.37H118c.37-1.12.68-2.29,1-3.37l2.87-8.11h4.5V71.62h-3.76v-6.7c0-1.78.33-4.43.53-6.2h-.11L121.57,63,119,70H116.7l-2.58-7-1.46-4.32h-.11c.19,1.77.53,4.42.53,6.2v6.7h-3.7Z"/><path class="cls-2" d="M129.87,53.37H134V71.62h-4.13Z"/><path class="cls-2" d="M72.82,29.39a1.4,1.4,0,0,1,.18.53,1.17,1.17,0,0,1-.23.59,16,16,0,0,1-3.19,3.72,9.92,9.92,0,0,1-2.44,1.57,2.24,2.24,0,0,1-1,.29c-.11,0-.16,0-.16-.11a16.69,16.69,0,0,0,3.38-2.74,15.74,15.74,0,0,0,2.93-4.09c.07-.13.13-.19.18-.19S72.7,29.1,72.82,29.39ZM69.47,26c.36.15.55.32.57.5l.17,2.84a1.71,1.71,0,0,1-.22.76c-.08.23-.2.35-.35.35s-.27-.17-.44-.52a1.32,1.32,0,0,1-.22-.62c0-.06,0-.21,0-.42s0-.67,0-1a3.74,3.74,0,0,0-.17-1.08,1.3,1.3,0,0,0-.39-.56.17.17,0,0,1-.09-.13c0-.23.08-.34.25-.34A4.58,4.58,0,0,1,69.47,26Zm7.09-.77c.44.3.66.53.66.7a1,1,0,0,1-.22.38A5,5,0,0,0,76.66,28a3.85,3.85,0,0,1-.61,2.2,1,1,0,0,1-.7.38L74.72,29c.31,0,.52-.2.63-.59a8.41,8.41,0,0,0,.19-2.05c0-.34-.1-.51-.31-.51a10.46,10.46,0,0,0-1.65.17,29.27,29.27,0,0,0-3,.54,2.91,2.91,0,0,1-.71.13.47.47,0,0,1-.39-.22.31.31,0,0,1-.17-.25c0-.07.1-.14.31-.19A42.92,42.92,0,0,0,75,25a2.83,2.83,0,0,1,.79-.18A1.82,1.82,0,0,1,76.56,25.19Zm-.88-2.62q.36.15.36.39c0,.11-.12.2-.36.26a13.19,13.19,0,0,1-1.87.43A23.2,23.2,0,0,1,71,24a2.44,2.44,0,0,1-1.12-.18c-.21-.15-.31-.27-.31-.38s.18-.15.53-.16a25.56,25.56,0,0,0,2.76-.46,11.51,11.51,0,0,0,1.69-.44,1.06,1.06,0,0,1,.3-.09A2.09,2.09,0,0,1,75.68,22.57ZM72.3,19.5l.8.46c.4.25.6.51.6.76a1.42,1.42,0,0,1-.09.37,14.72,14.72,0,0,0-.26,2.23c-.17,2.62-.26,4.56-.26,5.8l0,7.42a2.54,2.54,0,0,1-.3,1.12c-.15.33-.3.49-.48.49s-.23-.18-.41-.54a3.75,3.75,0,0,1-.39-1.31,4.79,4.79,0,0,1,.13-1,20.78,20.78,0,0,0,.35-3c.19-2,.29-4.53.29-7.46a25,25,0,0,0-.15-3.42,4.19,4.19,0,0,0-.26-1.15c-.06-.16-.11-.3-.15-.43a.32.32,0,0,1,.37-.37Zm1.08,11.11a14.91,14.91,0,0,1,1.69.74,4.36,4.36,0,0,1,1.43,1.16,2.09,2.09,0,0,1,.26,1,1.47,1.47,0,0,1-.12.54.4.4,0,0,1-.35.22.89.89,0,0,1-.45-.22,5.57,5.57,0,0,1-1.25-1.3,15.27,15.27,0,0,0-1.5-1.68c-.27-.21-.4-.36-.4-.47s0-.12.09-.12A3.23,3.23,0,0,1,73.38,30.61ZM74.73,29l.63,1.55c-.14,0-.3-.13-.47-.39l-1-1.27c0-.09.06-.14.17-.14Zm4.92-5.17c.36.16.54.36.54.62a12.49,12.49,0,0,0-.08,1.44c0,1.67-.06,3.15-.17,4.44a3,3,0,0,1-.17,1.15c-.15.37-.29.55-.42.55s-.3-.19-.48-.56a3.22,3.22,0,0,1-.32-1.17,1.54,1.54,0,0,1,.12-.38A7,7,0,0,0,79,28.48q.06-.91.06-2.1a5.92,5.92,0,0,0-.26-2,1,1,0,0,1-.16-.4c0-.2.08-.31.23-.33A1.57,1.57,0,0,1,79.65,23.86Zm3.74-3.8c.53.32.79.63.79.93a1.5,1.5,0,0,1-.23.46,5.87,5.87,0,0,0-.44,2q-.26,2.7-.26,7.35V33.4c.07.87.11,1.71.11,2.53a3.57,3.57,0,0,1-.45,1.76c-.26.49-.46.73-.6.73s-.42-.17-.67-.51A11.87,11.87,0,0,0,79.77,36c-.21-.16-.32-.28-.32-.34s.06-.15.19-.15a16.25,16.25,0,0,0,1.74.21c.19,0,.31-.11.35-.33A12.8,12.8,0,0,0,82,33.25c.1-2.22.15-4.7.15-7.46,0-1.7,0-3-.11-3.82a4.13,4.13,0,0,0-.33-1.34,5.84,5.84,0,0,1-.16-.63c0-.33.16-.49.47-.49A3.24,3.24,0,0,1,83.39,20.06Z"/><path class="cls-2" d="M104.16,25.65c.44.35.65.67.65,1q0,.15-.45.42a7.8,7.8,0,0,0-1.22,1,47.34,47.34,0,0,1-5.57,5.06,31.1,31.1,0,0,1-5.18,3.23,10.67,10.67,0,0,1-4,1.2c-.15,0-.23,0-.23-.06s.08-.14.24-.24a38.24,38.24,0,0,0,6-3.38,42.69,42.69,0,0,0,6.32-5.29,6.17,6.17,0,0,0,1.88-3.1.43.43,0,0,1,.49-.48C103.33,25,103.66,25.22,104.16,25.65Zm-14.51,5a3.26,3.26,0,0,1,.49.06l.59.06c.28,0,.79,0,1.54-.11,3.32-.52,5.64-.92,7-1.22a4.33,4.33,0,0,1,.72-.11q.6,0,.6.3t-.81.45q-5.69,1.35-5.68,1.38c-.8.2-1.52.41-2.15.63a2.28,2.28,0,0,1-.87.27,1.83,1.83,0,0,1-1-.55c-.48-.45-.72-.75-.72-.91S89.42,30.67,89.65,30.67Zm4.53-7.84q.42.21.42.48a1.24,1.24,0,0,1-.06.37,2.92,2.92,0,0,0-.08.65l.15,6.44h-1l-.48-6.88a1.46,1.46,0,0,0-.21-.64.47.47,0,0,1-.15-.26.35.35,0,0,1,.4-.39A3,3,0,0,1,94.18,22.83Zm6.68-.94c.29.16.43.34.43.52a1.38,1.38,0,0,1-.14.49,8.27,8.27,0,0,0-.28,1.89l0,11a4.57,4.57,0,0,1-.55,2.35c-.28.52-.56.77-.85.77l-.4-2.2c.16,0,.31-.37.43-1.12q.18-2.24.18-10.69a9.71,9.71,0,0,0-.14-1.85.22.22,0,0,0-.24-.21,17.85,17.85,0,0,0-2.38.3,16.16,16.16,0,0,1-2.66.36,1.08,1.08,0,0,1-.62-.17q-.27-.16-.27-.27c0-.09.24-.16.73-.22a28.34,28.34,0,0,0,4.74-1,4.6,4.6,0,0,1,1-.26A3,3,0,0,1,100.86,21.89Zm-3-2.92c.43.27.64.5.64.69s-.08.16-.23.26a4.7,4.7,0,0,0-1,.86A19.42,19.42,0,0,1,95,22.88a3.51,3.51,0,0,1-1,.56.08.08,0,0,1-.09-.09A21.63,21.63,0,0,0,96,20.49a3.64,3.64,0,0,0,.62-1.57.26.26,0,0,1,.29-.3A3.61,3.61,0,0,1,97.84,19Zm1.46,5.62c.38.14.57.25.57.35s-.23.28-.69.38-.73.1-1,.16l-1.87.39a7.9,7.9,0,0,1-1.18.16,2.58,2.58,0,0,1-.74-.09c-.3-.1-.44-.21-.44-.33s.23-.28.69-.3a29.32,29.32,0,0,0,3.3-.75l.52-.12A7.69,7.69,0,0,1,99.3,24.59Zm0,2.41c.38.14.57.25.57.35s-.23.28-.69.38l-1,.12-1.83.3a9,9,0,0,1-1.16.12,2.58,2.58,0,0,1-.74-.09c-.3-.1-.44-.21-.44-.33s.23-.28.69-.3c1.11-.15,2.18-.36,3.22-.6l.51-.09A3.61,3.61,0,0,1,99.3,27Zm-1.62,9.5a14.15,14.15,0,0,0,1.45.23l.4,2.2c-.14,0-.31-.14-.52-.42a17.26,17.26,0,0,0-1.57-1.6c-.21-.16-.31-.28-.31-.35s0-.12.09-.12A1.77,1.77,0,0,1,97.68,36.5Z"/></g></g></svg>