<svg xmlns="http://www.w3.org/2000/svg" viewBox="0 0 171.93 90.95"><defs><style>.cls-1{fill:#cd362c;}.cls-2{fill:#fff;}</style></defs><g id="Layer_2" data-name="Layer 2"><g id="Layer_1-2" data-name="Layer 1"><rect class="cls-1" width="171.93" height="90.95"/><path class="cls-2" d="M15.79,69.24l2.37-2.83a7.27,7.27,0,0,0,4.48,1.91c1.72,0,2.56-.68,2.56-1.76s-1-1.52-2.63-2.17l-2.37-1a5.32,5.32,0,0,1-3.68-5c0-3,2.7-5.44,6.5-5.44a8.45,8.45,0,0,1,5.87,2.39L26.81,58A6,6,0,0,0,23,56.53c-1.42,0-2.33.59-2.33,1.64s1.19,1.53,2.79,2.16l2.33.94c2.23.9,3.62,2.38,3.62,5,0,3-2.53,5.66-6.88,5.66A10.1,10.1,0,0,1,15.79,69.24Z"/><path class="cls-2" d="M31.7,53.29H38c4,0,7.25,1.44,7.25,5.87s-3.28,6.19-7.14,6.19H35.83v6.19H31.7Zm6.13,8.78c2.27,0,3.34-1,3.34-2.91S40,56.57,37.72,56.57h-1.9v5.51h2Z"/><path class="cls-2" d="M47.55,53.29H59v3.46H51.67v3.67h6.22v3.46H51.67v4.2h7.59v3.46H47.55Z"/><path class="cls-2" d="M61.18,62.52c0-6.05,4-9.57,8.61-9.57a7.7,7.7,0,0,1,5.49,2.37L73.11,58a4.6,4.6,0,0,0-3.22-1.45c-2.5,0-4.48,2.21-4.48,5.87s1.75,5.93,4.41,5.93a4.8,4.8,0,0,0,3.57-1.71l2.17,2.59a7.51,7.51,0,0,1-5.89,2.68C65.05,71.88,61.18,68.67,61.18,62.52Z"/><path class="cls-2" d="M77.5,53.29h4.13V71.54H77.5Z"/><path class="cls-2" d="M88.49,53.29h4.94l5.73,18.25H94.79L92.4,62.3c-.51-1.82-1-4-1.48-5.89h-.11c-.44,1.93-.93,4.06-1.44,5.89L87,71.54H82.75ZM86.54,64h8.78V67.2H86.54Z"/><path class="cls-2" d="M100.07,53.29h4.13V68.08h7.2v3.46H100.07Z"/><path class="cls-2" d="M117.32,69.24l2.37-2.83a7.27,7.27,0,0,0,4.48,1.91c1.72,0,2.56-.68,2.56-1.76s-1-1.52-2.63-2.17l-2.37-1a5.32,5.32,0,0,1-3.68-5c0-3,2.7-5.44,6.5-5.44a8.45,8.45,0,0,1,5.87,2.39L128.34,58a6,6,0,0,0-3.79-1.43c-1.42,0-2.33.59-2.33,1.64s1.19,1.53,2.79,2.16l2.33.94c2.23.9,3.62,2.38,3.62,5,0,3-2.53,5.66-6.88,5.66A10.1,10.1,0,0,1,117.32,69.24Z"/><path class="cls-2" d="M133.22,53.29h11.43v3.46h-7.31v3.67h6.22v3.46h-6.22v4.2h7.59v3.46H133.22Z"/><path class="cls-2" d="M151.3,56.75h-5V53.29h14.17v3.46h-5V71.54H151.3Z"/><path class="cls-2" d="M20.17,22.15a2.34,2.34,0,0,1,1.33.58c.53.36.82.67.86.92s-.2.34-.6.6a3.07,3.07,0,0,0-1,.9A28.9,28.9,0,0,1,18,29l-.26.3a21,21,0,0,1,3.63,1.89c1.55,1.07,2.34,2.11,2.38,3.12,0,.53-.21.79-.69.79s-1.61-1-3.12-3a11.48,11.48,0,0,0-2.62-2.38,21.79,21.79,0,0,1-3.67,3.42,12.38,12.38,0,0,1-4.47,2.21,32.39,32.39,0,0,0,8.66-9,18.82,18.82,0,0,0,1.55-2.54.25.25,0,0,0-.28-.21,11.4,11.4,0,0,0-2.19.47c-.17,0-.9.31-2.17.79a8.4,8.4,0,0,1-2.13.58,4.82,4.82,0,0,1-.92-.32c-.47-.21-.71-.39-.71-.52,0-.3.12-.45.37-.45A24.17,24.17,0,0,0,16,23.5a13.19,13.19,0,0,0,3.14-1.05A2.43,2.43,0,0,1,20.17,22.15Z"/><path class="cls-2" d="M34.76,24.47a1.55,1.55,0,0,1,1,.41l5.31,4.49c.86.57,1.73,1.15,2.62,1.72,1.22.89,1.85,1.61,1.89,2.17,0,.37-.35.56-1,.56a2.26,2.26,0,0,1-1.29-.77l-8-7.28a1.08,1.08,0,0,0-.64-.34,1.21,1.21,0,0,0-.9.6L31,30a1.55,1.55,0,0,0-.34.67.49.49,0,0,1-.39.39c-.19,0-.48-.32-.88-.84a2.29,2.29,0,0,1-.58-1.05c0-.21.16-.32.47-.32a2.69,2.69,0,0,0,1.38-.67l2.73-2.92A1.89,1.89,0,0,1,34.76,24.47Zm5.8-3.81a1.84,1.84,0,0,1,1.25.52,2.16,2.16,0,0,1,.56,1.29,2,2,0,0,1-.58,1.25,2,2,0,0,1-1.22.56,2.08,2.08,0,0,1-1.27-.56,1.68,1.68,0,0,1-.49-1.25,1.81,1.81,0,0,1,.47-1.29A1.69,1.69,0,0,1,40.56,20.66Zm0,3.12a1.54,1.54,0,0,0,.86-.45,1.6,1.6,0,0,0,.45-.86,1.7,1.7,0,0,0-.45-.92,1.31,1.31,0,0,0-.86-.34,1.32,1.32,0,0,0-.92.34,1.28,1.28,0,0,0-.34.92,1.13,1.13,0,0,0,.37.88A1.47,1.47,0,0,0,40.56,23.78Z"/><path class="cls-2" d="M51.62,26.72a4.73,4.73,0,0,1,2.3.58,1.8,1.8,0,0,1,1,1.33,1.1,1.1,0,0,1-.24.45.61.61,0,0,1-.43.21,5.45,5.45,0,0,1-1.63-1.07,14,14,0,0,0-2-1.38A4.73,4.73,0,0,1,51.62,26.72Zm1.64-5a4.87,4.87,0,0,1,2.41.6,1.91,1.91,0,0,1,1.14,1.5,1.25,1.25,0,0,1-.26.39.93.93,0,0,1-.49.26,3.84,3.84,0,0,1-1.31-1,7,7,0,0,0-2.32-1.59A2.83,2.83,0,0,1,53.26,21.67Zm0,11.88.24.11a.68.68,0,0,0,.32.09A4,4,0,0,0,55.47,33q4-2.52,9.37-9.6a28.37,28.37,0,0,1-3.2,5.76,23,23,0,0,1-3,3.24c-.7.62-1.58,1.43-2.62,2.43q-.7,1-1.05,1A2.13,2.13,0,0,1,53.72,35a4,4,0,0,1-.84-1,.38.38,0,0,1,.11-.3A.29.29,0,0,1,53.28,33.55Z"/><path class="cls-2" d="M82.09,27.54A2.82,2.82,0,0,1,83.4,28c.54.33.84.64.88.92s-.14.29-.41.43a37.63,37.63,0,0,0-3.74,2.23A17.74,17.74,0,0,0,81.93,29c0-.11-.14-.17-.34-.17a19.1,19.1,0,0,0-3.63.95c.06.42.15,1.07.28,2,.47,3,.71,4.58.71,4.79a5.31,5.31,0,0,1-.13.58.66.66,0,0,1-.32.34c-.23,0-.47-.34-.73-.88a2.8,2.8,0,0,1-.39-1.14,1.45,1.45,0,0,1,.06-.47c0-.2,0-.34.06-.43,0-.56-.15-1.72-.32-3.48,0-.23-.08-.54-.15-.95l-3.42,1.12a2.74,2.74,0,0,1-.92-.21c-.42-.19-.62-.38-.62-.58s.11-.17.32-.17c.49-.06,2-.42,4.49-1.1A16.5,16.5,0,0,0,76.17,26c-.2-.16-.3-.28-.3-.37s.14-.34.41-.34a1.8,1.8,0,0,1,.79.21c.39.17.6.35.64.54a1.56,1.56,0,0,0-.13.77,18.38,18.38,0,0,0,.21,2.06,21.36,21.36,0,0,0,3.31-1A3.62,3.62,0,0,1,82.09,27.54Z"/><path class="cls-2" d="M93.67,25a2,2,0,0,1,1,.39,1.58,1.58,0,0,1,.64.73,1.41,1.41,0,0,1-.19.39A6.11,6.11,0,0,0,94.72,28,11.28,11.28,0,0,1,93,32.49a8.76,8.76,0,0,1-3.5,2.94,15.28,15.28,0,0,0,2.75-3.59,16,16,0,0,0,1.33-5.41,1.34,1.34,0,0,0-.19-.69.9.9,0,0,1-.17-.47C93.2,25.06,93.36,25,93.67,25Zm3.89-3.52A2.12,2.12,0,0,1,98.7,22c.56.39.86.71.9,1a13.71,13.71,0,0,0-.43,2.34q-.18,3-.19,7.8a7.17,7.17,0,0,0,1.89-1,19,19,0,0,0,3.39-2.77,21.88,21.88,0,0,0,2.49-3.61,18.34,18.34,0,0,1-2.23,4.55A23.23,23.23,0,0,1,100.85,34q-1.95,1.68-2.28,1.65c-.3,0-.63-.29-1-.82a2.53,2.53,0,0,1-.54-1.2.76.76,0,0,1,.21-.54,7.59,7.59,0,0,0,.21-.88q.2-1.64.19-6.72a12.43,12.43,0,0,0-.21-3.09A1,1,0,0,1,97.2,22C97.22,21.62,97.33,21.44,97.56,21.44Z"/><path class="cls-2" d="M115.91,21.72a2.76,2.76,0,0,1,1.22.37,1.46,1.46,0,0,1,.82.79c-.1.17-.2.36-.3.56a14.39,14.39,0,0,0-.24,2.64c0,.63,0,1,0,1.14.87-.31,1.76-.62,2.66-.92a21,21,0,0,0,2.56-1.14,1.59,1.59,0,0,1,.73-.24,2.19,2.19,0,0,1,1.29.58,2,2,0,0,1,.92,1.22c0,.21-.24.34-.62.39a3.48,3.48,0,0,0-1.5.86c-.2.16-1.15.86-2.84,2.11a10.43,10.43,0,0,1-1.59,1l3.09-3.59c.2-.24.42-.51.67-.79,0-.09-.12-.13-.34-.13A19.05,19.05,0,0,0,117.33,28c0,.63,0,1.47,0,2.51,0,1.5.12,2.38.37,2.62a1.56,1.56,0,0,0,1.33.52,11.73,11.73,0,0,0,2.6-.41c.69-.17,1-.26,1.1-.26a1.77,1.77,0,0,1,.86.32,1.12,1.12,0,0,1,.56.64c0,.26-.31.45-.79.58a15.75,15.75,0,0,1-3.65.34,4.21,4.21,0,0,1-3-.92c-.54-.54-.82-1.69-.82-3.44V28.67l-1.78.79a12.87,12.87,0,0,1-2.06.88,4.41,4.41,0,0,1-1.25-.34c-.24-.11-.37-.26-.37-.43s.24-.19.71-.28a10,10,0,0,0,1.89-.54c.64-.21,1.6-.55,2.88-1,0-1.09,0-2.33.09-3.74a5.46,5.46,0,0,0-.3-1.53.88.88,0,0,1-.17-.43C115.42,21.83,115.58,21.72,115.91,21.72Z"/><path class="cls-2" d="M133.21,28.14c1.47.77,2.27,1.55,2.38,2.32-.06.39-.24.57-.56.56s-.54-.42-.88-1.22A9.33,9.33,0,0,0,133.21,28.14Zm9-.69a2,2,0,0,1,.88.49,2.23,2.23,0,0,1,.56.82,1.19,1.19,0,0,1-.32.37.89.89,0,0,0-.34.37A27.61,27.61,0,0,1,139.23,35,11.31,11.31,0,0,1,135.79,37a16.54,16.54,0,0,0,5.29-6.75,7.14,7.14,0,0,0,.69-2.38C141.8,27.6,142,27.45,142.23,27.45Zm-5.5-.36a6,6,0,0,1,1.89,1.35,1.87,1.87,0,0,1,.49,1c-.13.37-.32.55-.56.54s-.57-.42-.9-1.2A10,10,0,0,0,136.73,27.09Z"/><path class="cls-2" d="M156.43,20.51a2.7,2.7,0,0,1,1.4.54,1.56,1.56,0,0,1,.82,1,.64.64,0,0,1-.19.43,3.28,3.28,0,0,0-.26,1.7V26a11.23,11.23,0,0,1,4.55,1.78c.86.66,1.3,1.26,1.33,1.8s-.21.69-.69.69-1.33-.59-2.62-1.78a10.62,10.62,0,0,0-2.58-1.89v5.63a8.71,8.71,0,0,0,.11,1.8,7.91,7.91,0,0,1,.09,1.18,3.73,3.73,0,0,1-.37,1.35c-.19.34-.37.54-.54.58-.33-.07-.61-.43-.84-1.07a4.09,4.09,0,0,1-.28-1.4,7.7,7.7,0,0,1,.17-1.33c.11-.66.18-1.11.19-1.35.13-1.79.19-3,.19-3.67,0-1.55-.06-3.28-.19-5.2a3.7,3.7,0,0,0-.34-1.4,2.79,2.79,0,0,1-.28-.86A.3.3,0,0,1,156.43,20.51Z"/></g></g></svg>