<svg xmlns="http://www.w3.org/2000/svg" viewBox="0 0 173.25 92.11"><defs><style>.cls-1{fill:#231f20;stroke:#7a7d80;stroke-miterlimit:10;}.cls-2{fill:#fff;}</style></defs><g id="Layer_2" data-name="Layer 2"><g id="Layer_1-2" data-name="Layer 1"><rect class="cls-1" x="0.5" y="0.5" width="172.25" height="91.11"/><path class="cls-2" d="M38.42,69.82,40.79,67a7.27,7.27,0,0,0,4.48,1.91c1.72,0,2.56-.68,2.56-1.76s-1-1.52-2.63-2.17l-2.37-1a5.32,5.32,0,0,1-3.68-5c0-3,2.7-5.44,6.5-5.44a8.45,8.45,0,0,1,5.87,2.39l-2.08,2.6a6,6,0,0,0-3.79-1.43c-1.42,0-2.33.59-2.33,1.64s1.19,1.53,2.79,2.16l2.33.94c2.23.9,3.62,2.38,3.62,5,0,3-2.53,5.66-6.88,5.66A10.1,10.1,0,0,1,38.42,69.82Z"/><path class="cls-2" d="M57.72,53.88h4.94l5.73,18.25H64l-2.39-9.24c-.51-1.82-1-4-1.48-5.89H60c-.44,1.93-.93,4.06-1.44,5.89l-2.4,9.24H52ZM55.77,64.57h8.78v3.21H55.77Z"/><path class="cls-2" d="M68.35,69.82,70.72,67A7.27,7.27,0,0,0,75.2,68.9c1.72,0,2.56-.68,2.56-1.76s-1-1.52-2.63-2.17l-2.37-1a5.32,5.32,0,0,1-3.68-5c0-3,2.7-5.44,6.5-5.44a8.45,8.45,0,0,1,5.87,2.39l-2.08,2.6a6,6,0,0,0-3.79-1.43c-1.42,0-2.33.59-2.33,1.64s1.19,1.53,2.79,2.16l2.33.94c2.23.9,3.62,2.38,3.62,5,0,3-2.53,5.66-6.88,5.66A10.11,10.11,0,0,1,68.35,69.82Z"/><path class="cls-2" d="M84.26,53.88h4.13v7h6.3v-7h4.13V72.13H94.69V64.51h-6.3v7.62H84.26Z"/><path class="cls-2" d="M102.29,53.88h4.13V72.13h-4.13Z"/><path class="cls-2" d="M109.88,53.88h4.5l3,8.11c.37,1.08.69,2.25,1,3.37h.11c.37-1.12.68-2.29,1-3.37l2.87-8.11h4.5V72.13h-3.76v-6.7c0-1.78.33-4.43.53-6.2h-.11l-1.5,4.32-2.58,7H117.2l-2.58-7-1.46-4.32h-.11c.19,1.77.53,4.42.53,6.2v6.7h-3.7Z"/><path class="cls-2" d="M130.37,53.88h4.13V72.13h-4.13Z"/><path class="cls-2" d="M73.32,29.89a1.4,1.4,0,0,1,.18.53,1.17,1.17,0,0,1-.23.59,16,16,0,0,1-3.19,3.72,9.92,9.92,0,0,1-2.44,1.57,2.24,2.24,0,0,1-1,.29c-.11,0-.16,0-.16-.11a16.69,16.69,0,0,0,3.38-2.74,15.74,15.74,0,0,0,2.93-4.09c.07-.13.13-.19.18-.19S73.2,29.6,73.32,29.89ZM70,26.47c.36.15.55.32.57.5l.17,2.84a1.71,1.71,0,0,1-.22.76c-.08.23-.2.35-.35.35s-.27-.17-.44-.52a1.32,1.32,0,0,1-.22-.62c0-.06,0-.21,0-.42s0-.67,0-1a3.69,3.69,0,0,0-.17-1.08,1.3,1.3,0,0,0-.39-.56.17.17,0,0,1-.09-.13c0-.23.08-.34.25-.34A3.78,3.78,0,0,1,70,26.47Zm7.09-.78c.44.3.66.53.66.7a1,1,0,0,1-.22.38,5,5,0,0,0-.34,1.74,3.85,3.85,0,0,1-.61,2.2,1,1,0,0,1-.7.38l-.63-1.55c.31,0,.52-.2.63-.59A8.41,8.41,0,0,0,76,26.9c0-.34-.1-.51-.31-.51a10.46,10.46,0,0,0-1.65.17,29.27,29.27,0,0,0-3,.54,2.91,2.91,0,0,1-.71.13A.47.47,0,0,1,70,27a.31.31,0,0,1-.17-.25c0-.07.1-.14.31-.19a42.92,42.92,0,0,0,5.3-1.11,2.83,2.83,0,0,1,.79-.18A1.82,1.82,0,0,1,77.06,25.69Zm-.88-2.61q.36.15.36.39c0,.11-.12.2-.36.26a13.19,13.19,0,0,1-1.87.43,23.2,23.2,0,0,1-2.86.36,2.44,2.44,0,0,1-1.12-.18c-.21-.15-.31-.27-.31-.38s.18-.15.53-.16c.84-.09,1.76-.25,2.76-.46A11.51,11.51,0,0,0,75,22.9a1.06,1.06,0,0,1,.3-.09A1.83,1.83,0,0,1,76.18,23.08ZM72.8,20l.8.46c.4.25.6.51.6.76a1.33,1.33,0,0,1-.09.37,14.72,14.72,0,0,0-.26,2.23q-.25,3.95-.26,5.8l0,7.42a2.54,2.54,0,0,1-.3,1.12c-.15.33-.3.49-.48.49s-.23-.18-.41-.54A3.75,3.75,0,0,1,72,36.8a4.79,4.79,0,0,1,.13-1,20.78,20.78,0,0,0,.35-3c.19-2,.29-4.53.29-7.46A25,25,0,0,0,72.59,22a4.19,4.19,0,0,0-.26-1.15c-.06-.16-.11-.3-.15-.43a.32.32,0,0,1,.37-.37Zm1.08,11.11a14.91,14.91,0,0,1,1.69.74A4.36,4.36,0,0,1,77,33a2.09,2.09,0,0,1,.26,1,1.47,1.47,0,0,1-.12.54.4.4,0,0,1-.35.22.89.89,0,0,1-.45-.22,5.57,5.57,0,0,1-1.25-1.3,15.27,15.27,0,0,0-1.5-1.68c-.27-.21-.4-.36-.4-.47s0-.12.09-.12A3.23,3.23,0,0,1,73.88,31.11Zm1.35-1.57.63,1.55c-.14,0-.3-.13-.47-.39l-1-1.27c0-.09.06-.14.17-.14Zm4.92-5.17c.36.16.54.36.54.62a12.49,12.49,0,0,0-.08,1.44c0,1.67-.06,3.15-.17,4.44A3,3,0,0,1,80.27,32c-.15.37-.29.55-.42.55s-.3-.19-.48-.56a3.22,3.22,0,0,1-.32-1.17,1.54,1.54,0,0,1,.12-.38A7,7,0,0,0,79.46,29c0-.61.06-1.3.06-2.1a5.92,5.92,0,0,0-.26-2,1,1,0,0,1-.16-.4c0-.2.08-.31.23-.33A1.48,1.48,0,0,1,80.15,24.37Zm3.74-3.81c.53.32.79.63.79.93a1.5,1.5,0,0,1-.23.46,5.81,5.81,0,0,0-.44,2q-.26,2.7-.26,7.35V33.9c.07.87.11,1.71.11,2.53a3.57,3.57,0,0,1-.45,1.76c-.26.49-.46.73-.6.73s-.42-.17-.67-.51a11.87,11.87,0,0,0-1.87-1.92c-.21-.16-.32-.28-.32-.34S80,36,80.14,36a16.25,16.25,0,0,0,1.74.21c.19,0,.31-.11.35-.33a12.8,12.8,0,0,0,.23-2.13c.1-2.22.15-4.7.15-7.46,0-1.7,0-3-.11-3.82a4.13,4.13,0,0,0-.33-1.34A5.84,5.84,0,0,1,82,20.5c0-.33.16-.49.47-.49A3.24,3.24,0,0,1,83.89,20.56Z"/><path class="cls-2" d="M104.66,26.15c.44.35.65.67.65,1q0,.15-.45.42a7.8,7.8,0,0,0-1.22,1,47.34,47.34,0,0,1-5.57,5.06,31.1,31.1,0,0,1-5.18,3.23,10.67,10.67,0,0,1-4,1.2c-.15,0-.23,0-.23-.06s.08-.14.24-.24a38.24,38.24,0,0,0,6-3.38,42.69,42.69,0,0,0,6.32-5.29,6.17,6.17,0,0,0,1.88-3.1.43.43,0,0,1,.49-.48C103.83,25.5,104.16,25.72,104.66,26.15Zm-14.51,5a3.26,3.26,0,0,1,.49.06l.59.06c.28,0,.79,0,1.54-.11,3.32-.52,5.64-.92,7-1.22a4.33,4.33,0,0,1,.72-.11q.6,0,.6.3t-.81.45Q94.57,32,94.57,32c-.8.2-1.52.41-2.15.63a2.28,2.28,0,0,1-.87.27,1.83,1.83,0,0,1-1-.55c-.48-.45-.72-.75-.72-.91S89.92,31.17,90.15,31.17Zm4.53-7.83c.28.14.42.3.42.47a1.24,1.24,0,0,1-.06.37,2.92,2.92,0,0,0-.08.65l.15,6.44h-1l-.48-6.88a1.46,1.46,0,0,0-.21-.64.47.47,0,0,1-.15-.26.35.35,0,0,1,.4-.39A3,3,0,0,1,94.68,23.34Zm6.68-.95c.29.16.43.34.43.52a1.38,1.38,0,0,1-.14.49,8.26,8.26,0,0,0-.28,1.88l0,11a4.57,4.57,0,0,1-.55,2.35c-.28.52-.56.77-.85.77l-.4-2.2c.16,0,.31-.37.43-1.12q.18-2.23.18-10.69a9.71,9.71,0,0,0-.14-1.85.22.22,0,0,0-.24-.21,17.85,17.85,0,0,0-2.38.3,16.16,16.16,0,0,1-2.66.36,1.08,1.08,0,0,1-.62-.17q-.27-.16-.27-.27c0-.09.24-.16.73-.22a28.34,28.34,0,0,0,4.74-1,4.6,4.6,0,0,1,1-.26A3.83,3.83,0,0,1,101.36,22.39Zm-3-2.91c.43.27.64.5.64.69s-.08.16-.23.26a4.7,4.7,0,0,0-1,.86,19.42,19.42,0,0,1-2.29,2.1,3.51,3.51,0,0,1-1,.56.08.08,0,0,1-.09-.09A21.63,21.63,0,0,0,96.46,21a3.64,3.64,0,0,0,.62-1.57.26.26,0,0,1,.29-.3A3.27,3.27,0,0,1,98.34,19.48ZM99.8,25.1c.38.13.57.25.57.35s-.23.28-.69.38-.73.1-1,.16l-1.87.39a6.74,6.74,0,0,1-1.18.16,2.58,2.58,0,0,1-.74-.09c-.3-.1-.44-.21-.44-.33s.23-.28.69-.3a29.32,29.32,0,0,0,3.3-.75L99,25A4.61,4.61,0,0,1,99.8,25.1Zm0,2.4c.38.13.57.25.57.35s-.23.28-.69.38l-1,.12-1.83.3a9,9,0,0,1-1.16.12,2.58,2.58,0,0,1-.74-.09c-.3-.1-.44-.21-.44-.33s.23-.28.69-.3c1.11-.15,2.18-.36,3.22-.6l.51-.09A5.19,5.19,0,0,1,99.8,27.5ZM98.18,37a14.15,14.15,0,0,0,1.45.23l.4,2.2c-.14,0-.31-.14-.52-.42a17.26,17.26,0,0,0-1.57-1.6c-.21-.16-.31-.28-.31-.35s0-.12.09-.12A1.77,1.77,0,0,1,98.18,37Z"/></g></g></svg>