<svg xmlns="http://www.w3.org/2000/svg" viewBox="0 0 172.93 91.95"><defs><style>.cls-1{fill:#231f20;stroke:#7a7d80;stroke-miterlimit:10;}.cls-2{fill:#fff;}</style></defs><g id="Layer_2" data-name="Layer 2"><g id="Layer_1-2" data-name="Layer 1"><rect class="cls-1" x="0.5" y="0.5" width="171.93" height="90.95"/><path class="cls-2" d="M16.29,69.74l2.37-2.83a7.27,7.27,0,0,0,4.48,1.91c1.72,0,2.56-.68,2.56-1.76s-1-1.52-2.63-2.17l-2.37-1a5.32,5.32,0,0,1-3.68-5c0-3,2.7-5.44,6.5-5.44a8.45,8.45,0,0,1,5.87,2.39l-2.08,2.6A6,6,0,0,0,23.52,57c-1.42,0-2.33.59-2.33,1.64S22.38,60.2,24,60.83l2.33.94c2.23.9,3.62,2.38,3.62,5,0,3-2.53,5.66-6.88,5.66A10.1,10.1,0,0,1,16.29,69.74Z"/><path class="cls-2" d="M32.2,53.79h6.27c4,0,7.25,1.44,7.25,5.87s-3.28,6.19-7.14,6.19H36.33V72H32.2Zm6.13,8.79c2.27,0,3.34-1,3.34-2.91s-1.22-2.6-3.45-2.6h-1.9v5.51Z"/><path class="cls-2" d="M48.05,53.79H59.48v3.46H52.17v3.66h6.22v3.46H52.17v4.2h7.59V72H48.05Z"/><path class="cls-2" d="M61.68,63c0-6.05,4-9.57,8.61-9.57a7.7,7.7,0,0,1,5.49,2.37l-2.17,2.65A4.6,4.6,0,0,0,70.39,57c-2.5,0-4.48,2.21-4.48,5.87s1.75,5.93,4.41,5.93a4.8,4.8,0,0,0,3.57-1.71l2.17,2.59a7.51,7.51,0,0,1-5.89,2.68C65.55,72.38,61.68,69.17,61.68,63Z"/><path class="cls-2" d="M78,53.79h4.13V72H78Z"/><path class="cls-2" d="M89,53.79h4.94L99.66,72H95.29L92.9,62.8c-.51-1.83-1-4-1.48-5.89h-.11c-.44,1.93-.93,4.06-1.44,5.89L87.47,72H83.25ZM87,64.49h8.78V67.7H87Z"/><path class="cls-2" d="M100.57,53.79h4.13V68.58h7.2V72H100.57Z"/><path class="cls-2" d="M117.82,69.74l2.37-2.83a7.27,7.27,0,0,0,4.48,1.91c1.72,0,2.56-.68,2.56-1.76s-1-1.52-2.63-2.17l-2.37-1a5.32,5.32,0,0,1-3.68-5c0-3,2.7-5.44,6.5-5.44a8.45,8.45,0,0,1,5.87,2.39l-2.08,2.6A6,6,0,0,0,125.05,57c-1.42,0-2.33.59-2.33,1.64s1.19,1.53,2.79,2.16l2.33.94c2.23.9,3.62,2.38,3.62,5,0,3-2.53,5.66-6.88,5.66A10.1,10.1,0,0,1,117.82,69.74Z"/><path class="cls-2" d="M133.72,53.79h11.43v3.46h-7.31v3.66h6.22v3.46h-6.22v4.2h7.59V72H133.72Z"/><path class="cls-2" d="M151.8,57.25h-5V53.79H161v3.46h-5V72H151.8Z"/><path class="cls-2" d="M20.67,22.65a2.34,2.34,0,0,1,1.33.58c.53.36.82.67.86.92s-.2.34-.6.6a3.07,3.07,0,0,0-1,.9,28.28,28.28,0,0,1-2.81,3.89l-.26.3a21,21,0,0,1,3.63,1.89c1.55,1.07,2.34,2.11,2.38,3.12,0,.53-.21.79-.69.79s-1.61-1-3.12-3a11.48,11.48,0,0,0-2.62-2.38,21.79,21.79,0,0,1-3.67,3.42,12.38,12.38,0,0,1-4.47,2.21,32.39,32.39,0,0,0,8.66-9,18.82,18.82,0,0,0,1.55-2.54.25.25,0,0,0-.28-.21,11.4,11.4,0,0,0-2.19.47c-.17,0-.9.31-2.17.79a8.4,8.4,0,0,1-2.13.58,4.19,4.19,0,0,1-.92-.32c-.47-.21-.71-.39-.71-.52,0-.3.12-.45.37-.45A24.17,24.17,0,0,0,16.54,24,12.73,12.73,0,0,0,19.68,23,2.43,2.43,0,0,1,20.67,22.65Z"/><path class="cls-2" d="M35.26,25a1.55,1.55,0,0,1,1,.41l5.31,4.49c.86.57,1.73,1.15,2.62,1.72,1.22.89,1.85,1.61,1.89,2.17,0,.37-.35.56-1,.56a2.26,2.26,0,0,1-1.29-.77l-8-7.28a1.08,1.08,0,0,0-.64-.34,1.21,1.21,0,0,0-.9.6L31.5,30.48a1.55,1.55,0,0,0-.34.67.49.49,0,0,1-.39.39c-.19,0-.48-.32-.88-.84a2.29,2.29,0,0,1-.58-1.05c0-.21.16-.32.47-.32a2.69,2.69,0,0,0,1.38-.67l2.73-2.92A1.89,1.89,0,0,1,35.26,25Zm5.8-3.8a1.84,1.84,0,0,1,1.25.52A2.16,2.16,0,0,1,42.87,23a2,2,0,0,1-.58,1.25,2,2,0,0,1-1.22.56,2.08,2.08,0,0,1-1.27-.56A1.68,1.68,0,0,1,39.31,23a1.81,1.81,0,0,1,.47-1.29A1.65,1.65,0,0,1,41.06,21.17Zm0,3.11a1.54,1.54,0,0,0,.86-.45,1.6,1.6,0,0,0,.45-.86,1.7,1.7,0,0,0-.45-.92,1.31,1.31,0,0,0-.86-.34,1.32,1.32,0,0,0-.92.34,1.28,1.28,0,0,0-.34.92,1.13,1.13,0,0,0,.37.88A1.42,1.42,0,0,0,41.06,24.28Z"/><path class="cls-2" d="M52.12,27.22a4.73,4.73,0,0,1,2.3.58,1.8,1.8,0,0,1,1,1.33,1.1,1.1,0,0,1-.24.45.61.61,0,0,1-.43.21,5.45,5.45,0,0,1-1.63-1.07,14,14,0,0,0-2-1.38A4.73,4.73,0,0,1,52.12,27.22Zm1.64-5a4.87,4.87,0,0,1,2.41.6,1.91,1.91,0,0,1,1.14,1.5,1.25,1.25,0,0,1-.26.39.93.93,0,0,1-.49.26,3.84,3.84,0,0,1-1.31-1,7,7,0,0,0-2.32-1.59A2.53,2.53,0,0,1,53.76,22.18Zm0,11.88.24.11a.68.68,0,0,0,.32.09A4,4,0,0,0,56,33.53q4-2.52,9.37-9.6a28.37,28.37,0,0,1-3.2,5.76,23,23,0,0,1-3,3.24c-.7.62-1.58,1.43-2.62,2.43q-.7,1-1.05,1a2.13,2.13,0,0,1-1.29-.82,4,4,0,0,1-.84-1,.38.38,0,0,1,.11-.3C53.53,34.1,53.63,34.06,53.78,34.06Z"/><path class="cls-2" d="M82.59,28a2.82,2.82,0,0,1,1.31.47c.54.33.84.64.88.92s-.14.29-.41.43a40,40,0,0,0-3.74,2.23,17.74,17.74,0,0,0,1.8-2.58c0-.11-.14-.17-.34-.17a19.1,19.1,0,0,0-3.63.95c.06.42.15,1.07.28,2,.47,3,.71,4.58.71,4.79a5.31,5.31,0,0,1-.13.58A.66.66,0,0,1,79,38c-.23,0-.47-.34-.73-.88a2.8,2.8,0,0,1-.39-1.14,1.45,1.45,0,0,1,.06-.47c0-.2,0-.34.06-.43,0-.56-.15-1.72-.32-3.48,0-.23-.08-.54-.15-.95l-3.42,1.12a2.74,2.74,0,0,1-.92-.21c-.42-.19-.62-.38-.62-.58s.11-.17.32-.17c.49-.06,2-.42,4.49-1.1a16.5,16.5,0,0,0-.71-3.16c-.2-.16-.3-.28-.3-.37s.14-.34.41-.34a1.8,1.8,0,0,1,.79.21c.39.17.6.35.64.54a1.56,1.56,0,0,0-.13.77,18.38,18.38,0,0,0,.21,2.06,21.36,21.36,0,0,0,3.31-1A3.62,3.62,0,0,1,82.59,28Z"/><path class="cls-2" d="M94.17,25.46a2,2,0,0,1,1,.39,1.58,1.58,0,0,1,.64.73,1.41,1.41,0,0,1-.19.39,6.11,6.11,0,0,0-.39,1.57A11.28,11.28,0,0,1,93.48,33,8.68,8.68,0,0,1,90,35.93a15.28,15.28,0,0,0,2.75-3.59,16,16,0,0,0,1.33-5.41,1.34,1.34,0,0,0-.19-.69.9.9,0,0,1-.17-.47C93.7,25.56,93.86,25.46,94.17,25.46Zm3.89-3.52a2.12,2.12,0,0,1,1.14.52c.56.39.86.71.9,1a13.71,13.71,0,0,0-.43,2.34c-.12,2-.18,4.63-.19,7.8a7.17,7.17,0,0,0,1.89-1,19,19,0,0,0,3.39-2.77,21.88,21.88,0,0,0,2.49-3.61A18.34,18.34,0,0,1,105,30.71a23.23,23.23,0,0,1-3.67,3.78q-1.95,1.68-2.28,1.65c-.3,0-.63-.29-1-.82a2.53,2.53,0,0,1-.54-1.2.76.76,0,0,1,.21-.54A7.59,7.59,0,0,0,98,32.7q.2-1.64.19-6.72a12.49,12.49,0,0,0-.21-3.09,1,1,0,0,1-.24-.41C97.72,22.12,97.83,21.94,98.06,21.94Z"/><path class="cls-2" d="M116.41,22.22a2.76,2.76,0,0,1,1.22.37,1.46,1.46,0,0,1,.82.79c-.1.17-.2.36-.3.56a14.39,14.39,0,0,0-.24,2.64c0,.63,0,1,0,1.14.87-.31,1.76-.62,2.66-.92a21,21,0,0,0,2.56-1.14,1.59,1.59,0,0,1,.73-.24,2.19,2.19,0,0,1,1.29.58,2.08,2.08,0,0,1,.92,1.22c0,.21-.24.34-.62.39a3.48,3.48,0,0,0-1.5.86c-.2.16-1.15.86-2.84,2.11a10.43,10.43,0,0,1-1.59,1L122.57,28c.2-.24.42-.51.67-.79,0-.09-.12-.13-.34-.13a19.05,19.05,0,0,0-5.07,1.48c0,.63,0,1.47,0,2.51,0,1.5.12,2.38.37,2.62a1.56,1.56,0,0,0,1.33.52,11.73,11.73,0,0,0,2.6-.41c.69-.17,1-.26,1.1-.26a1.77,1.77,0,0,1,.86.32,1.12,1.12,0,0,1,.56.64c0,.26-.31.45-.79.58a15.75,15.75,0,0,1-3.65.34,4.21,4.21,0,0,1-3-.92c-.54-.54-.82-1.69-.82-3.44V29.17l-1.78.79a12.87,12.87,0,0,1-2.06.88,4.41,4.41,0,0,1-1.25-.34c-.24-.11-.37-.26-.37-.43s.24-.19.71-.28a10,10,0,0,0,1.89-.54c.64-.21,1.6-.55,2.88-1,0-1.09,0-2.33.09-3.74a5.46,5.46,0,0,0-.3-1.53.88.88,0,0,1-.17-.43C115.92,22.33,116.08,22.22,116.41,22.22Z"/><path class="cls-2" d="M133.71,28.64c1.47.77,2.27,1.55,2.38,2.32-.06.39-.24.57-.56.56s-.54-.42-.88-1.22A9.7,9.7,0,0,0,133.71,28.64Zm9-.68a2,2,0,0,1,.88.49,2.23,2.23,0,0,1,.56.82,1.19,1.19,0,0,1-.32.37.89.89,0,0,0-.34.37,27.61,27.61,0,0,1-3.78,5.46,11.12,11.12,0,0,1-3.44,2.08,16.54,16.54,0,0,0,5.29-6.75,7.14,7.14,0,0,0,.69-2.38C142.3,28.11,142.46,28,142.73,28Zm-5.5-.37a6,6,0,0,1,1.89,1.35,1.87,1.87,0,0,1,.49,1c-.13.37-.32.55-.56.54s-.57-.41-.9-1.2A10.39,10.39,0,0,0,137.23,27.59Z"/><path class="cls-2" d="M156.93,21a2.7,2.7,0,0,1,1.4.54,1.56,1.56,0,0,1,.82,1A.64.64,0,0,1,159,23a3.28,3.28,0,0,0-.26,1.7v1.83a11.23,11.23,0,0,1,4.55,1.78c.86.66,1.3,1.26,1.33,1.8s-.21.69-.69.69-1.33-.59-2.62-1.78a10.9,10.9,0,0,0-2.58-1.89v5.63a8.71,8.71,0,0,0,.11,1.8,7.91,7.91,0,0,1,.09,1.18,3.73,3.73,0,0,1-.37,1.35c-.19.34-.37.54-.54.58-.33-.07-.61-.43-.84-1.07a4.09,4.09,0,0,1-.28-1.4,7.7,7.7,0,0,1,.17-1.33c.11-.66.18-1.11.19-1.35.13-1.79.19-3,.19-3.67,0-1.55-.06-3.28-.19-5.2a3.7,3.7,0,0,0-.34-1.4,2.71,2.71,0,0,1-.28-.86C156.61,21.12,156.72,21,156.93,21Z"/></g></g></svg>